<svg width="200" height="22" viewBox="0 0 200 22" fill="none" xmlns="http://www.w3.org/2000/svg">
<g clip-path="url(#clip0_296_58084)">
<path d="M103.398 3.94966C101.342 1.93863 98.8129 0.933105 95.8146 0.933105H91.0535C90.5175 0.933105 90.0504 1.12697 89.6522 1.51682C89.254 1.90454 89.056 2.36256 89.056 2.88663V19.842C89.056 20.3682 89.254 20.8219 89.6522 21.2118C90.0504 21.5995 90.5175 21.7934 91.0535 21.7934H95.8146C98.8129 21.7934 101.342 20.7879 103.398 18.7768C105.453 16.7658 106.482 14.3223 106.482 11.3888C106.482 8.45533 105.453 5.95644 103.398 3.94753M100.552 15.9946C99.28 17.2366 97.7023 17.8586 95.8146 17.8586H93.1822V4.86784H95.8146C97.7023 4.86784 99.28 5.4899 100.552 6.73189C101.822 7.976 102.459 9.54606 102.459 11.3909C102.459 13.2358 101.822 14.7505 100.552 15.9946Z" fill="#F2F5FA"/>
<path d="M164.67 4.6037C163.323 2.10056 160.65 0.54541 157.692 0.54541C154.735 0.54541 152.061 2.10056 150.714 4.6037C150.671 4.68253 150.69 4.77839 150.759 4.83591C150.794 4.86574 150.837 4.87852 150.882 4.87852C150.923 4.87852 150.964 4.86574 150.998 4.83804C152.774 3.45971 155.152 2.70131 157.692 2.70131C160.232 2.70131 162.61 3.45971 164.386 4.83804C164.457 4.89343 164.556 4.8913 164.625 4.83378C164.694 4.77626 164.713 4.6804 164.67 4.60157" fill="#18943B"/>
<path d="M148.303 8.939C148.303 7.69702 149.203 6.98975 150.314 6.98975C151.424 6.98975 152.324 7.69915 152.324 8.939V20.0487C152.324 21.2886 151.424 22.0001 150.314 22.0001C149.203 22.0001 148.303 21.2907 148.303 20.0487V8.939Z" fill="#F2F5FA"/>
<path d="M183.211 20.0486C183.211 21.2885 182.311 22 181.201 22C180.09 22 179.19 21.2906 179.19 20.0486V13.4382C179.19 11.9193 178.358 10.8584 176.367 10.8584C174.739 10.8584 173.545 11.6679 173.545 13.4382V20.0486C173.545 21.2885 172.643 22 171.532 22C170.422 22 169.522 21.2906 169.522 20.0486V13.3189C169.522 11.5294 170.142 10.0254 171.384 8.80683C172.623 7.58828 174.558 6.979 176.367 6.979C178.175 6.979 180.107 7.58828 181.349 8.80683C182.591 10.0254 183.211 11.5294 183.211 13.3189V20.0486Z" fill="#F2F5FA"/>
<path d="M144.446 6.97705C142.638 6.97705 141.114 7.58633 139.872 8.80488C138.63 10.0234 138.01 11.5275 138.01 13.3169V20.0467C138.01 21.2865 138.91 21.9981 140.021 21.9981C141.132 21.9981 142.031 21.2887 142.031 20.0467V13.3169C142.031 12.648 142.255 12.1026 142.703 11.6808C143.15 11.259 143.71 11.0183 144.386 10.9587C145.757 10.8415 146.441 10.1726 146.441 8.954C146.441 7.26891 145.021 6.97918 144.446 6.97918" fill="#F2F5FA"/>
<path d="M114.866 6.97705C113.058 6.97705 111.534 7.58633 110.292 8.80488C109.05 10.0234 108.43 11.5275 108.43 13.3169V20.0467C108.43 21.2865 109.33 21.9981 110.44 21.9981C111.551 21.9981 112.451 21.2887 112.451 20.0467V13.3169C112.451 12.648 112.677 12.1026 113.122 11.6808C113.57 11.259 114.13 11.0183 114.805 10.9587C116.176 10.8415 116.861 10.1726 116.861 8.954C116.861 7.26891 115.44 6.97918 114.866 6.97918" fill="#F2F5FA"/>
<path d="M129.302 5.50481C129.769 5.04253 130.339 4.81245 131.015 4.81245H135.01C136.233 4.81458 136.932 3.9454 136.932 2.87384C136.932 1.80228 136.233 0.933105 135.01 0.933105H131.015C129.188 0.933105 127.657 1.54238 126.426 2.76094C125.195 3.97949 124.579 5.49416 124.579 7.30282V20.0486C124.579 21.2885 125.479 21.9979 126.59 21.9979C127.7 21.9979 128.6 21.2885 128.6 20.0486V13.8706H134.448C135.671 13.8706 136.368 13.0015 136.368 11.9299C136.368 10.8583 135.669 9.98917 134.448 9.98917H128.602V7.1963C128.602 6.52737 128.835 5.96283 129.302 5.50055" fill="#F2F5FA"/>
<path d="M120.944 19.548C120.944 20.9008 119.836 21.9979 118.469 21.9979C117.102 21.9979 115.994 20.9008 115.994 19.548C115.994 18.1953 117.102 17.0981 118.469 17.0981C119.836 17.0981 120.944 18.1953 120.944 19.548Z" fill="#F2F5FA"/>
<path d="M164.896 17.914H161.857C159.802 17.914 158.213 16.3311 158.213 14.3798C158.213 12.4284 159.72 10.7731 161.784 10.7731C162.313 10.7731 162.976 10.9137 163.336 11.0969L161.194 13.1633C160.368 13.9516 160.469 14.989 161.173 15.7133C161.879 16.4377 162.972 16.5442 163.747 15.7858C163.747 15.7858 166.836 12.8289 167.18 12.488C167.524 12.1493 168.054 11.655 168.054 10.8477C168.054 10.1404 167.182 9.18812 166.138 8.41693C164.896 7.49876 163.351 6.96191 161.681 6.96191C157.348 6.96191 154.261 10.281 154.261 14.3776C154.261 18.4743 157.44 21.7933 161.754 21.7933H164.894C166.117 21.7933 166.816 20.9242 166.816 19.8526C166.816 18.781 166.117 17.9119 164.894 17.9119" fill="#F2F5FA"/>
<path d="M200 2.89311C200 1.65325 199.1 0.943848 197.99 0.943848C196.879 0.943848 195.979 1.65325 195.979 2.89311V6.98762H192.525C188.22 6.98762 185.049 10.3003 185.049 14.4608C185.049 18.6214 188.22 21.998 192.525 21.998C196.829 21.998 200 18.8003 200 14.4608V2.89311ZM192.51 18.1165C190.51 18.1165 189.036 16.4591 189.036 14.4459C189.036 12.4328 190.508 10.8031 192.51 10.8031H195.979V10.9586L195.984 14.4459C195.984 16.457 194.43 18.1165 192.51 18.1165Z" fill="#F2F5FA"/>
<path d="M65.6788 6.97705C63.8707 6.97705 62.3468 7.58633 61.1049 8.80488C59.8629 10.0234 59.243 11.5275 59.243 13.3169V20.0467C59.243 21.2865 60.1427 21.9981 61.2534 21.9981C62.364 21.9981 63.2638 21.2887 63.2638 20.0467V13.3169C63.2638 12.648 63.4876 12.1026 63.9353 11.6808C64.383 11.259 64.9426 11.0183 65.6185 10.9587C66.9896 10.8415 67.674 10.1726 67.674 8.954C67.674 7.26891 66.2535 6.97918 65.6788 6.97918" fill="#F2F5FA"/>
<path d="M37.4133 8.80701C36.2617 7.6758 34.8605 7.07505 33.2204 6.99409C33.1256 6.98344 33.0374 6.97705 32.9664 6.97705C32.9448 6.97705 32.9255 6.97918 32.9039 6.97918C32.8824 6.97918 32.8631 6.97705 32.8415 6.97705C32.7683 6.97705 32.6823 6.98131 32.5875 6.99409C31.0141 7.07079 29.6667 7.63106 28.5432 8.6728C27.4196 7.63106 26.07 7.07079 24.4988 6.99409C24.4041 6.98344 24.3158 6.97705 24.2448 6.97705C24.2233 6.97705 24.2039 6.97918 24.1824 6.97918C24.1609 6.97918 24.1415 6.97705 24.12 6.97705C24.0468 6.97705 23.9607 6.98131 23.866 6.99409C22.9512 7.03883 22.1118 7.2476 21.3476 7.61828C20.9796 7.21352 20.435 6.98983 19.8194 6.98983C18.7088 6.98983 17.8091 7.69924 17.8091 8.93909V20.0488C17.8091 21.2887 18.7088 22.0002 19.8194 22.0002C19.9572 22.0002 20.0928 21.9895 20.2241 21.9682C21.141 21.8149 21.8298 21.1374 21.8298 20.0509V13.3212C21.8298 12.6523 22.0536 12.1069 22.5013 11.6851C22.9469 11.2633 23.5065 11.0226 24.1824 10.9629C24.8561 11.0226 25.4157 11.2633 25.8634 11.6851C26.3111 12.109 26.5328 12.6544 26.5328 13.3212V17.6181V20.0531C26.5328 21.2929 27.4325 22.0045 28.5432 22.0045C29.6538 22.0045 30.5535 21.2951 30.5535 20.0531V13.3233C30.5535 12.6544 30.7774 12.109 31.2251 11.6872C31.6706 11.2654 32.2302 11.0247 32.9061 10.965C33.5798 11.0247 34.1394 11.2654 34.5871 11.6872C35.0348 12.1112 35.2565 12.6565 35.2565 13.3233V20.0531C35.2565 21.2929 36.1584 22.0045 37.269 22.0045C38.3797 22.0045 39.2794 21.2951 39.2794 20.0531V13.3233C39.2794 11.5338 38.6595 10.0298 37.4176 8.81127L37.4133 8.80701Z" fill="#F2F5FA"/>
<path d="M14.3846 11.7914C14.165 11.474 13.9132 11.1736 13.6269 10.8882C13.0781 10.3449 12.4668 9.92951 11.7995 9.62913C10.9773 9.25845 10.0668 9.06459 9.06381 9.06246C9.05735 9.06246 9.05305 9.06246 9.04659 9.06246C9.04444 9.06246 9.04013 9.06246 9.03798 9.06246H6.41204C5.74694 9.05607 5.18301 8.82812 4.72239 8.37223C4.25532 7.90995 4.02286 7.34541 4.02286 6.67648V6.27172C4.02286 5.60279 4.25532 5.03825 4.72239 4.57597C5.18301 4.12007 5.74909 3.89 6.41419 3.88574H11.242H12.6088C13.8314 3.88574 14.5309 3.01656 14.5309 1.945C14.5309 0.873439 13.8314 0 12.6088 0H12.0557C12.0557 0 12.0492 0 12.0471 0H10.5963H6.43571C6.4271 0 6.41849 0 6.40988 0C4.59325 0.00639101 3.07364 0.613537 1.84677 1.82783C0.61559 3.04851 0 4.56105 0 6.36971V6.56996C0 7.95681 0.36591 9.16897 1.08912 10.2086C1.30867 10.526 1.5605 10.8264 1.84677 11.1118C2.39563 11.6551 3.00692 12.0705 3.67417 12.3709C4.49639 12.7416 5.40686 12.9354 6.40988 12.9375C6.41634 12.9375 6.42065 12.9375 6.4271 12.9375C6.42926 12.9375 6.43356 12.9375 6.43571 12.9375H9.06166C9.72675 12.9439 10.2907 13.1719 10.7513 13.6278C11.2184 14.0901 11.4508 14.6546 11.4508 15.3235V15.7283C11.4508 16.3972 11.2184 16.9618 10.7513 17.424C10.2907 17.8799 9.7246 18.11 9.0595 18.1143H3.79685H2.43007C1.2075 18.1143 0.507969 18.9834 0.507969 20.055C0.507969 21.1266 1.2075 21.9957 2.43007 21.9957H2.98324C2.98324 21.9957 2.9897 21.9957 2.99185 21.9957H4.44258H9.03798C9.04659 21.9957 9.0552 21.9957 9.06381 21.9957C10.8804 21.9893 12.4 21.3822 13.6269 20.1679C14.8581 18.9494 15.4737 17.4347 15.4737 15.626V15.4258C15.4737 14.0389 15.1078 12.8268 14.3846 11.7872V11.7914Z" fill="#F2F5FA"/>
<path d="M54.6563 6.98944C53.8018 6.98944 53.0742 7.41337 52.7837 8.1739C51.6515 7.47728 50.3148 7.07678 48.8878 7.06826C44.5959 7.0853 41.434 10.3916 41.4297 14.4712C41.4297 14.4754 41.4297 14.4776 41.4297 14.4818C41.4297 14.4861 41.4297 14.4882 41.4297 14.4925C41.4361 18.5721 44.5959 21.8784 48.8878 21.8954C50.3148 21.889 51.6472 21.4864 52.7794 20.794C53.0656 21.5652 53.7953 21.9977 54.6563 21.9977C55.7669 21.9977 56.6666 21.2883 56.6666 20.0463V8.93656C56.6666 7.69458 55.7669 6.9873 54.6563 6.9873V6.98944ZM49.7703 18.0182H49.6734C49.4302 18.0629 49.1784 18.0906 48.9524 18.0906C48.7005 18.0906 48.4595 18.0651 48.227 18.0182C47.4823 17.8584 46.8236 17.4728 46.3243 16.9402C45.7345 16.2905 45.3837 15.4256 45.3815 14.4904C45.3815 14.4904 45.3815 14.4861 45.3815 14.484C45.3815 14.484 45.3815 14.4797 45.3815 14.4776C45.3815 13.6893 45.6333 12.9501 46.0638 12.3494C46.7246 11.4631 47.7815 10.8837 48.9782 10.8773C49.1999 10.8773 49.441 10.905 49.6734 10.9476H49.7186C51.3889 11.2799 52.6459 12.7371 52.6459 14.4882C52.6459 16.2394 51.4126 17.6667 49.7681 18.0161L49.7703 18.0182Z" fill="#F2F5FA"/>
<path d="M76.1007 18.0183C75.4248 17.9586 74.8652 17.7179 74.4175 17.2961C73.9698 16.8722 73.7481 16.3268 73.7481 15.66V10.969H76.1868C77.4416 10.969 78.1562 10.0785 78.1562 8.97927C78.1562 7.88002 77.4395 6.98954 76.1868 6.98954H73.7459V4.62699C73.7459 3.38501 72.8462 2.67773 71.7356 2.67773C70.6249 2.67773 69.7252 3.38714 69.7252 4.62699V15.6579C69.7252 17.4474 70.3451 18.9514 71.5871 20.1699C72.0993 20.6727 72.6611 21.0647 73.2702 21.3608C74.1377 21.7826 75.0976 21.9978 76.1609 21.9978C76.7356 21.9978 78.1562 21.7059 78.1562 20.0229C78.1562 18.8044 77.4718 18.1355 76.1007 18.0183Z" fill="#F2F5FA"/>
</g>
<defs>
<clipPath id="clip0_296_58084">
<rect width="200" height="22" fill="white"/>
</clipPath>
</defs>
</svg>
