<svg width="375" height="812" viewBox="0 0 375 812" fill="none" xmlns="http://www.w3.org/2000/svg">
<rect width="375" height="812" fill="#182E4B" fill-opacity="0.4"/>
<g clip-path="url(#clip0_296_58061)">
<path d="M191.577 375.848C189.11 373.38 186.076 372.146 182.478 372.146H176.764C176.121 372.146 175.561 372.383 175.083 372.862C174.605 373.338 174.367 373.9 174.367 374.543V395.352C174.367 395.998 174.605 396.555 175.083 397.033C175.561 397.509 176.121 397.747 176.764 397.747H182.478C186.076 397.747 189.11 396.513 191.577 394.045C194.044 391.577 195.278 388.578 195.278 384.978C195.278 381.377 194.044 378.311 191.577 375.845M188.162 390.63C186.636 392.154 184.743 392.918 182.478 392.918H179.319V376.975H182.478C184.743 376.975 186.636 377.738 188.162 379.262C189.686 380.789 190.451 382.716 190.451 384.98C190.451 387.244 189.686 389.103 188.162 390.63Z" fill="#F2F5FA"/>
<path d="M265.104 376.65C263.487 373.578 260.28 371.669 256.731 371.669C253.182 371.669 249.974 373.578 248.357 376.65C248.305 376.747 248.328 376.864 248.411 376.935C248.452 376.972 248.504 376.987 248.558 376.987C248.607 376.987 248.656 376.972 248.698 376.938C250.829 375.246 253.683 374.315 256.731 374.315C259.778 374.315 262.633 375.246 264.763 376.938C264.849 377.006 264.967 377.003 265.05 376.932C265.133 376.862 265.156 376.744 265.104 376.647" fill="#18943B"/>
<path d="M245.464 381.97C245.464 380.446 246.544 379.578 247.876 379.578C249.209 379.578 250.289 380.449 250.289 381.97V395.605C250.289 397.127 249.209 398 247.876 398C246.544 398 245.464 397.129 245.464 395.605V381.97Z" fill="#F2F5FA"/>
<path d="M287.353 395.605C287.353 397.127 286.274 398 284.941 398C283.608 398 282.529 397.13 282.529 395.605V387.493C282.529 385.628 281.529 384.326 279.14 384.326C277.187 384.326 275.754 385.32 275.754 387.493V395.605C275.754 397.127 274.671 398 273.339 398C272.006 398 270.926 397.13 270.926 395.605V387.346C270.926 385.15 271.67 383.304 273.16 381.809C274.648 380.313 276.97 379.565 279.14 379.565C281.309 379.565 283.629 380.313 285.119 381.809C286.609 383.304 287.353 385.15 287.353 387.346V395.605Z" fill="#F2F5FA"/>
<path d="M240.835 379.562C238.666 379.562 236.837 380.31 235.347 381.806C233.856 383.301 233.113 385.147 233.113 387.343V395.602C233.113 397.124 234.192 397.997 235.525 397.997C236.858 397.997 237.937 397.127 237.937 395.602V387.343C237.937 386.522 238.206 385.853 238.743 385.335C239.28 384.818 239.952 384.522 240.763 384.449C242.408 384.305 243.23 383.484 243.23 381.989C243.23 379.921 241.525 379.565 240.835 379.565" fill="#F2F5FA"/>
<path d="M205.339 379.562C203.169 379.562 201.34 380.31 199.85 381.806C198.36 383.301 197.616 385.147 197.616 387.343V395.602C197.616 397.124 198.696 397.997 200.028 397.997C201.361 397.997 202.441 397.127 202.441 395.602V387.343C202.441 386.522 202.712 385.853 203.247 385.335C203.784 384.818 204.455 384.522 205.266 384.449C206.912 384.305 207.733 383.484 207.733 381.989C207.733 379.921 206.028 379.565 205.339 379.565" fill="#F2F5FA"/>
<path d="M222.662 377.756C223.223 377.189 223.907 376.907 224.718 376.907H229.512C230.979 376.909 231.819 375.842 231.819 374.527C231.819 373.212 230.979 372.146 229.512 372.146H224.718C222.525 372.146 220.689 372.893 219.211 374.389C217.734 375.884 216.995 377.743 216.995 379.963V395.605C216.995 397.127 218.075 397.998 219.408 397.998C220.741 397.998 221.82 397.127 221.82 395.605V388.023H228.838C230.305 388.023 231.142 386.957 231.142 385.642C231.142 384.326 230.302 383.26 228.838 383.26H221.823V379.832C221.823 379.011 222.102 378.318 222.662 377.751" fill="#F2F5FA"/>
<path d="M212.633 394.991C212.633 396.651 211.303 397.998 209.663 397.998C208.022 397.998 206.692 396.651 206.692 394.991C206.692 393.331 208.022 391.984 209.663 391.984C211.303 391.984 212.633 393.331 212.633 394.991Z" fill="#F2F5FA"/>
<path d="M265.376 392.986H261.729C259.262 392.986 257.356 391.043 257.356 388.648C257.356 386.253 259.164 384.222 261.641 384.222C262.276 384.222 263.072 384.394 263.503 384.619L260.933 387.155C259.941 388.123 260.063 389.396 260.907 390.285C261.754 391.174 263.067 391.304 263.996 390.374C263.996 390.374 267.703 386.745 268.116 386.326C268.529 385.911 269.165 385.304 269.165 384.313C269.165 383.445 268.119 382.277 266.866 381.33C265.376 380.203 263.521 379.544 261.517 379.544C256.317 379.544 252.614 383.618 252.614 388.646C252.614 393.673 256.428 397.747 261.605 397.747H265.373C266.84 397.747 267.68 396.68 267.68 395.365C267.68 394.05 266.84 392.983 265.373 392.983" fill="#F2F5FA"/>
<path d="M307.5 374.55C307.5 373.029 306.42 372.158 305.088 372.158C303.755 372.158 302.675 373.029 302.675 374.55V379.576H298.53C293.364 379.576 289.559 383.641 289.559 388.747C289.559 393.853 293.364 397.997 298.53 397.997C303.695 397.997 307.5 394.073 307.5 388.747V374.55ZM298.512 393.234C296.112 393.234 294.343 391.2 294.343 388.729C294.343 386.258 296.109 384.258 298.512 384.258H302.675V384.449L302.68 388.729C302.68 391.197 300.815 393.234 298.512 393.234Z" fill="#F2F5FA"/>
<path d="M146.314 379.562C144.145 379.562 142.316 380.31 140.826 381.806C139.335 383.301 138.592 385.147 138.592 387.343V395.602C138.592 397.124 139.671 397.997 141.004 397.997C142.337 397.997 143.416 397.127 143.416 395.602V387.343C143.416 386.522 143.685 385.853 144.222 385.335C144.76 384.818 145.431 384.522 146.242 384.449C147.887 384.305 148.709 383.484 148.709 381.989C148.709 379.921 147.004 379.565 146.314 379.565" fill="#F2F5FA"/>
<path d="M112.396 381.808C111.014 380.42 109.333 379.683 107.364 379.583C107.251 379.57 107.145 379.562 107.06 379.562C107.034 379.562 107.011 379.565 106.985 379.565C106.959 379.565 106.936 379.562 106.91 379.562C106.822 379.562 106.719 379.568 106.605 379.583C104.717 379.678 103.1 380.365 101.752 381.644C100.403 380.365 98.784 379.678 96.8985 379.583C96.7848 379.57 96.6789 379.562 96.5937 379.562C96.5679 379.562 96.5446 379.565 96.5188 379.565C96.493 379.565 96.4697 379.562 96.4439 379.562C96.3561 379.562 96.2528 379.568 96.1391 379.583C95.0414 379.638 94.0341 379.895 93.1171 380.349C92.6755 379.853 92.022 379.578 91.2833 379.578C89.9505 379.578 88.8708 380.449 88.8708 381.97V395.605C88.8708 397.127 89.9505 398 91.2833 398C91.4486 398 91.6113 397.987 91.7689 397.961C92.8692 397.773 93.6957 396.941 93.6957 395.608V387.348C93.6957 386.528 93.9643 385.858 94.5016 385.341C95.0362 384.823 95.7078 384.527 96.5188 384.454C97.3272 384.527 97.9988 384.823 98.536 385.341C99.0733 385.861 99.3393 386.53 99.3393 387.348V392.622V395.61C99.3393 397.132 100.419 398.005 101.752 398.005C103.085 398.005 104.164 397.135 104.164 395.61V387.351C104.164 386.53 104.433 385.861 104.97 385.343C105.505 384.826 106.176 384.53 106.987 384.457C107.796 384.53 108.467 384.826 109.005 385.343C109.542 385.863 109.808 386.533 109.808 387.351V395.61C109.808 397.132 110.89 398.005 112.223 398.005C113.556 398.005 114.635 397.135 114.635 395.61V387.351C114.635 385.155 113.891 383.309 112.401 381.814L112.396 381.808Z" fill="#F2F5FA"/>
<path d="M84.7615 385.471C84.498 385.082 84.1958 384.713 83.8523 384.363C83.1937 383.696 82.4601 383.186 81.6594 382.818C80.6728 382.363 79.5802 382.125 78.3766 382.122C78.3688 382.122 78.3637 382.122 78.3559 382.122C78.3533 382.122 78.3482 382.122 78.3456 382.122H75.1944C74.3963 382.114 73.7196 381.835 73.1669 381.275C72.6064 380.708 72.3274 380.015 72.3274 379.194V378.697C72.3274 377.876 72.6064 377.183 73.1669 376.616C73.7196 376.056 74.3989 375.774 75.197 375.769H80.9905H82.6306C84.0977 375.769 84.9371 374.702 84.9371 373.387C84.9371 372.072 84.0977 371 82.6306 371H81.9668C81.9668 371 81.959 371 81.9565 371H80.2156H75.2229C75.2125 371 75.2022 371 75.1919 371C73.0119 371.008 71.1884 371.753 69.7161 373.243C68.2387 374.741 67.5 376.598 67.5 378.817V379.063C67.5 380.765 67.9391 382.253 68.8069 383.529C69.0704 383.918 69.3726 384.287 69.7161 384.637C70.3748 385.304 71.1083 385.814 71.909 386.182C72.8957 386.637 73.9882 386.875 75.1919 386.878C75.1996 386.878 75.2048 386.878 75.2125 386.878C75.2151 386.878 75.2203 386.878 75.2229 386.878H78.374C79.1721 386.886 79.8488 387.165 80.4016 387.725C80.962 388.292 81.241 388.985 81.241 389.806V390.303C81.241 391.124 80.962 391.817 80.4016 392.384C79.8488 392.944 79.1695 393.226 78.3714 393.231H72.0562H70.4161C68.949 393.231 68.1096 394.298 68.1096 395.613C68.1096 396.928 68.949 397.995 70.4161 397.995H71.0799C71.0799 397.995 71.0876 397.995 71.0902 397.995H72.8311H78.3456C78.3559 397.995 78.3662 397.995 78.3766 397.995C80.5565 397.987 82.3801 397.242 83.8523 395.752C85.3297 394.256 86.0684 392.397 86.0684 390.177V389.932C86.0684 388.23 85.6293 386.742 84.7615 385.466V385.471Z" fill="#F2F5FA"/>
<path d="M133.087 379.578C132.062 379.578 131.189 380.099 130.84 381.032C129.482 380.177 127.878 379.685 126.165 379.675C121.015 379.696 117.221 383.754 117.216 388.76C117.216 388.766 117.216 388.768 117.216 388.774C117.216 388.779 117.216 388.781 117.216 388.787C117.223 393.793 121.015 397.851 126.165 397.872C127.878 397.864 129.477 397.37 130.835 396.52C131.179 397.467 132.054 397.997 133.087 397.997C134.42 397.997 135.5 397.127 135.5 395.603V381.968C135.5 380.444 134.42 379.576 133.087 379.576V379.578ZM127.224 393.114H127.108C126.816 393.168 126.514 393.202 126.243 393.202C125.941 393.202 125.651 393.171 125.372 393.114C124.479 392.918 123.688 392.444 123.089 391.791C122.381 390.993 121.96 389.932 121.958 388.784C121.958 388.784 121.958 388.779 121.958 388.776C121.958 388.776 121.958 388.771 121.958 388.768C121.958 387.801 122.26 386.894 122.777 386.156C123.569 385.069 124.838 384.358 126.274 384.35C126.54 384.35 126.829 384.384 127.108 384.436H127.162C129.167 384.844 130.675 386.632 130.675 388.781C130.675 390.93 129.195 392.682 127.222 393.111L127.224 393.114Z" fill="#F2F5FA"/>
<path d="M158.821 393.114C158.01 393.04 157.338 392.745 156.801 392.227C156.264 391.707 155.998 391.038 155.998 390.219V384.462H158.924C160.43 384.462 161.287 383.369 161.287 382.02C161.287 380.671 160.427 379.578 158.924 379.578H155.995V376.679C155.995 375.155 154.915 374.287 153.583 374.287C152.25 374.287 151.17 375.157 151.17 376.679V390.217C151.17 392.413 151.914 394.259 153.404 395.754C154.019 396.371 154.693 396.852 155.424 397.216C156.465 397.734 157.617 397.998 158.893 397.998C159.583 397.998 161.287 397.639 161.287 395.574C161.287 394.078 160.466 393.257 158.821 393.114Z" fill="#F2F5FA"/>
</g>
<path d="M73.9089 422.418C73.8904 424.626 76.5994 426.704 79.865 427.131L79.1785 428.578C76.4602 428.142 74.0667 426.732 72.9998 424.774C71.905 426.741 69.5208 428.142 66.8211 428.578L66.116 427.131C69.3816 426.704 72.0535 424.645 72.072 422.418V421.509H73.9089V422.418ZM80.5515 430.211V431.658H73.7976V437.577H72.072V431.658H65.3923V430.211H80.5515ZM90.1027 422.362V423.772H93.7209V420.971H95.4836V433.087H93.7209V428.782H90.1027V430.229H82.384V422.362H90.1027ZM84.1281 423.791V428.838H88.3771V423.791H84.1281ZM95.8547 435.796V437.225H84.6291V431.974H86.4103V435.796H95.8547ZM90.1027 427.335H93.7209V425.22H90.1027V427.335ZM105.424 421.23C109.172 421.23 111.362 422.232 111.362 424.088C111.362 425.943 109.172 426.964 105.424 426.964C101.676 426.964 99.4869 425.943 99.4869 424.088C99.4869 422.232 101.676 421.23 105.424 421.23ZM105.424 422.529C102.771 422.529 101.305 423.104 101.324 424.088C101.305 425.108 102.771 425.646 105.424 425.646C108.078 425.646 109.544 425.108 109.544 424.088C109.544 423.104 108.078 422.529 105.424 422.529ZM113.013 427.984V429.395H97.8541V427.984H113.013ZM111.102 430.675V434.571H101.417V436.056H111.566V437.41H99.6911V433.291H109.358V431.992H99.6725V430.675H111.102ZM127.792 422.733V423.754C127.792 425.146 127.792 427.298 127.31 430.267L125.566 430.137C125.983 427.474 126.03 425.554 126.048 424.162H119.294V422.733H127.792ZM123.525 427.483V432.456C125.297 432.4 127.097 432.28 128.757 432.066L128.85 433.384C125.38 433.94 121.521 434.015 118.571 433.996L118.367 432.567C119.406 432.558 120.565 432.549 121.781 432.512V427.483H123.525ZM131.485 420.952V427.817H134.027V429.32H131.485V437.577H129.704V420.952H131.485ZM144.691 422.641V424.051H134.783V422.641H138.865V420.878H140.628V422.641H144.691ZM139.737 424.793C142.131 424.812 143.764 425.999 143.764 427.817C143.764 429.636 142.131 430.842 139.737 430.842C137.325 430.842 135.692 429.636 135.692 427.817C135.692 425.999 137.325 424.812 139.737 424.793ZM139.737 426.147C138.327 426.147 137.381 426.797 137.399 427.817C137.381 428.856 138.327 429.469 139.737 429.469C141.147 429.469 142.094 428.856 142.112 427.817C142.094 426.797 141.147 426.147 139.737 426.147ZM147.827 420.952V425.461H150.239V426.927H147.827V431.343H146.064V420.952H147.827ZM147.827 432.196V437.577H146.064V433.625H136.843V432.196H147.827ZM158.566 421.954C162.054 421.954 164.707 423.791 164.707 426.593C164.707 429.395 162.054 431.25 158.566 431.231C155.078 431.25 152.443 429.395 152.443 426.593C152.443 423.791 155.078 421.954 158.566 421.954ZM158.566 423.383C156.024 423.364 154.113 424.663 154.131 426.593C154.113 428.541 156.024 429.784 158.566 429.784C161.108 429.784 163 428.541 163 426.593C163 424.663 161.108 423.364 158.566 423.383ZM166.21 433.959V435.425H150.996V433.959H166.21ZM182.441 434.107V435.592H167.226V434.107H173.925V431.194H169.082V425.906H178.842V423.568H169.045V422.121H180.586V427.316H170.826V429.747H180.975V431.194H175.669V434.107H182.441ZM186.445 434.72L184.96 439.841H183.383L184.366 434.72H186.445ZM206.438 420.971V433.217H204.675V427.446H201.224V425.98H204.675V420.971H206.438ZM201.335 422.214C201.317 426.556 198.329 429.821 193.561 431.361L192.819 429.951C196.52 428.754 199.034 426.491 199.405 423.68H193.672V422.214H201.335ZM206.864 435.796V437.225H195.732V431.955H197.513V435.796H206.864ZM221.871 420.952V425.146H224.283V426.574H221.871V430.823H220.108V420.952H221.871ZM217.306 422.14C217.306 426.444 214.393 429.543 209.513 430.953L208.79 429.524C212.677 428.42 215.08 426.259 215.395 423.568H209.532V422.14H217.306ZM216.564 431.009C219.922 431.009 222.056 432.252 222.056 434.274C222.056 436.315 219.922 437.559 216.564 437.559C213.224 437.559 211.035 436.315 211.053 434.274C211.035 432.252 213.224 431.009 216.564 431.009ZM216.564 432.4C214.245 432.4 212.779 433.105 212.797 434.274C212.779 435.443 214.245 436.167 216.564 436.167C218.865 436.167 220.331 435.443 220.331 434.274C220.331 433.105 218.865 432.4 216.564 432.4ZM232.609 421.23C236.357 421.23 238.547 422.232 238.547 424.088C238.547 425.943 236.357 426.964 232.609 426.964C228.861 426.964 226.672 425.943 226.672 424.088C226.672 422.232 228.861 421.23 232.609 421.23ZM232.609 422.529C229.956 422.529 228.49 423.104 228.509 424.088C228.49 425.108 229.956 425.646 232.609 425.646C235.263 425.646 236.729 425.108 236.729 424.088C236.729 423.104 235.263 422.529 232.609 422.529ZM240.198 427.984V429.395H225.039V427.984H240.198ZM238.287 430.675V434.571H228.602V436.056H238.751V437.41H226.876V433.291H236.543V431.992H226.857V430.675H238.287ZM249.337 430.916V432.679H257.148V430.916H258.911V437.373H247.593V430.916H249.337ZM249.337 435.963H257.148V434.052H249.337V435.963ZM260.878 428.411V429.877H245.719V428.411H260.878ZM254.198 421.843C254.198 423.754 256.851 425.609 260.043 425.999L259.412 427.391C256.712 427.01 254.365 425.739 253.308 423.977C252.222 425.749 249.866 427.01 247.203 427.391L246.535 425.999C249.764 425.591 252.398 423.81 252.398 421.843V421.138H254.198V421.843ZM271.208 422.214V423.142C271.19 424.255 271.19 425.906 270.782 428.059L269.037 427.892C269.399 426.045 269.455 424.709 269.483 423.661H262.822V422.214H271.208ZM266.959 425.943V429.376C268.741 429.32 270.577 429.19 272.247 428.949L272.359 430.229C268.889 430.842 264.918 430.897 261.987 430.916L261.82 429.487C262.84 429.478 264 429.469 265.215 429.432V425.943H266.959ZM275.105 420.952V426.24H277.387V427.725H275.105V433.439H273.305V420.952H275.105ZM275.643 435.796V437.225H264.343V432.308H266.106V435.796H275.643ZM285.751 421.954C289.239 421.954 291.892 423.791 291.892 426.593C291.892 429.395 289.239 431.25 285.751 431.231C282.263 431.25 279.628 429.395 279.628 426.593C279.628 423.791 282.263 421.954 285.751 421.954ZM285.751 423.383C283.209 423.364 281.298 424.663 281.316 426.593C281.298 428.541 283.209 429.784 285.751 429.784C288.293 429.784 290.185 428.541 290.185 426.593C290.185 424.663 288.293 423.364 285.751 423.383ZM293.395 433.959V435.425H278.18V433.959H293.395ZM309.626 434.107V435.592H294.411V434.107H301.11V431.194H296.267V425.906H306.027V423.568H296.23V422.121H307.771V427.316H298.011V429.747H308.16V431.194H302.854V434.107H309.626Z" fill="#F2F5FA"/>
<defs>
<clipPath id="clip0_296_58061">
<rect width="240" height="27" fill="white" transform="translate(67.5 371)"/>
</clipPath>
</defs>
</svg>
