<svg width="375" height="737" viewBox="0 0 375 737" fill="none" xmlns="http://www.w3.org/2000/svg">
<g clip-path="url(#clip0_296_59079)">
<path d="M375 0H0V737H375V0Z" fill="url(#paint0_radial_296_59079)"/>
<path d="M375 549.239V737H3.28931C3.54023 736.175 3.80675 735.352 4.09017 734.527C15.193 702.374 56.0799 677.755 87.6516 690.593C87.9519 682.85 92.3931 675.398 99.0548 671.419C105.717 667.44 117.979 667.073 124.966 670.462C126.544 665.283 129.007 660.396 132.145 655.993C139.098 646.252 149.417 638.85 161.02 635.778C177.875 631.324 201.065 636.002 213.737 647.95C211.533 639.066 214.655 629.083 221.526 623.023C228.388 616.962 240.692 617.452 249.266 620.716C250.61 615.146 252.848 609.818 255.828 604.93C261.821 595.081 270.796 587.013 281.38 582.36C297.215 575.399 320.531 572.702 335.673 581.045C338.253 569.348 353.521 563.952 364.107 569.614C365.15 561.821 369.157 554.511 375 549.24V549.239Z" fill="url(#paint1_linear_296_59079)"/>
<path d="M375 603.24V737H0V567.09C10.835 562.794 22.9312 561.604 34.3591 563.943C50.8457 567.324 65.6967 577.981 74.137 592.501C81.4332 585.249 94.8398 585.674 100.257 594.407C107.195 587.838 117.32 585.606 126.744 587.213C136.177 588.829 144.692 595.081 149.041 603.581C157.689 592.324 173.541 582.168 187.733 581.468C201.933 580.76 216.316 586.563 226.041 596.903C232.569 593.539 240.199 594.065 246.818 597.261C250.407 598.993 253.513 601.681 255.825 604.929C257.779 607.66 259.156 610.799 259.807 614.087C267.855 608.11 276.87 602.982 286.796 604.404C296.73 605.82 306.013 611.289 312.057 619.282C324.954 608.6 340.932 597.967 357.677 598.559C363.646 598.775 369.657 600.432 374.999 603.238L375 603.24Z" fill="url(#paint2_linear_296_59079)"/>
<path d="M375 614.338V737H0V621.906C5.30051 621.065 10.6933 620.882 16.0446 621.415C38.9679 623.688 60.1375 638.965 69.4709 659.971C74.3047 656.225 81.3916 652.694 87.294 654.31C93.1965 655.916 98.2292 660.421 100.474 666.099C108.981 658.914 120.785 655.4 132.146 655.992C136.219 656.2 140.235 656.941 144.025 658.231C158.35 663.11 169.694 675.864 172.85 690.634C181.632 688.312 192.709 690.293 195.832 698.793C204.805 687.503 221.626 676.588 236.01 675.306C250.393 674.016 265.712 680.66 272.958 693.124C277.866 682.975 293.001 677.063 303.085 682.15C304.329 674.632 313.486 667.156 320.599 669.945C327.644 645.534 347.078 622.472 371.487 615.253C372.631 614.912 373.808 614.604 375.001 614.338H375Z" fill="url(#paint3_linear_296_59079)"/>
<path d="M88.7424 66.7412C89.2938 66.7412 89.7409 66.2953 89.7409 65.7453C89.7409 65.1954 89.2938 64.7495 88.7424 64.7495C88.1909 64.7495 87.7439 65.1954 87.7439 65.7453C87.7439 66.2953 88.1909 66.7412 88.7424 66.7412Z" fill="#176AA5"/>
<path d="M272.327 36.5098C272.927 36.5098 273.414 36.0245 273.414 35.4258C273.414 34.8271 272.927 34.3418 272.327 34.3418C271.727 34.3418 271.24 34.8271 271.24 35.4258C271.24 36.0245 271.727 36.5098 272.327 36.5098Z" fill="#176AA5"/>
<path d="M304.628 51.9981C305.228 51.9981 305.715 51.5128 305.715 50.9141C305.715 50.3154 305.228 49.8301 304.628 49.8301C304.028 49.8301 303.541 50.3154 303.541 50.9141C303.541 51.5128 304.028 51.9981 304.628 51.9981Z" fill="#176AA5"/>
<path d="M258.04 85.4522C258.641 85.4522 259.127 84.9669 259.127 84.3682C259.127 83.7695 258.641 83.2842 258.04 83.2842C257.44 83.2842 256.953 83.7695 256.953 84.3682C256.953 84.9669 257.44 85.4522 258.04 85.4522Z" fill="#176AA5"/>
<path d="M180.908 70.1771C182.135 70.1771 183.13 69.185 183.13 67.9611C183.13 66.7372 182.135 65.7451 180.908 65.7451C179.681 65.7451 178.686 66.7372 178.686 67.9611C178.686 69.185 179.681 70.1771 180.908 70.1771Z" fill="#176AA5"/>
<path d="M235.677 136.253C236.621 136.253 237.385 135.49 237.385 134.55C237.385 133.609 236.621 132.846 235.677 132.846C234.734 132.846 233.969 133.609 233.969 134.55C233.969 135.49 234.734 136.253 235.677 136.253Z" fill="#176AA5"/>
<path d="M318.061 136.254C318.532 136.254 318.915 135.872 318.915 135.402C318.915 134.931 318.532 134.55 318.061 134.55C317.589 134.55 317.207 134.931 317.207 135.402C317.207 135.872 317.589 136.254 318.061 136.254Z" fill="#176AA5"/>
<path d="M62.4895 29.1729C62.4895 29.6345 62.115 30.008 61.6522 30.008C61.1894 30.008 60.8149 29.6345 60.8149 29.1729C60.8149 28.7113 61.1894 28.3379 61.6522 28.3379C62.115 28.3379 62.4895 28.7113 62.4895 29.1729Z" fill="#176AA5"/>
<path d="M134.67 89.1641C134.67 89.5674 134.342 89.8941 133.938 89.8941C133.533 89.8941 133.206 89.5674 133.206 89.1641C133.206 88.7608 133.533 88.4341 133.938 88.4341C134.342 88.4341 134.67 88.7608 134.67 89.1641Z" fill="#176AA5"/>
<path d="M88.7424 123.987C88.7424 124.262 88.5188 124.485 88.2431 124.485C87.9675 124.485 87.7439 124.262 87.7439 123.987C87.7439 123.712 87.9675 123.489 88.2431 123.489C88.5188 123.489 88.7424 123.712 88.7424 123.987Z" fill="#176AA5"/>
<path d="M160.595 130.087C161.129 129.866 161.383 129.256 161.161 128.723C160.94 128.19 160.328 127.938 159.794 128.158C159.26 128.379 159.006 128.989 159.228 129.522C159.449 130.055 160.061 130.307 160.595 130.087Z" fill="#176AA5"/>
<path d="M227.137 175.743C227.239 175.117 226.813 174.528 226.186 174.426C225.558 174.325 224.967 174.75 224.866 175.375C224.764 176.001 225.19 176.59 225.817 176.692C226.444 176.793 227.035 176.368 227.137 175.743Z" fill="#176AA5"/>
<path d="M276.717 218.481C276.863 217.58 276.25 216.732 275.347 216.586C274.444 216.439 273.593 217.051 273.447 217.951C273.3 218.852 273.913 219.701 274.816 219.847C275.719 219.993 276.57 219.381 276.717 218.481Z" fill="#176AA5"/>
<path d="M85.5039 185.67C86.1976 185.67 86.7598 185.109 86.7598 184.418C86.7598 183.726 86.1976 183.165 85.5039 183.165C84.8103 183.165 84.248 183.726 84.248 184.418C84.248 185.109 84.8103 185.67 85.5039 185.67Z" fill="#176AA5"/>
<path d="M36.0624 208.556C36.43 208.189 36.43 207.595 36.0624 207.228C35.6948 206.862 35.0988 206.862 34.7313 207.228C34.3637 207.595 34.3637 208.189 34.7313 208.556C35.0988 208.923 35.6948 208.923 36.0624 208.556Z" fill="#176AA5"/>
<path d="M225.417 268.614C225.735 268.614 225.993 268.356 225.993 268.039C225.993 267.722 225.735 267.465 225.417 267.465C225.099 267.465 224.841 267.722 224.841 268.039C224.841 268.356 225.099 268.614 225.417 268.614Z" fill="#176AA5"/>
<path d="M322.51 233.553C322.63 233.048 322.316 232.543 321.81 232.423C321.305 232.304 320.798 232.617 320.678 233.121C320.559 233.626 320.872 234.132 321.378 234.251C321.884 234.37 322.391 234.057 322.51 233.553Z" fill="#176AA5"/>
<path d="M82.9932 263.293C83.6868 263.293 84.2491 262.732 84.2491 262.041C84.2491 261.349 83.6868 260.788 82.9932 260.788C82.2996 260.788 81.7373 261.349 81.7373 262.041C81.7373 262.732 82.2996 263.293 82.9932 263.293Z" fill="#176AA5"/>
<path d="M30.6888 118.482C31.1512 118.482 31.5261 118.108 31.5261 117.647C31.5261 117.185 31.1512 116.812 30.6888 116.812C30.2264 116.812 29.8516 117.185 29.8516 117.647C29.8516 118.108 30.2264 118.482 30.6888 118.482Z" fill="#176AA5"/>
<path d="M261.124 320.266C262.227 320.266 263.121 319.374 263.121 318.274C263.121 317.174 262.227 316.282 261.124 316.282C260.021 316.282 259.127 317.174 259.127 318.274C259.127 319.374 260.021 320.266 261.124 320.266Z" fill="#176AA5"/>
<path d="M159.735 352.349C160.348 351.738 160.348 350.747 159.735 350.136C159.122 349.524 158.129 349.524 157.516 350.136C156.903 350.747 156.903 351.738 157.516 352.349C158.129 352.96 159.122 352.96 159.735 352.349Z" fill="#176AA5"/>
<path d="M294.46 351.584C294.659 350.743 294.137 349.9 293.293 349.702C292.45 349.503 291.604 350.024 291.405 350.865C291.206 351.707 291.729 352.55 292.572 352.748C293.416 352.947 294.261 352.426 294.46 351.584Z" fill="#176AA5"/>
<path d="M323.092 418.778C323.092 419.067 322.857 419.302 322.567 419.302C322.277 419.302 322.042 419.067 322.042 418.778C322.042 418.489 322.277 418.254 322.567 418.254C322.857 418.254 323.092 418.489 323.092 418.778Z" fill="#B7D0E7"/>
<path d="M335.409 439.048C335.409 439.441 335.091 439.759 334.697 439.759C334.303 439.759 333.984 439.441 333.984 439.048C333.984 438.656 334.303 438.338 334.697 438.338C335.091 438.338 335.409 438.656 335.409 439.048Z" fill="#B7D0E7"/>
<path d="M318.173 454.261C318.173 454.717 317.801 455.088 317.343 455.088C316.885 455.088 316.514 454.717 316.514 454.261C316.514 453.804 316.885 453.434 317.343 453.434C317.801 453.434 318.173 453.804 318.173 454.261Z" fill="#B7D0E7"/>
<path d="M263.29 458.957C263.43 458.365 263.062 457.771 262.468 457.631C261.874 457.491 261.279 457.858 261.139 458.451C260.999 459.043 261.367 459.637 261.961 459.777C262.555 459.916 263.15 459.55 263.29 458.957Z" fill="#B7D0E7"/>
<path d="M234.828 481.719C235.087 481.719 235.298 481.51 235.298 481.251C235.298 480.993 235.087 480.783 234.828 480.783C234.569 480.783 234.359 480.993 234.359 481.251C234.359 481.51 234.569 481.719 234.828 481.719Z" fill="#B7D0E7"/>
<path d="M204.945 494.899C204.945 495.203 204.698 495.45 204.393 495.45C204.087 495.45 203.84 495.203 203.84 494.899C203.84 494.594 204.087 494.348 204.393 494.348C204.698 494.348 204.945 494.594 204.945 494.899Z" fill="#B7D0E7"/>
<path d="M185.209 442.047C185.209 442.276 185.023 442.461 184.794 442.461C184.565 442.461 184.379 442.276 184.379 442.047C184.379 441.819 184.565 441.634 184.794 441.634C185.023 441.634 185.209 441.819 185.209 442.047Z" fill="#B7D0E7"/>
<path d="M157.62 448.802C157.62 449.107 157.373 449.353 157.068 449.353C156.762 449.353 156.515 449.107 156.515 448.802C156.515 448.497 156.762 448.251 157.068 448.251C157.373 448.251 157.62 448.497 157.62 448.802Z" fill="#B7D0E7"/>
<path d="M107.807 431.405C107.807 431.725 107.547 431.984 107.226 431.984C106.905 431.984 106.645 431.725 106.645 431.405C106.645 431.085 106.905 430.825 107.226 430.825C107.547 430.825 107.807 431.085 107.807 431.405Z" fill="#B7D0E7"/>
<path d="M146.121 407.888C146.121 408.253 145.825 408.549 145.458 408.549C145.091 408.549 144.795 408.253 144.795 407.888C144.795 407.522 145.091 407.227 145.458 407.227C145.825 407.227 146.121 407.522 146.121 407.888Z" fill="#B7D0E7"/>
<path d="M81.7672 448.471C81.7672 448.958 81.3706 449.352 80.8831 449.352C80.3956 449.352 79.999 448.957 79.999 448.471C79.999 447.984 80.3956 447.589 80.8831 447.589C81.3706 447.589 81.7672 447.984 81.7672 448.471Z" fill="#B7D0E7"/>
<path d="M85.3607 470.968C85.8188 470.968 86.1902 470.598 86.1902 470.141C86.1902 469.684 85.8188 469.313 85.3607 469.313C84.9026 469.313 84.5312 469.684 84.5312 470.141C84.5312 470.598 84.9026 470.968 85.3607 470.968Z" fill="#B7D0E7"/>
<path d="M49.5442 426.8C50.0368 426.8 50.4361 426.401 50.4361 425.91C50.4361 425.419 50.0368 425.021 49.5442 425.021C49.0516 425.021 48.6523 425.419 48.6523 425.91C48.6523 426.401 49.0516 426.8 49.5442 426.8Z" fill="#B7D0E7"/>
<path d="M75.0353 371.632C76.5137 371.632 77.7122 370.436 77.7122 368.962C77.7122 367.487 76.5137 366.292 75.0353 366.292C73.5569 366.292 72.3584 367.487 72.3584 368.962C72.3584 370.436 73.5569 371.632 75.0353 371.632Z" fill="#B7D0E7"/>
<path d="M19.0829 361.081C19.0829 361.432 18.7982 361.716 18.4459 361.716C18.0936 361.716 17.8088 361.432 17.8088 361.081C17.8088 360.729 18.0936 360.445 18.4459 360.445C18.7982 360.445 19.0829 360.729 19.0829 361.081Z" fill="#B7D0E7"/>
<path d="M80.1058 527.009C80.7188 526.755 81.0086 526.052 80.7531 525.441C80.4975 524.829 79.7934 524.54 79.1803 524.795C78.5673 525.05 78.2775 525.752 78.533 526.364C78.7886 526.975 79.4927 527.264 80.1058 527.009Z" fill="#B7D0E7"/>
<path d="M139.019 522.392C139.652 522.392 140.165 521.88 140.165 521.248C140.165 520.617 139.652 520.104 139.019 520.104C138.385 520.104 137.872 520.617 137.872 521.248C137.872 521.88 138.385 522.392 139.019 522.392Z" fill="#B7D0E7"/>
<path d="M283.913 541.872C284.563 541.604 284.872 540.861 284.603 540.212C284.333 539.564 283.588 539.256 282.938 539.524C282.288 539.793 281.979 540.536 282.248 541.185C282.518 541.833 283.263 542.141 283.913 541.872Z" fill="#B7D0E7"/>
<path d="M345.074 481.719C345.334 481.719 345.544 481.51 345.544 481.251C345.544 480.993 345.334 480.783 345.074 480.783C344.815 480.783 344.605 480.993 344.605 481.251C344.605 481.51 344.815 481.719 345.074 481.719Z" fill="#B7D0E7"/>
<path d="M22.9792 487.976C23.5637 487.733 23.84 487.063 23.5964 486.48C23.3527 485.897 22.6813 485.622 22.0967 485.865C21.5122 486.108 21.2359 486.777 21.4796 487.36C21.7232 487.943 22.3946 488.219 22.9792 487.976Z" fill="#B7D0E7"/>
<path d="M237.813 378.957C237.925 378.27 237.457 377.623 236.769 377.512C236.081 377.401 235.432 377.867 235.321 378.553C235.209 379.239 235.676 379.886 236.364 379.998C237.053 380.109 237.701 379.643 237.813 378.957Z" fill="#B7D0E7"/>
<path d="M187.197 301.462C187.689 301.462 188.088 301.063 188.088 300.572C188.088 300.081 187.689 299.683 187.197 299.683C186.704 299.683 186.305 300.081 186.305 300.572C186.305 301.063 186.704 301.462 187.197 301.462Z" fill="#B7D0E7"/>
<path d="M89.7409 99.5507C89.7409 99.8255 89.5173 100.049 89.2417 100.049C88.966 100.049 88.7424 99.8255 88.7424 99.5507C88.7424 99.2758 88.966 99.0527 89.2417 99.0527C89.5173 99.0527 89.7409 99.2758 89.7409 99.5507Z" fill="#B7D0E7"/>
<path d="M292.941 149.625C292.941 150.056 292.59 150.407 292.158 150.407C291.725 150.407 291.374 150.056 291.374 149.625C291.374 149.193 291.725 148.843 292.158 148.843C292.59 148.843 292.941 149.193 292.941 149.625Z" fill="#B7D0E7"/>
<path d="M301.316 54.2573C301.55 53.2669 300.935 52.2745 299.942 52.0408C298.949 51.807 297.954 52.4204 297.72 53.4108C297.486 54.4012 298.101 55.3936 299.094 55.6274C300.087 55.8611 301.082 55.2477 301.316 54.2573Z" fill="#B7D0E7"/>
<path d="M148.379 193.757C149.627 193.757 150.638 192.748 150.638 191.504C150.638 190.26 149.627 189.252 148.379 189.252C147.132 189.252 146.121 190.26 146.121 191.504C146.121 192.748 147.132 193.757 148.379 193.757Z" fill="#B7D0E7"/>
<path d="M323.298 185.67C323.991 185.67 324.554 185.109 324.554 184.418C324.554 183.726 323.991 183.165 323.298 183.165C322.604 183.165 322.042 183.726 322.042 184.418C322.042 185.109 322.604 185.67 323.298 185.67Z" fill="#B7D0E7"/>
<path d="M16.6439 16.5878C16.6439 17.0325 16.2825 17.3943 15.8353 17.3943C15.388 17.3943 15.0266 17.0338 15.0266 16.5878C15.0266 16.1417 15.388 15.7812 15.8353 15.7812C16.2825 15.7812 16.6439 16.1417 16.6439 16.5878Z" fill="#B7D0E7"/>
<rect width="375" height="737" fill="url(#paint4_linear_296_59079)"/>
</g>
<defs>
<radialGradient id="paint0_radial_296_59079" cx="0" cy="0" r="1" gradientUnits="userSpaceOnUse" gradientTransform="translate(336.483 204.131) scale(434.719 569.587)">
<stop stop-color="#1D00A0"/>
<stop offset="1" stop-color="#000414"/>
</radialGradient>
<linearGradient id="paint1_linear_296_59079" x1="201.963" y1="534.849" x2="189.406" y2="733.938" gradientUnits="userSpaceOnUse">
<stop stop-color="#140070"/>
<stop offset="0.99" stop-color="#000414"/>
</linearGradient>
<linearGradient id="paint2_linear_296_59079" x1="187.499" y1="505.893" x2="187.499" y2="676.686" gradientUnits="userSpaceOnUse">
<stop stop-color="#1C1C82"/>
<stop offset="0.99" stop-color="#140070"/>
</linearGradient>
<linearGradient id="paint3_linear_296_59079" x1="187.499" y1="636.02" x2="187.499" y2="753.438" gradientUnits="userSpaceOnUse">
<stop stop-color="#1A1A84"/>
<stop offset="1" stop-color="#1C1C82"/>
</linearGradient>
<linearGradient id="paint4_linear_296_59079" x1="187.5" y1="0" x2="187.5" y2="737" gradientUnits="userSpaceOnUse">
<stop stop-opacity="0.6"/>
<stop offset="1" stop-opacity="0"/>
</linearGradient>
<clipPath id="clip0_296_59079">
<rect width="375" height="737" fill="white"/>
</clipPath>
</defs>
</svg>
