<svg width="343" height="120" viewBox="0 0 343 120" fill="none" xmlns="http://www.w3.org/2000/svg">
<mask id="mask0_296_60728" style="mask-type:alpha" maskUnits="userSpaceOnUse" x="0" y="0" width="343" height="120">
<rect width="343" height="120" rx="16" fill="url(#paint0_linear_296_60728)"/>
</mask>
<g mask="url(#mask0_296_60728)">
<rect width="343" height="120" rx="16" fill="url(#paint1_linear_296_60728)"/>
<g clip-path="url(#clip0_296_60728)">
<path d="M293.492 105.996L284.661 59.436C284.285 57.451 282.541 56.0137 280.516 56.0137H252.443L266.947 123.848H434.911V105.996H293.492Z" fill="#0D4073"/>
<path d="M265.043 104.039L256.583 59.436C256.207 57.451 254.464 56.0137 252.438 56.0137H242.906L253.914 123.848H406.828V105.996H267.412C266.251 105.996 265.26 105.177 265.043 104.039Z" fill="#003663"/>
<path d="M427.851 89.9336H295.297C293.966 89.9336 292.886 91.0089 292.886 92.3353V103.6C292.886 104.926 293.966 106.001 295.297 106.001H427.851C429.183 106.001 430.263 104.926 430.263 103.6V92.3353C430.263 91.0089 429.183 89.9336 427.851 89.9336Z" fill="#678CB4"/>
<path d="M292.886 103.595C292.886 104.92 293.967 105.997 295.297 105.997H427.851C429.182 105.997 430.263 104.92 430.263 103.595V102.42H292.886V103.595Z" fill="#5B80A7"/>
<path d="M399.778 89.9336H267.224C265.893 89.9336 264.813 91.0089 264.813 92.3353V103.6C264.813 104.926 265.893 106.001 267.224 106.001H399.778C401.11 106.001 402.189 104.926 402.189 103.6V92.3353C402.189 91.0089 401.11 89.9336 399.778 89.9336Z" fill="#5B80A7"/>
<path d="M264.813 102.42V103.595C264.813 104.92 265.894 105.997 267.224 105.997H399.778C401.108 105.997 402.189 104.92 402.189 103.595V102.42H264.813Z" fill="#436D9A"/>
<path d="M427.851 84.4082H295.297C293.966 84.4082 292.886 85.4835 292.886 86.8099V87.5309C292.886 88.8574 293.966 89.9327 295.297 89.9327H427.851C429.183 89.9327 430.263 88.8574 430.263 87.5309V86.8099C430.263 85.4835 429.183 84.4082 427.851 84.4082Z" fill="#678CB4"/>
<path d="M399.778 84.4082H267.224C265.893 84.4082 264.813 85.4835 264.813 86.8099V87.5309C264.813 88.8574 265.893 89.9327 267.224 89.9327H399.778C401.11 89.9327 402.189 88.8574 402.189 87.5309V86.8099C402.189 85.4835 401.11 84.4082 399.778 84.4082Z" fill="#5B80A7"/>
<path d="M292.961 88.0879C293.215 89.1413 294.165 89.9325 295.302 89.9325H427.856C428.994 89.9325 429.943 89.146 430.197 88.0879H292.961Z" fill="#5B80A7"/>
<path d="M264.884 88.0879C265.137 89.1413 266.087 89.9325 267.224 89.9325H399.778C400.916 89.9325 401.865 89.146 402.119 88.0879H264.884Z" fill="#436D9A"/>
<path d="M284.845 73.2656H271.779C265.246 73.2656 263.257 78.8369 263.257 78.8369C263.257 78.8369 265.246 84.4082 271.779 84.4082H284.845C291.378 84.4082 293.366 78.8369 293.366 78.8369C293.366 78.8369 291.378 73.2656 284.845 73.2656Z" fill="#2F5B90"/>
<path d="M268.874 69.2677C282.184 64.5345 291.5 66.6319 299.175 71.4634C303.776 74.3614 308.598 78.8372 308.598 84.4085H286.452C273.268 84.4085 268.874 69.2677 268.874 69.2677Z" fill="#BEDAEE"/>
<path d="M268.874 69.2676C268.874 69.2676 279.016 75.5692 283.561 79.75C288.106 83.9308 274.382 83.6686 268.874 69.2676Z" fill="#EBF7FF"/>
<path d="M251.315 88.0898V129.205H254.468V100.581H278.664V129.205H282.8V88.0898H251.315Z" fill="#002551"/>
<path d="M234.099 88.0898V129.205H236.707V100.581H260.898V129.205H265.584V88.0898H234.099Z" fill="#002551"/>
<path d="M263.742 88.0898V129.205H265.584V100.581H280.962V129.205H282.8V88.0898H263.742Z" fill="#2F5B90"/>
<path d="M280.074 98.1987H267.06V90.1602H280.074V98.1987ZM267.53 97.7305H279.604V90.6283H267.53V97.7305Z" fill="#436D9A"/>
<path d="M273.569 95.3093C274.195 95.3093 274.702 94.8042 274.702 94.181C274.702 93.5579 274.195 93.0527 273.569 93.0527C272.944 93.0527 272.437 93.5579 272.437 94.181C272.437 94.8042 272.944 95.3093 273.569 95.3093Z" fill="#436D9A"/>
<path d="M252.057 82.6445H243.964C243.38 82.6445 242.906 83.1162 242.906 83.6979V87.036C242.906 87.6178 243.38 88.0894 243.964 88.0894H252.057C252.641 88.0894 253.115 87.6178 253.115 87.036V83.6979C253.115 83.1162 252.641 82.6445 252.057 82.6445Z" fill="#002551"/>
<path d="M254.412 82.6445H246.319C245.735 82.6445 245.261 83.1162 245.261 83.6979V87.036C245.261 87.6178 245.735 88.0894 246.319 88.0894H254.412C254.996 88.0894 255.47 87.6178 255.47 87.036V83.6979C255.47 83.1162 254.996 82.6445 254.412 82.6445Z" fill="#2F5B90"/>
<path d="M254.938 87.0363V83.7029C254.938 83.4107 254.701 83.1738 254.407 83.1738H246.319C246.025 83.1738 245.787 83.4107 245.787 83.7029V87.0363C245.787 87.3284 246.025 87.5653 246.319 87.5653H254.407C254.701 87.5653 254.938 87.3284 254.938 87.0363Z" fill="#5B80A7"/>
<path d="M248.067 83.9688H246.723V86.7638H248.067V83.9688Z" fill="#678CB4"/>
<path d="M249.9 83.9688H248.556V86.7638H249.9V83.9688Z" fill="#678CB4"/>
<path d="M252.175 83.9688H250.831V86.7638H252.175V83.9688Z" fill="#678CB4"/>
<path d="M254.008 83.9688H252.664V86.7638H254.008V83.9688Z" fill="#678CB4"/>
<path d="M348.882 -32.2363H369.562V6.05101H348.882V-32.2363ZM323.93 6.05101H344.61V-32.2363H323.93V6.05101ZM298.973 6.05101H319.653V-32.2363H298.973V6.05101ZM348.882 47.6671H369.562V9.37973H348.882V47.6671ZM323.93 47.6671H344.61V9.37973H323.93V47.6671ZM298.973 47.6671H319.653V9.37973H298.973V47.6671Z" fill="#003663"/>
<path d="M379.991 -36.7637H289.004V-31.2205H292.369V50.0406H306.941C306.941 40.4758 301.31 14.5273 301.31 14.5273C301.31 14.5273 308.547 -7.73684 309.736 -31.2205H358.79C359.979 -7.73684 367.215 14.5273 367.215 14.5273C367.215 14.5273 361.585 40.4758 361.585 50.0406H376.156V-31.2205H379.987V-36.7637H379.991Z" fill="#5B80A7"/>
<path d="M309.27 13.3371L308.796 14.2266C308.631 14.5356 308.387 14.7884 308.086 14.957L307.221 15.4439C307.188 15.4626 307.188 15.5094 307.221 15.5281L308.086 16.015C308.387 16.1836 308.631 16.4364 308.796 16.7454L309.27 17.6349C309.289 17.6677 309.336 17.6677 309.355 17.6349L309.83 16.7454C309.994 16.4364 310.239 16.1836 310.539 16.015L311.404 15.5281C311.437 15.5094 311.437 15.4626 311.404 15.4439L310.539 14.957C310.239 14.7884 309.994 14.5356 309.83 14.2266L309.355 13.3371C309.336 13.3043 309.289 13.3043 309.27 13.3371Z" fill="white"/>
<path d="M315.427 25.4302L315.192 25.8703C315.112 26.0248 314.99 26.1465 314.84 26.2308L314.412 26.4695C314.412 26.4695 314.398 26.5023 314.412 26.5117L314.84 26.7504C314.99 26.8347 315.112 26.9611 315.192 27.1109L315.427 27.551C315.427 27.551 315.46 27.5698 315.47 27.551L315.705 27.1109C315.785 26.9564 315.907 26.8347 316.057 26.7504L316.485 26.5117C316.485 26.5117 316.499 26.4789 316.485 26.4695L316.057 26.2308C315.907 26.1465 315.785 26.0201 315.705 25.8703L315.47 25.4302C315.47 25.4302 315.437 25.4115 315.427 25.4302Z" fill="white"/>
</g>
<rect width="343" height="120" fill="url(#paint2_linear_296_60728)"/>
<path d="M33.5042 31.105V28.929H35.8842V25.614H38.8762V34.403H35.8842V31.105H33.5042ZM29.5602 32.057C29.4355 32.2383 29.2542 32.431 29.0162 32.635C28.7782 32.839 28.5402 33.0147 28.3022 33.162C27.3615 33.7627 26.2792 34.2897 25.0552 34.743V31.819C25.8372 31.5357 26.4265 31.258 26.8232 30.986C27.2652 30.7367 27.5769 30.459 27.7582 30.153C27.9395 29.847 28.0302 29.4503 28.0302 28.963V28.368H25.1232V25.92H33.9972V28.368H31.0562V28.963C31.0562 29.4617 31.1355 29.864 31.2942 30.17C31.4642 30.4647 31.7532 30.7367 32.1612 30.986C32.3652 31.122 32.6089 31.2523 32.8922 31.377C33.1869 31.4903 33.5779 31.6377 34.0652 31.819V34.607C33.0792 34.2897 32.0762 33.8477 31.0562 33.281C30.7729 33.1337 30.4839 32.941 30.1892 32.703C29.8945 32.4537 29.6849 32.2383 29.5602 32.057ZM32.5182 34.743C34.7169 34.743 36.3489 35.0377 37.4142 35.627C38.4795 36.205 39.0122 37.0493 39.0122 38.16C39.0122 39.2707 38.4795 40.1037 37.4142 40.659C36.3602 41.2257 34.7282 41.509 32.5182 41.509C30.3195 41.509 28.6875 41.2257 27.6222 40.659C26.5682 40.1037 26.0412 39.2707 26.0412 38.16C26.0412 37.0493 26.5682 36.205 27.6222 35.627C28.6875 35.0377 30.3195 34.743 32.5182 34.743ZM32.5182 39.095C33.7195 39.095 34.5752 39.0157 35.0852 38.857C35.5952 38.7097 35.8502 38.4773 35.8502 38.16C35.8502 37.8313 35.5952 37.5877 35.0852 37.429C34.5752 37.259 33.7195 37.174 32.5182 37.174C31.3169 37.174 30.4612 37.259 29.9512 37.429C29.4525 37.5877 29.2032 37.8313 29.2032 38.16C29.2032 38.4773 29.4525 38.7097 29.9512 38.857C30.4612 39.0157 31.3169 39.095 32.5182 39.095ZM54.6935 33.06H51.7015V25.614H54.6935V33.06ZM49.8995 32.516L41.2975 32.805V25.767H49.8995V32.516ZM44.2555 28.147V30.323H46.9415V28.147H44.2555ZM54.8975 41.254H42.4025V36.494H51.7015V35.814H42.4025V33.774H54.6935V38.415H45.3945V39.112H54.8975V41.254ZM65.5208 31.887C64.9768 32.1703 64.2401 32.4763 63.3108 32.805C62.3814 33.1223 61.6108 33.3433 60.9988 33.468L60.9818 30.731C61.5371 30.595 62.1774 30.3853 62.9028 30.102C63.6394 29.8187 64.2514 29.541 64.7388 29.269C65.2148 28.997 65.5434 28.6683 65.7248 28.283C65.9061 27.8977 65.9968 27.399 65.9968 26.787V25.733H69.1248V26.787C69.1248 27.399 69.2098 27.8977 69.3798 28.283C69.5611 28.657 69.8954 28.9857 70.3828 29.269C70.8588 29.541 71.4594 29.8187 72.1848 30.102C72.9214 30.3853 73.5731 30.595 74.1398 30.731L74.1228 33.451C73.5221 33.3377 72.7571 33.1223 71.8278 32.805C70.8984 32.4877 70.1561 32.1817 69.6008 31.887C68.5354 31.309 67.8554 30.7367 67.5608 30.17C67.2661 30.7367 66.5861 31.309 65.5208 31.887ZM60.1488 34.522H74.9728V37.106H69.0568V41.118H66.0648V37.106H60.1488V34.522ZM87.0841 33.094H84.9251V34.267L76.4931 34.556V25.971H84.9251V27.059H87.0841V25.614H90.0761V36.732H87.0841V33.094ZM79.4171 31.955H82.0011V28.47H79.4171V31.955ZM87.0841 30.765V29.388H84.9251V30.765H87.0841ZM80.5051 35.678V38.687H90.3311V41.135H77.5131V35.678H80.5051ZM106.207 25.733H109.097V32.244H96.7894V25.733H99.7134V26.736H106.207V25.733ZM99.7134 29.082V29.915H106.207V29.082H99.7134ZM95.5314 35.593V33.043H110.355V35.593H104.728V37.667H101.736V35.593H95.5314ZM96.7724 36.579H99.9344V38.738H109.301V41.186H96.7724V36.579ZM125.459 34.216H122.467V30.153H119.747V27.739H122.467V25.614H125.459V34.216ZM116.245 31.122C115.961 31.6433 115.485 32.142 114.817 32.618C113.865 33.3093 112.805 33.9157 111.638 34.437V31.275C111.955 31.1503 112.284 30.9973 112.624 30.816C112.964 30.6233 113.241 30.4363 113.457 30.255C113.887 29.9263 114.21 29.5353 114.426 29.082C114.641 28.6287 114.749 28.0507 114.749 27.348V25.733H117.741V27.348C117.741 27.9033 117.826 28.419 117.996 28.895C118.166 29.371 118.443 29.745 118.829 30.017C119.316 30.425 119.973 30.7763 120.801 31.071V34.063C120.257 33.8703 119.679 33.6153 119.067 33.298C118.466 32.9807 117.973 32.6803 117.588 32.397C117.372 32.2497 117.134 32.0627 116.874 31.836C116.624 31.598 116.415 31.36 116.245 31.122ZM112.692 37.616V35.134H125.697L125.442 41.339H122.518V37.616H112.692Z" fill="#118EA4"/>
<path d="M128.934 41.798H126.758L127.387 37.565H130.413L128.934 41.798ZM146.959 41.118V25.614H149.951V41.118H146.959ZM142.522 31.088C142.522 32.3233 142.59 33.2923 142.726 33.995C142.873 34.6863 143.156 35.236 143.576 35.644C143.882 35.9273 144.244 36.205 144.664 36.477C145.083 36.749 145.451 36.9417 145.769 37.055V40.081C145.202 39.8543 144.596 39.5597 143.95 39.197C143.315 38.8343 142.833 38.517 142.505 38.245C142.437 38.177 142.284 38.041 142.046 37.837C141.808 37.6217 141.598 37.412 141.417 37.208C141.247 36.9927 141.111 36.7943 141.009 36.613C140.873 36.8963 140.674 37.1853 140.414 37.48C140.153 37.7633 139.875 38.0127 139.581 38.228C139.207 38.5453 138.702 38.8967 138.068 39.282C137.433 39.6673 136.827 39.9903 136.249 40.251V37.072C136.566 36.936 136.9 36.7547 137.252 36.528C137.603 36.3013 137.909 36.0747 138.17 35.848C138.668 35.4173 139.014 34.8337 139.207 34.097C139.411 33.3603 139.513 32.3573 139.513 31.088V28.861H136.283V26.311H145.735V28.861H142.522V31.088ZM165.071 30.986H162.249V28.147H152.865V25.614H165.241L165.071 30.986ZM166.482 34.369H151.658V31.921H166.482V34.369ZM165.275 41.305H152.814V35.372H165.275V41.305ZM155.738 37.565V39.027H162.351V37.565H155.738ZM183.293 31.343V25.597H186.149V41.118H183.293V33.893H181.984V41.05H179.162V25.631H181.984V31.343H183.293ZM171.206 26.209H174.079V37.242H178.278V39.605L171.206 39.877V26.209ZM196.509 32.244C196.215 32.6633 195.665 33.094 194.86 33.536C194.441 33.7627 193.931 33.995 193.33 34.233C192.73 34.4597 192.174 34.641 191.664 34.777V32.142C192.367 31.9153 193.07 31.615 193.772 31.241C194.18 31.003 194.475 30.7537 194.656 30.493C194.849 30.221 194.945 29.8867 194.945 29.49V29.099H191.732V26.634H194.945V25.376H197.903V26.634H201.133V29.099H197.903V29.49C197.903 29.8867 198.017 30.221 198.243 30.493C198.47 30.765 198.872 31.037 199.45 31.309C199.983 31.5583 200.567 31.7623 201.201 31.921V34.539C200.125 34.2897 199.127 33.9497 198.209 33.519C197.813 33.315 197.456 33.0997 197.138 32.873C196.832 32.635 196.623 32.4253 196.509 32.244ZM202.238 34.471V25.614H205.23V34.471H202.238ZM205.23 41.203H192.922V35.304H205.23V41.203ZM202.238 37.667H195.914V38.84H202.238V37.667ZM219.008 31.343V25.597H221.864V41.118H219.008V33.893H217.699V41.05H214.877V25.631H217.699V31.343H219.008ZM213.517 28.674H209.845V36.953H213.908V39.316L207.023 39.605V26.124H213.517V28.674ZM235.327 41.118V25.597H238.183V41.118H235.327ZM231.553 31.717V25.631H234.392V41.05H231.553V34.437H230.329C230.216 36.4543 229.83 37.9503 229.173 38.925C228.516 39.8997 227.654 40.387 226.589 40.387C225.399 40.387 224.47 39.792 223.801 38.602C223.144 37.4233 222.815 35.6043 222.815 33.145C222.815 30.6743 223.144 28.844 223.801 27.654C224.47 26.4527 225.399 25.852 226.589 25.852C227.643 25.852 228.493 26.3337 229.139 27.297C229.796 28.2603 230.187 29.7337 230.312 31.717H231.553ZM226.589 37.82C227.269 37.82 227.609 36.256 227.609 33.128C227.609 29.9887 227.269 28.419 226.589 28.419C226.283 28.419 226.039 28.7703 225.858 29.473C225.688 30.1757 225.603 31.394 225.603 33.128C225.603 34.862 225.688 36.0803 225.858 36.783C226.039 37.4743 226.283 37.82 226.589 37.82ZM250.52 30.102V25.614H253.512V41.118H250.52V32.754H247.613V30.102H250.52ZM245.879 31.054C245.879 32.2893 245.959 33.2357 246.117 33.893C246.276 34.5503 246.565 35.1057 246.984 35.559C247.483 36.0577 248.186 36.545 249.092 37.021V40.132C248.684 39.928 248.225 39.6617 247.715 39.333C247.217 39.0043 246.769 38.704 246.372 38.432L245.93 38.126C245.647 37.9107 245.352 37.6443 245.046 37.327C244.752 37.0097 244.531 36.7093 244.383 36.426C244.123 36.9247 243.647 37.4857 242.955 38.109C242.604 38.4377 242.122 38.789 241.51 39.163C240.91 39.537 240.286 39.8883 239.64 40.217V37.038C239.946 36.8907 240.269 36.698 240.609 36.46C240.961 36.222 241.267 35.984 241.527 35.746C242.037 35.3153 242.389 34.76 242.581 34.08C242.774 33.3887 242.87 32.38 242.87 31.054V26.192H245.879V31.054Z" fill="#182E4B"/>
<path d="M34.7959 56.6201V59.8574H36.7002V61.0293H34.7959V64.3252H33.4043V56.6201H34.7959ZM34.7959 65.0283V69.7598H33.4043V66.1416H26.124V65.0283H34.7959ZM30.9287 57.543V58.6709H26.4463V62.2891C29.0024 62.2817 30.4453 62.2012 32.0859 61.8643L32.2471 62.9775C30.4746 63.3438 28.9219 63.417 26.1094 63.417H25.0693V57.543H30.9287ZM48.2396 56.6201V69.7744H46.8627V62.6113H44.2553V61.4688H46.8627V56.6201H48.2396ZM44.0355 57.792V58.9199H39.3041V61.4688H43.4789V62.582H39.3041V65.5117C41.5014 65.5044 43.0248 65.4531 44.768 65.1455L44.9145 66.2734C43.0102 66.5811 41.3549 66.6543 38.9232 66.6689H37.8979V57.792H44.0355ZM62.1229 66.9326V68.1045H50.1111V66.9326H62.1229ZM61.0242 57.8799V59.0225H59.0174V63.4023H60.9803V64.5156H51.1658V63.4023H53.1287V59.0225H51.1365V57.8799H61.0242ZM54.5057 63.4023H57.6551V59.0225H54.5057V63.4023ZM68.1545 57.6602V61.5566H64.8732V63.4023C66.4772 63.3877 67.6857 63.3145 69.1213 63.0508L69.2678 64.1641C67.6418 64.4717 66.2941 64.5156 64.3752 64.5303H63.5109V60.5166H66.8068V58.7588H63.4816V57.6602H68.1545ZM74.1164 56.6348V66.4932H72.798V56.6348H74.1164ZM71.4943 56.8691V66.1562H70.1613V61.3076H68.6672V60.1504H70.1613V56.8691H71.4943ZM74.4973 68.3389V69.4668H65.4152V65.4971H66.7922V68.3389H74.4973ZM86.3736 62.8457V63.9883H77.233V57.792H86.2564V58.9346H78.61V62.8457H86.3736ZM87.7506 66.8594V68.0166H75.7389V66.8594H87.7506ZM103.007 56.6348V66.2441H101.616V61.3076H99.1107V60.1797H101.616V56.6348H103.007ZM103.359 68.3389V69.4668H94.4818V65.3799H95.8734V68.3389H103.359ZM96.767 59.2861C96.767 60.9268 97.9535 62.5674 99.9311 63.2266L99.2133 64.3398C97.7411 63.8198 96.6498 62.7651 96.0785 61.4688C95.5072 62.9116 94.3573 64.0762 92.7973 64.6328L92.0795 63.5049C94.101 62.8164 95.3461 61.0879 95.3461 59.2861V58.7734H92.5043V57.6309H99.5795V58.7734H96.767V59.2861ZM116.846 63.0215V64.1494H104.879V63.0215H107.75V61.249C106.739 60.8389 106.168 60.1797 106.168 59.3154C106.168 57.7627 107.97 56.8545 110.855 56.8545C113.726 56.8545 115.543 57.7627 115.543 59.3154C115.543 60.1797 114.964 60.8462 113.946 61.249V63.0215H116.846ZM110.855 65.043C113.682 65.043 115.382 65.8779 115.382 67.3721C115.382 68.8955 113.682 69.7158 110.855 69.7158C107.999 69.7158 106.3 68.8955 106.3 67.3721C106.3 65.8779 107.999 65.043 110.855 65.043ZM110.855 66.1123C108.848 66.1123 107.706 66.5664 107.706 67.3721C107.706 68.1924 108.848 68.6611 110.855 68.6465C112.833 68.6611 113.99 68.1924 113.99 67.3721C113.99 66.5664 112.833 66.1123 110.855 66.1123ZM110.855 57.9238C108.819 57.9238 107.589 58.4365 107.603 59.3154C107.589 60.1943 108.819 60.6924 110.855 60.6924C112.891 60.6924 114.107 60.1943 114.107 59.3154C114.107 58.4365 112.891 57.9238 110.855 57.9238ZM109.156 63.0215H112.569V61.6152C112.056 61.7031 111.478 61.7471 110.855 61.7471C110.24 61.7471 109.669 61.7031 109.156 61.6299V63.0215ZM127.928 57.7773C127.914 59.5205 130.052 61.1611 132.63 61.498L132.088 62.6406C129.942 62.2964 128.053 61.1831 127.211 59.6377C126.346 61.1904 124.464 62.2964 122.333 62.6406L121.776 61.498C124.354 61.1611 126.463 59.5352 126.478 57.7773V57.0596H127.928V57.7773ZM133.172 63.9297V65.0723H127.84V69.7451H126.478V65.0723H121.205V63.9297H133.172ZM140.713 57.7334V58.8467H143.569V56.6348H144.961V66.2002H143.569V62.8018H140.713V63.9443H134.619V57.7334H140.713ZM135.996 58.8613V62.8457H139.351V58.8613H135.996ZM145.254 68.3389V69.4668H136.392V65.3213H137.798V68.3389H145.254ZM140.713 61.6592H143.569V59.9893H140.713V61.6592ZM157.746 56.6201V69.7451H156.339V56.6201H157.746ZM153.834 58.0264C153.834 61.8643 152.194 65.2041 147.697 67.3574L146.964 66.2295C150.458 64.5669 152.157 62.2012 152.428 59.1396H147.594V58.0264H153.834ZM170.559 56.6201V69.7451H169.153V56.6201H170.559ZM166.648 58.0264C166.648 61.8643 165.008 65.2041 160.511 67.3574L159.778 66.2295C163.272 64.5669 164.971 62.2012 165.242 59.1396H160.408V58.0264H166.648ZM184.472 67.0059V68.1777H172.46V67.0059H177.748V64.7061H173.925V60.5312H181.63V58.6855H173.896V57.543H183.007V61.6445H175.302V63.5635H183.315V64.7061H179.125V67.0059H184.472ZM34.8105 80.6201V83.9453H36.7002V85.0879H34.8105V88.3691H33.4043V80.6201H34.8105ZM30.5625 88.6182C33.2432 88.6182 34.9131 89.5557 34.9131 91.167C34.9131 92.7783 33.2432 93.7305 30.5625 93.7158C27.8525 93.7305 26.1533 92.7783 26.1533 91.167C26.1533 89.5557 27.8525 88.6182 30.5625 88.6182ZM30.5625 89.7461C28.6582 89.7314 27.5156 90.2588 27.5303 91.167C27.5156 92.0752 28.6582 92.6025 30.5625 92.6025C32.4229 92.6025 33.5654 92.0752 33.5801 91.167C33.5654 90.2588 32.4229 89.7314 30.5625 89.7461ZM30.8994 81.5869V82.7148H26.417V86.2891C29.0024 86.2817 30.46 86.2012 32.1152 85.8643L32.2471 86.9922C30.4893 87.3584 28.9219 87.417 26.0801 87.417H25.04V81.5869H30.8994ZM48.1811 80.6348V90.2441H46.7895V80.6348H48.1811ZM48.5766 92.3389V93.4668H39.5971V89.3359H41.0033V92.3389H48.5766ZM42.0727 82.6562C42.058 84.5752 43.2885 86.333 45.31 87.0361L44.5922 88.1494C43.0761 87.5854 41.9555 86.4722 41.3695 85.0439C40.7909 86.5674 39.6557 87.7905 38.1176 88.3838L37.3705 87.2852C39.4359 86.5234 40.6518 84.6338 40.6518 82.6562V81.3525H42.0727V82.6562ZM54.3885 81.5576C56.4686 81.543 57.948 82.832 57.9627 84.6777C57.948 86.5234 56.4686 87.8125 54.3885 87.8125C52.323 87.8125 50.7996 86.5234 50.8143 84.6777C50.7996 82.832 52.323 81.543 54.3885 81.5576ZM54.3885 82.7588C53.1141 82.7588 52.1766 83.5205 52.1912 84.6777C52.1766 85.835 53.1141 86.5967 54.3885 86.5967C55.6629 86.5967 56.6004 85.835 56.6004 84.6777C56.6004 83.5205 55.6629 82.7588 54.3885 82.7588ZM60.9656 80.6201V93.7744H59.574V80.6201H60.9656ZM50.1844 89.79C52.5721 89.79 55.8826 89.7607 58.7537 89.3506L58.8563 90.3613C55.8826 90.9326 52.7039 90.9473 50.3602 90.9473L50.1844 89.79ZM73.1607 81.7773C73.1461 83.5205 75.2848 85.1611 77.8629 85.498L77.3209 86.6406C75.1749 86.2964 73.2853 85.1831 72.443 83.6377C71.5787 85.1904 69.6964 86.2964 67.565 86.6406L67.0084 85.498C69.5865 85.1611 71.6959 83.5352 71.7105 81.7773V81.0596H73.1607V81.7773ZM78.4049 87.9297V89.0723H73.0729V93.7451H71.7105V89.0723H66.4371V87.9297H78.4049ZM85.9453 81.7334V82.8467H88.8018V80.6348H90.1934V90.2002H88.8018V86.8018H85.9453V87.9443H79.8516V81.7334H85.9453ZM81.2285 82.8613V86.8457H84.583V82.8613H81.2285ZM90.4863 92.3389V93.4668H81.624V89.3213H83.0303V92.3389H90.4863ZM85.9453 85.6592H88.8018V83.9893H85.9453V85.6592ZM106.856 80.6201V93.7451H105.509V80.6201H106.856ZM104.146 80.8984V93.0859H102.828V86.7139H100.133V85.5566H102.828V80.8984H104.146ZM101.026 82.1875V83.3301H97.408V89.4971C99.1292 89.4824 100.286 89.4092 101.641 89.1162L101.759 90.2881C100.25 90.5957 98.9607 90.6543 96.91 90.6543H96.0457V82.1875H101.026ZM119.26 80.6201V93.7744H117.868V80.6201H119.26ZM112.243 81.6016C114.192 81.6016 115.627 83.3887 115.627 86.2012C115.627 89.0283 114.192 90.8154 112.243 90.8154C110.266 90.8154 108.845 89.0283 108.845 86.2012C108.845 83.3887 110.266 81.6016 112.243 81.6016ZM112.243 82.8467C111.028 82.8467 110.193 84.1357 110.193 86.2012C110.193 88.2812 111.028 89.5703 112.243 89.5703C113.445 89.5703 114.279 88.2812 114.279 86.2012C114.279 84.1357 113.445 82.8467 112.243 82.8467ZM132.147 80.6201V93.7744H130.77V86.6113H128.163V85.4688H130.77V80.6201H132.147ZM127.943 81.792V82.9199H123.212V85.4688H127.386V86.582H123.212V89.5117C125.409 89.5044 126.932 89.4531 128.675 89.1455L128.822 90.2734C126.918 90.5811 125.262 90.6543 122.831 90.6689H121.805V81.792H127.943ZM146.016 86.6406V87.71H134.004V86.6406H146.016ZM144.536 88.6328V91.5186H136.831V92.6025H144.946V93.584H135.439V90.5957H143.159V89.6289H135.425V88.6328H144.536ZM144.507 80.957V83.7988H136.919V84.7949H144.727V85.7764H135.542V82.876H143.115V81.9385H135.513V80.957H144.507ZM161.287 80.6348V90.3027H159.895V85.7471H157.171V84.5898H159.895V80.6348H161.287ZM157.259 81.6162C157.244 85.0439 154.886 87.6221 151.121 88.8379L150.535 87.7246C153.457 86.7798 155.442 84.9927 155.735 82.7734H151.209V81.6162H157.259ZM161.624 92.3389V93.4668H152.835V89.3066H154.241V92.3389H161.624ZM173.471 80.6201V83.9307H175.375V85.0586H173.471V88.4131H172.079V80.6201H173.471ZM169.867 81.5576C169.867 84.9561 167.568 87.4023 163.715 88.5156L163.144 87.3877C166.213 86.5161 168.11 84.8096 168.359 82.6855H163.73V81.5576H169.867ZM169.281 88.5596C171.933 88.5596 173.617 89.541 173.617 91.1377C173.617 92.749 171.933 93.7305 169.281 93.7305C166.645 93.7305 164.916 92.749 164.931 91.1377C164.916 89.541 166.645 88.5596 169.281 88.5596ZM169.281 89.6582C167.45 89.6582 166.293 90.2148 166.308 91.1377C166.293 92.0605 167.45 92.6318 169.281 92.6318C171.098 92.6318 172.255 92.0605 172.255 91.1377C172.255 90.2148 171.098 89.6582 169.281 89.6582ZM186.794 81.6162V82.3486C186.779 83.2275 186.779 84.5312 186.457 86.2305L185.08 86.0986C185.366 84.6411 185.41 83.5864 185.432 82.7588H180.173V81.6162H186.794ZM183.439 84.5605V87.2705C184.846 87.2266 186.296 87.124 187.614 86.9336L187.702 87.9443C184.963 88.4277 181.828 88.4717 179.514 88.4863L179.382 87.3584C180.188 87.3511 181.103 87.3438 182.062 87.3145V84.5605H183.439ZM189.87 80.6201V84.7949H191.672V85.9668H189.87V90.4785H188.449V80.6201H189.87ZM190.295 92.3389V93.4668H181.374V89.585H182.766V92.3389H190.295ZM203.197 80.6201V93.7744H201.805V80.6201H203.197ZM199.183 81.8066V86.5967H194.466V89.4678C196.59 89.4604 198.451 89.3652 200.648 88.999L200.78 90.1416C198.451 90.5371 196.473 90.625 194.159 90.625H193.045V85.4834H197.762V82.9346H193.031V81.8066H199.183ZM217.124 91.0059V92.1777H205.112V91.0059H210.4V88.7061H206.577V84.5312H214.282V82.6855H206.548V81.543H215.659V85.6445H207.954V87.5635H215.967V88.7061H211.777V91.0059H217.124ZM232.38 80.6348V90.3027H230.989V86.8896H227.737C227.114 87.6294 226.162 88.0762 225.071 88.0762C223.093 88.0762 221.629 86.6992 221.629 84.7656C221.629 82.8174 223.093 81.4404 225.071 81.4258C226.155 81.4331 227.1 81.8799 227.722 82.6123H230.989V80.6348H232.38ZM232.732 92.3389V93.4668H223.855V89.292H225.247V92.3389H232.732ZM225.071 82.6709C223.84 82.6709 222.962 83.5205 222.962 84.7656C222.962 86.0107 223.84 86.8457 225.071 86.8457C226.257 86.8457 227.151 86.0107 227.151 84.7656C227.151 83.5205 226.257 82.6709 225.071 82.6709ZM228.337 83.7402C228.425 84.0552 228.484 84.3994 228.484 84.7656C228.484 85.1172 228.433 85.4541 228.337 85.7617H230.989V83.7402H228.337ZM245.194 80.6201V87.2998H243.803V86.04H240.478V84.9561H243.803V83.5352H240.639C239.826 85.5713 237.848 86.9116 234.94 87.5928L234.457 86.4502C237.606 85.7544 239.313 84.2969 239.54 82.3633H235.146V81.2207H241.063C241.063 81.6455 241.027 82.0483 240.961 82.4365H243.803V80.6201H245.194ZM245.194 87.8564V91.1816H238.017V92.5H245.59V93.6133H236.64V90.127H243.803V88.9551H236.61V87.8564H245.194ZM257.29 80.6201V85.9375H259.4V87.0947H257.29V93.7451H255.913V80.6201H257.29ZM254.771 82.6709V83.8135H246.993V82.6709H250.23V80.7959H251.621V82.6709H254.771ZM250.933 84.7803C252.808 84.7803 254.185 86.04 254.2 87.8271C254.185 89.6289 252.808 90.874 250.933 90.8887C249.043 90.874 247.666 89.6289 247.666 87.8271C247.666 86.04 249.043 84.7803 250.933 84.7803ZM250.933 85.9229C249.82 85.9229 248.985 86.6992 248.999 87.8271C248.985 88.9697 249.82 89.7314 250.933 89.7168C252.046 89.7314 252.867 88.9697 252.867 87.8271C252.867 86.6992 252.046 85.9229 250.933 85.9229ZM263.879 84.209C263.879 86.3037 264.758 88.5449 266.515 89.6143L265.739 90.6836C264.509 89.9438 263.674 88.6328 263.234 87.1094C262.743 88.7793 261.843 90.2002 260.568 90.9766L259.704 89.9365C261.564 88.8232 262.531 86.5088 262.531 84.2676V81.8213H263.879V84.209ZM271.174 80.6201V93.7451H269.841V80.6201H271.174ZM268.449 80.8691V93.1006H267.131V86.3916H265.095V85.2344H267.131V80.8691H268.449ZM284.705 90.9473V92.1045H272.694V90.9473H275.565V87.5195C274.488 86.9263 273.836 85.9814 273.836 84.8096C273.836 82.7441 275.858 81.3818 278.67 81.3818C281.497 81.3818 283.519 82.7441 283.519 84.8096C283.519 85.9668 282.889 86.897 281.834 87.4902V90.9473H284.705ZM278.67 82.4951C276.605 82.4951 275.184 83.3887 275.184 84.8096C275.184 86.2158 276.605 87.1387 278.67 87.1387C280.721 87.1387 282.171 86.2158 282.171 84.8096C282.171 83.3887 280.721 82.4951 278.67 82.4951ZM276.942 90.9473H280.428V88.0176C279.893 88.1567 279.3 88.2227 278.67 88.2227C278.055 88.2227 277.469 88.1567 276.942 88.0322V90.9473ZM287.002 92.6025C286.43 92.6025 285.947 92.1338 285.962 91.5625C285.947 90.9912 286.43 90.5225 287.002 90.5225C287.558 90.5225 288.042 90.9912 288.042 91.5625C288.042 92.1338 287.558 92.6025 287.002 92.6025Z" fill="#4F6B91"/>
</g>
<defs>
<linearGradient id="paint0_linear_296_60728" x1="171.5" y1="0" x2="171.5" y2="120" gradientUnits="userSpaceOnUse">
<stop stop-color="#BDD3E8"/>
<stop offset="1" stop-color="#DFEAF4"/>
</linearGradient>
<linearGradient id="paint1_linear_296_60728" x1="0" y1="0" x2="343" y2="120" gradientUnits="userSpaceOnUse">
<stop stop-color="#BDD3E8"/>
<stop offset="1" stop-color="#DFEAF4"/>
</linearGradient>
<linearGradient id="paint2_linear_296_60728" x1="0" y1="60" x2="343" y2="60" gradientUnits="userSpaceOnUse">
<stop stop-color="white" stop-opacity="0"/>
<stop offset="1" stop-color="white" stop-opacity="0.8"/>
</linearGradient>
<clipPath id="clip0_296_60728">
<rect width="215" height="171" fill="white" transform="translate(227 -37)"/>
</clipPath>
</defs>
</svg>
