<svg width="351" height="309" viewBox="0 0 351 309" fill="none" xmlns="http://www.w3.org/2000/svg">
<rect width="351" height="309" rx="16" fill="#4F6B91" fill-opacity="0.24"/>
<path d="M34.957 32.9512C34.957 35.25 37.2988 37.8066 41.7891 38.3652L40.7148 40.5781C37.2988 40.084 34.7959 38.5049 33.5176 36.3887C32.2285 38.5049 29.7471 40.084 26.3633 40.5781L25.2676 38.3652C29.7148 37.8066 32.0781 35.25 32.0781 32.9512V32.0059H34.957V32.9512ZM42.4121 42.0605V44.2949H34.8066V50.9766H32.0996V44.2949H24.5801V42.0605H42.4121ZM53.4714 33.0156V34.498H57.1238V31.4473H59.8523V45.6699H57.1238V40.8789H53.4714V42.5332H44.1902V33.0156H53.4714ZM46.9187 35.1855V40.4062H50.7859V35.1855H46.9187ZM60.2605 48.4414V50.6328H46.8327V44.3164H49.6042V48.4414H60.2605ZM53.4714 38.709H57.1238V36.7109H53.4714V38.709ZM83.4533 31.4258V50.9766H80.6818V31.4258H83.4533ZM77.588 33.4668C77.588 39.3965 75.5041 44.3164 68.5216 47.625L67.0822 45.4336C72.131 43.0488 74.3546 39.9551 74.7951 35.6152H68.1349V33.4668H77.588ZM103.686 41.9102V44.1016H85.7899V41.9102H93.3739V40.4922H88.0243V35.1211H98.7665V33.918H87.9813V31.791H101.516V37.0977H90.7528V38.3867H101.882V40.4922H96.1024V41.9102H103.686ZM101.624 45.2188V50.8906H98.8524V47.3672H87.788V45.2188H101.624ZM109.584 36.1094V33.4453H122.325V36.1094H117.555V49H114.354V36.1094H109.584ZM127.583 49.2363C124.06 49.2363 121.868 46.8086 121.868 43.1992C121.868 39.5898 124.06 37.1836 127.583 37.1836C131.106 37.1836 133.319 39.5898 133.319 43.1992C133.319 46.8086 131.106 49.2363 127.583 49.2363ZM127.605 46.7656C129.237 46.7656 130.075 45.2402 130.075 43.1992C130.075 41.1367 129.237 39.6113 127.605 39.6113C125.95 39.6113 125.091 41.1367 125.091 43.1992C125.091 45.2402 125.95 46.7656 127.605 46.7656ZM135.097 53.3828V37.334H138.234V39.2891H138.363C138.793 38.3438 139.738 37.1836 141.693 37.1836C144.271 37.1836 146.42 39.1816 146.42 43.1777C146.42 47.0664 144.357 49.1934 141.693 49.1934C139.781 49.1934 138.814 48.0977 138.363 47.1309H138.277V53.3828H135.097ZM138.213 43.1562C138.213 45.2617 139.115 46.6582 140.683 46.6582C142.316 46.6582 143.176 45.2188 143.176 43.1562C143.176 41.1152 142.316 39.7188 140.683 39.7188C139.094 39.7188 138.213 41.0508 138.213 43.1562ZM153.999 49.2148C150.582 49.2148 148.133 47.3242 148.069 44.6172H151.334C151.399 45.7773 152.516 46.5508 154.02 46.5508C155.567 46.5508 156.684 45.6699 156.663 44.4238C156.684 43.1562 155.545 42.2539 153.719 42.2539H152.28V39.8691H153.719C155.245 39.8691 156.319 39.0312 156.319 37.8066C156.319 36.625 155.416 35.8086 154.041 35.8086C152.666 35.8086 151.528 36.582 151.485 37.7637H148.391C148.434 35.0781 150.862 33.2305 154.041 33.2305C157.286 33.2305 159.456 35.1426 159.434 37.6133C159.456 39.3535 158.231 40.5996 156.491 40.9004V41.0293C158.768 41.3086 160.036 42.7051 160.014 44.6387C160.036 47.3027 157.5 49.2148 153.999 49.2148Z" fill="#AFBFD4"/>
<path d="M34.6133 68.2949C34.5918 74.3105 32.9805 79.3594 25.9336 83.0117L24.4297 80.9492C27.5234 79.3164 29.4463 77.501 30.5742 75.3418L24.9023 75.8574L24.5371 73.5371L31.4336 73.1289C31.6592 72.3018 31.7988 71.4209 31.8848 70.4863H25.5898V68.2949H34.6133ZM41.0586 66.4258V85.9766H38.3301V76.1797H34.5703V73.9453H38.3301V66.4258H41.0586ZM59.8093 66.4258V85.9766H57.0378V66.4258H59.8093ZM54.9323 68.2305V70.4219H53.1921V78.9082C54.0515 78.8545 54.9001 78.7686 55.7273 78.6719L55.8562 80.7129C51.6882 81.4004 47.1765 81.4648 43.5886 81.4863L43.3308 79.252C44.0398 79.252 44.7917 79.2412 45.5866 79.2305V70.4219H43.8679V68.2305H54.9323ZM48.2507 79.166C49.0027 79.1553 49.7654 79.123 50.528 79.0801V70.4219H48.2507V79.166ZM66.2924 82.4102L64.4448 88.5332H62.1674L63.2416 82.4102H66.2924ZM90.2802 75.9434V78.1348H82.868V81.5293H80.0966V78.1348H72.3837V75.9434H90.2802ZM88.3036 83.4199V85.6328H74.5106V79.7891H77.2821V83.4199H88.3036ZM81.3212 66.791C85.5536 66.8125 88.368 68.3809 88.3895 70.8516C88.368 73.3438 85.5536 74.8906 81.3212 74.8906C77.0673 74.8906 74.2313 73.3438 74.2313 70.8516C74.2313 68.3809 77.0673 66.8125 81.3212 66.791ZM81.3212 68.9609C78.786 68.9609 77.1747 69.6055 77.1962 70.8516C77.1747 72.0547 78.786 72.6992 81.3212 72.6992C83.8348 72.6992 85.4462 72.0547 85.4462 70.8516C85.4462 69.6055 83.8348 68.9609 81.3212 68.9609ZM109.074 75.6641V77.8125H91.1988V75.6641H98.8043V73.9883H93.3688V67.2852H106.925V69.4121H96.0973V71.8398H107.033V73.9883H101.49V75.6641H109.074ZM100.093 78.8008C104.326 78.8008 106.882 80.0898 106.904 82.4102C106.882 84.6875 104.326 85.998 100.093 85.998C95.818 85.998 93.2398 84.6875 93.2398 82.4102C93.2398 80.0898 95.818 78.8008 100.093 78.8008ZM100.093 80.8848C97.3863 80.8848 96.0113 81.4004 96.0328 82.4102C96.0113 83.4414 97.3863 83.9141 100.093 83.9141C102.736 83.9141 104.132 83.4414 104.154 82.4102C104.132 81.4004 102.736 80.8848 100.093 80.8848ZM114.118 82.4102L112.27 88.5332H109.993L111.067 82.4102H114.118ZM136.043 66.3613V73.7305H138.406V76.0293H136.043V85.9766H133.314V66.3613H136.043ZM125.709 68.3809V70.5723H123.367V78.8867C124.162 78.8545 124.935 78.7686 125.816 78.6074L126.031 80.8633C124.42 81.1426 123.152 81.1855 121.605 81.1641H120.617V68.3809H125.709ZM132.004 68.3809V70.5723H129.426V78.9082C130.607 78.876 131.402 78.79 132.283 78.5645L132.498 80.8203C131.166 81.1426 130.07 81.1855 127.75 81.1641H126.719V68.3809H132.004ZM156.899 75.5137V77.7051H139.024V75.5137H156.899ZM155.008 71.8398V74.0312H141.194V67.0488H154.793V69.2617H143.922V71.8398H155.008ZM149.358 79.1875C149.358 81.25 151.377 83.248 155.696 83.7637L154.707 85.8691C151.485 85.4287 149.175 84.1826 147.983 82.4102C146.769 84.1826 144.481 85.4287 141.258 85.8691L140.27 83.7637C144.567 83.248 146.565 81.25 146.565 79.1875V78.8223H149.358V79.1875ZM173.329 66.4473V72.4414H175.972V74.6758H173.329V81.0352H170.579V66.4473H173.329ZM169.419 68.4883V70.6582H157.818V68.4883H162.265V66.4043H164.993V68.4883H169.419ZM163.618 71.3457C166.454 71.3457 168.431 72.8711 168.431 75.127C168.431 77.3828 166.454 78.8652 163.618 78.8652C160.761 78.8652 158.763 77.3828 158.763 75.127C158.763 72.8711 160.761 71.3457 163.618 71.3457ZM163.618 73.4297C162.308 73.4512 161.427 74.0527 161.448 75.127C161.427 76.2012 162.308 76.7812 163.618 76.7812C164.929 76.7812 165.831 76.2012 165.831 75.127C165.831 74.0527 164.929 73.4512 163.618 73.4297ZM174.038 83.4414V85.6328H160.654V79.918H163.382V83.4414H174.038ZM197.038 67.1992V74.0742H191.731V75.9434H199.294V78.1562H181.462V75.9434H188.981V74.0742H183.674V67.1992H197.038ZM186.36 69.3262V71.9258H194.352V69.3262H186.36ZM197.124 79.5957V85.9766H194.395V81.7441H183.438V79.5957H197.124ZM209.171 66.748C213.511 66.748 216.261 68.2305 216.283 70.5938C216.272 71.8828 215.445 72.9141 213.984 73.5801V76.0508H218.087V78.1992H200.255V76.0508H204.273V73.5371C202.855 72.8818 202.038 71.8613 202.038 70.5938C202.038 68.2305 204.853 66.748 209.171 66.748ZM209.171 68.8965C206.443 68.875 204.874 69.4336 204.896 70.5938C204.874 71.7324 206.443 72.3125 209.171 72.3125C211.878 72.3125 213.447 71.7324 213.447 70.5938C213.447 69.4336 211.878 68.875 209.171 68.8965ZM215.917 79.5742V85.9766H213.189V81.7227H202.232V79.5742H215.917ZM207.044 76.0508H211.255V74.3105C210.611 74.3965 209.912 74.4395 209.171 74.4395C208.409 74.4395 207.7 74.3965 207.044 74.3105V76.0508Z" fill="#F2F5FA"/>
<path d="M113.297 129.688V141H111.562V131.406H111.5L108.797 133.172V131.531L111.609 129.688H113.297ZM116.012 141V139.75L119.934 135.797C121.168 134.5 121.793 133.781 121.793 132.797C121.793 131.688 120.887 130.969 119.699 130.969C118.449 130.969 117.637 131.766 117.637 132.969H116.012C115.996 130.906 117.574 129.531 119.731 129.531C121.918 129.531 123.418 130.906 123.434 132.75C123.418 134.016 122.824 135.016 120.699 137.109L118.403 139.438V139.531H123.621V141H116.012ZM136.461 128.328V142.328H134.977V128.328H136.461ZM124.961 138.516C126.11 138.508 127.43 138.5 128.805 138.453V137.062C127.164 136.852 126.102 135.891 126.118 134.516C126.102 132.938 127.477 131.891 129.508 131.891C131.555 131.891 132.961 132.938 132.961 134.516C132.961 135.875 131.899 136.828 130.274 137.047V138.406C131.571 138.352 132.883 138.25 134.118 138.094L134.227 139.203C131.118 139.719 127.727 139.75 125.164 139.75L124.961 138.516ZM133.805 130V131.188H125.258V130H128.805V128.359H130.289V130H133.805ZM129.508 133.047C128.336 133.047 127.508 133.625 127.524 134.516C127.508 135.406 128.336 135.953 129.508 135.953C130.711 135.953 131.539 135.406 131.539 134.516C131.539 133.625 130.711 133.047 129.508 133.047Z" fill="#25C3FB"/>
<g clip-path="url(#clip0_296_62845)">
<path d="M103.5 161C103.5 156.582 107.082 153 111.5 153H135.5C139.918 153 143.5 156.582 143.5 161V245C143.5 249.418 139.918 253 135.5 253H111.5C107.082 253 103.5 249.418 103.5 245V161Z" fill="#25C3FB"/>
</g>
<g clip-path="url(#clip1_296_62845)">
<path d="M121.284 268.096C121.1 268.281 120.935 268.479 120.764 268.674C122.474 269.049 124.158 269.926 125.657 271.18C126.5 269.079 128.153 267.472 130.335 266.73L131.714 266.26C129.135 264.06 124.589 264.79 121.284 268.096Z" fill="#F2F5FA"/>
<path d="M132.565 267.209L130.713 267.84C128.72 268.518 127.238 270.036 126.589 272.01C128.237 273.676 129.361 275.689 129.808 277.753C130.009 277.578 130.213 277.407 130.404 277.217C133.538 274.081 134.357 269.846 132.565 267.209Z" fill="#F2F5FA"/>
<path d="M126.102 282.368C125.35 280.082 123.418 278.426 121.059 277.96C118.319 277.416 116.127 275.435 115.227 272.791L114.758 271.412C112.558 273.992 113.289 278.599 116.594 281.905C118.652 283.962 121.215 284.998 123.481 284.998C124.664 284.998 125.758 284.689 126.663 284.076L126.102 282.368Z" fill="#F2F5FA"/>
<path d="M125.714 272.786C122.58 269.651 118.344 268.77 115.707 270.562L116.337 272.414C117.103 274.664 118.956 276.348 121.287 276.811C124.061 277.36 126.333 279.315 127.216 282.002L127.618 283.226C129.821 280.647 129.021 276.093 125.714 272.786Z" fill="#F2F5FA"/>
</g>
<g clip-path="url(#clip2_296_62845)">
<path d="M168.674 165.156C166.221 165.156 164.502 163.828 164.517 161.984C164.502 160.531 165.549 159.344 166.877 159.141V159.078C165.721 158.812 164.939 157.781 164.939 156.547C164.939 154.812 166.517 153.531 168.674 153.531C170.814 153.531 172.377 154.812 172.392 156.547C172.377 157.781 171.596 158.812 170.455 159.078V159.141C171.767 159.344 172.814 160.531 172.83 161.984C172.814 163.828 171.096 165.156 168.674 165.156ZM168.674 163.734C170.142 163.734 171.08 162.969 171.08 161.859C171.08 160.688 170.064 159.844 168.674 159.844C167.267 159.844 166.236 160.688 166.267 161.859C166.236 162.969 167.174 163.734 168.674 163.734ZM168.674 158.484C169.861 158.484 170.705 157.766 170.705 156.703C170.705 155.656 169.877 154.938 168.674 154.938C167.424 154.938 166.611 155.641 166.611 156.703C166.611 157.766 167.471 158.484 168.674 158.484ZM185.545 152.328V166.328H184.061V152.328H185.545ZM174.045 162.516C175.193 162.508 176.514 162.5 177.889 162.453V161.062C176.248 160.852 175.186 159.891 175.201 158.516C175.186 156.938 176.561 155.891 178.592 155.891C180.639 155.891 182.045 156.938 182.045 158.516C182.045 159.875 180.983 160.828 179.358 161.047V162.406C180.654 162.352 181.967 162.25 183.201 162.094L183.311 163.203C180.201 163.719 176.811 163.75 174.248 163.75L174.045 162.516ZM182.889 154V155.188H174.342V154H177.889V152.359H179.373V154H182.889ZM178.592 157.047C177.42 157.047 176.592 157.625 176.608 158.516C176.592 159.406 177.42 159.953 178.592 159.953C179.795 159.953 180.623 159.406 180.623 158.516C180.623 157.625 179.795 157.047 178.592 157.047Z" fill="#7353FF"/>
<rect x="155.5" y="177" width="40" height="76" rx="8" fill="#7353FF"/>
</g>
<path d="M178.422 265H174.817C174.676 265 174.543 265.076 174.477 265.204L172.856 268.109C172.727 268.341 172.695 268.616 172.77 268.868C172.844 269.124 173.016 269.336 173.247 269.456L174.747 270.243C175.122 270.435 175.569 270.363 175.858 270.063C176.164 269.739 176.947 269.012 177.577 269.132C177.898 269.192 178.176 269.492 178.399 270.023C179.229 271.993 178.641 275.206 178.332 276.576C177.307 275.653 176.218 275.186 175.079 275.186H175.032C173.901 275.198 172.915 275.669 172.155 276.201C170.362 273.699 167.466 274.075 167.337 274.091C167.145 274.119 167 274.287 167 274.487V284.58C167 284.7 167.051 284.812 167.145 284.888C167.235 284.964 167.352 284.996 167.466 284.972C168.621 284.74 169.419 283.781 169.807 283.202C171.228 284.512 172.915 285 174.641 285C179.424 285 184.474 281.272 184.764 281.052C184.858 280.984 184.912 280.88 184.924 280.764C185.633 272.401 181.182 267.042 179.8 265.595C179.432 265.212 178.943 265 178.422 265ZM183.351 279.628C183.469 279.813 183.418 280.06 183.237 280.18C181.824 281.119 178.057 283.382 174.652 283.382C173.143 283.382 171.707 282.939 170.576 281.738C170.426 281.579 170.431 281.326 170.587 281.173C170.743 281.021 170.991 281.025 171.141 281.184C174.408 284.653 180.899 280.78 182.81 279.511C182.991 279.39 183.233 279.442 183.351 279.628Z" fill="#F2F5FA"/>
<g clip-path="url(#clip3_296_62845)">
<path d="M220.689 202.156C218.346 202.156 216.674 200.891 216.611 199.047H218.361C218.424 200.047 219.408 200.672 220.674 200.672C222.033 200.672 223.033 199.922 223.033 198.828C223.033 197.719 222.096 196.906 220.486 196.906H219.517V195.5H220.486C221.767 195.5 222.674 194.781 222.674 193.703C222.674 192.672 221.908 191.969 220.705 191.969C219.564 191.969 218.564 192.594 218.517 193.625H216.861C216.908 191.781 218.611 190.531 220.721 190.531C222.939 190.531 224.346 191.938 224.33 193.609C224.346 194.891 223.549 195.828 222.33 196.125V196.203C223.877 196.422 224.767 197.453 224.767 198.891C224.767 200.781 223.033 202.156 220.689 202.156ZM237.592 189.328V203.328H236.108V189.328H237.592ZM226.092 199.516C227.24 199.508 228.561 199.5 229.936 199.453V198.062C228.295 197.852 227.233 196.891 227.248 195.516C227.233 193.938 228.608 192.891 230.639 192.891C232.686 192.891 234.092 193.938 234.092 195.516C234.092 196.875 233.029 197.828 231.404 198.047V199.406C232.701 199.352 234.014 199.25 235.248 199.094L235.358 200.203C232.248 200.719 228.858 200.75 226.295 200.75L226.092 199.516ZM234.936 191V192.188H226.389V191H229.936V189.359H231.42V191H234.936ZM230.639 194.047C229.467 194.047 228.639 194.625 228.654 195.516C228.639 196.406 229.467 196.953 230.639 196.953C231.842 196.953 232.67 196.406 232.67 195.516C232.67 194.625 231.842 194.047 230.639 194.047Z" fill="#CAD7E7"/>
<rect x="207.5" y="214" width="40" height="39" rx="8" fill="#CAD7E7"/>
</g>
<g clip-path="url(#clip4_296_62845)">
<path d="M220 274.999V270.832C220 270.611 220.088 270.399 220.244 270.243C220.4 270.086 220.612 269.999 220.833 269.999C221.054 269.999 221.266 270.086 221.423 270.243C221.579 270.399 221.667 270.611 221.667 270.832V272.499H223.333V270.832C223.333 270.169 223.07 269.533 222.601 269.064C222.132 268.595 221.496 268.332 220.833 268.332C220.17 268.332 219.534 268.595 219.066 269.064C218.597 269.533 218.333 270.169 218.333 270.832V274.999H217.5V276.665H237.5V274.999H220Z" fill="#F2F5FA"/>
<path d="M232.5 272.499C232.96 272.499 233.333 272.126 233.333 271.665C233.333 271.205 232.96 270.832 232.5 270.832C232.04 270.832 231.667 271.205 231.667 271.665C231.667 272.126 232.04 272.499 232.5 272.499Z" fill="#F2F5FA"/>
<path d="M230 270.835C230.46 270.835 230.833 270.462 230.833 270.001C230.833 269.541 230.46 269.168 230 269.168C229.54 269.168 229.167 269.541 229.167 270.001C229.167 270.462 229.54 270.835 230 270.835Z" fill="#F2F5FA"/>
<path d="M228.333 274.167C228.794 274.167 229.167 273.794 229.167 273.333C229.167 272.873 228.794 272.5 228.333 272.5C227.873 272.5 227.5 272.873 227.5 273.333C227.5 273.794 227.873 274.167 228.333 274.167Z" fill="#F2F5FA"/>
<path d="M218.333 280C218.335 281.105 218.774 282.164 219.555 282.945C220.336 283.726 221.395 284.165 222.5 284.167V285H224.167V284.167H230.833V285H232.5V284.167C233.605 284.165 234.664 283.726 235.445 282.945C236.226 282.164 236.665 281.105 236.667 280V277.5H218.333V280Z" fill="#F2F5FA"/>
</g>
<defs>
<clipPath id="clip0_296_62845">
<rect x="103.5" y="153" width="40" height="100" rx="8" fill="white"/>
</clipPath>
<clipPath id="clip1_296_62845">
<rect width="20" height="20" fill="white" transform="translate(113.5 265)"/>
</clipPath>
<clipPath id="clip2_296_62845">
<rect x="155.5" y="150" width="40" height="103" rx="8" fill="white"/>
</clipPath>
<clipPath id="clip3_296_62845">
<rect x="207.5" y="187" width="40" height="66" rx="8" fill="white"/>
</clipPath>
<clipPath id="clip4_296_62845">
<rect width="20" height="20" fill="white" transform="translate(217.5 265)"/>
</clipPath>
</defs>
</svg>
