<svg width="240" height="280" viewBox="0 0 240 280" fill="none" xmlns="http://www.w3.org/2000/svg">
<rect width="240" height="280" rx="20" fill="url(#paint0_linear_296_58727)"/>
<path d="M89.0216 52.2295H60L56.875 68.1193L60 80.9873L89.0216 74.8304V52.2295Z" fill="#5D81D7"/>
<path d="M30.9785 52.2295V74.8304L59.9999 80.9873V52.2295H30.9785Z" fill="#5D81D7"/>
<path d="M89.0216 74.8305C89.0216 69.5186 84.7 65.197 79.3881 65.197H60L58.4375 74.4545L60 80.9875H89.0216V74.8305Z" fill="#D3DDF3"/>
<path d="M40.612 65.1968C35.3001 65.1968 30.9785 69.5183 30.9785 74.8302V80.9871H59.9999V65.1968H40.612Z" fill="#D3DDF3"/>
<path d="M24.688 95.7568V100H29.3755V93.4131L24.688 95.7568Z" fill="#061639"/>
<path d="M90.6245 93.4131V100H95.312V95.7568L90.6245 93.4131Z" fill="#061639"/>
<path d="M95.312 85.6748C95.312 80.5054 91.1064 76.2998 85.937 76.2998H60L58.4375 86.0284L60 95.757H95.312V85.6748Z" fill="#3B63BE"/>
<path d="M34.063 76.2998C28.8936 76.2998 24.688 80.5054 24.688 85.6748V95.757H60V76.2998H34.063Z" fill="#3B63BE"/>
<path d="M67.8 43.8539C64.9034 43.8539 62.2167 42.9579 60 41.429L58.4375 49.0728L60 55.7965C60.0116 55.7965 60.0231 55.797 60.0347 55.797C69.4086 55.797 77.1014 48.6044 77.8984 39.437C75.3858 42.1529 71.7917 43.8539 67.8 43.8539Z" fill="#8BACFB"/>
<path d="M54.0445 30.0984C54.0445 26.1067 55.7455 22.5128 58.4614 20C49.2942 20.797 42.1016 28.4897 42.1016 37.8638C42.1016 47.7564 50.1119 55.7778 60 55.7966V41.4291C56.4028 38.948 54.0445 34.7989 54.0445 30.0984Z" fill="#8BACFB"/>
<path d="M28.4688 163.047V164.641H25.6406C25.6641 166.273 26.6719 167.914 28.9688 168.609L27.9688 170.203C26.3906 169.703 25.2891 168.703 24.6562 167.453C24.0156 168.859 22.875 169.977 21.2031 170.516L20.1719 168.922C22.5312 168.18 23.5859 166.414 23.625 164.641H20.7188V163.047H28.4688ZM31.7031 162.219V165.438H33.625V167.062H31.7031V170.469H29.7031V162.219H31.7031ZM31.7031 171.031V176.281H22.4062V171.031H31.7031ZM24.375 172.594V174.688H29.7344V172.594H24.375ZM47.09 167.766V169.328H34.09V167.766H47.09ZM45.5431 165.422V166.984H35.715V162.5H45.4338V164.094H37.6994V165.422H45.5431ZM45.4806 170.172V173.891H37.5588V174.766H45.8556V176.312H35.6056V172.469H43.5119V171.672H35.59V170.172H45.4806ZM59.7113 162.219V176.438H57.6956V162.219H59.7113ZM55.4456 163.703C55.4456 168.016 53.93 171.594 48.8519 174L47.805 172.406C51.4769 170.672 53.0941 168.422 53.4144 165.266H48.5706V163.703H55.4456ZM68.8756 163.219C70.7975 163.219 72.2272 164.805 72.5163 167.359H74.985V162.219H76.9538V176.469H74.985V168.953H72.5319C72.3209 171.688 70.86 173.359 68.8756 173.359C66.7194 173.359 65.1725 171.406 65.1881 168.281C65.1725 165.188 66.7194 163.219 68.8756 163.219ZM68.8756 165.016C67.8131 165.016 67.0788 166.172 67.0944 168.281C67.0788 170.406 67.8131 171.547 68.8756 171.547C69.9538 171.547 70.6569 170.406 70.6569 168.281C70.6569 166.172 69.9538 165.016 68.8756 165.016ZM90.6063 162.219V176.469H88.6219V170.734H86.1844V169.094H88.6219V166.859H86.2313V165.234H88.6219V162.219H90.6063ZM85.4813 163.406V168.875H81.1063V171.641C82.8641 171.633 84.4266 171.547 86.2156 171.281L86.3719 172.906C84.2469 173.25 82.4344 173.281 80.2469 173.281H79.1219V167.328H83.5281V164.984H79.0906V163.406H85.4813ZM98.7744 162.406C101.931 162.422 103.931 163.438 103.946 165.172C103.931 166.859 101.931 167.875 98.7744 167.875C95.6338 167.875 93.5869 166.859 93.5869 165.172C93.5869 163.438 95.6338 162.422 98.7744 162.406ZM98.7744 163.938C96.79 163.938 95.6494 164.344 95.665 165.172C95.6494 165.953 96.79 166.359 98.7744 166.359C100.743 166.359 101.884 165.953 101.884 165.172C101.884 164.344 100.743 163.938 98.7744 163.938ZM103.712 171.438V176.281H93.79V171.438H97.7744V170.203H92.29V168.609H105.259V170.203H99.7588V171.438H103.712ZM95.7588 173.016V174.688H101.759V173.016H95.7588ZM120.986 162.656V166.891H113.033V168.078H121.314V169.672H111.017V165.391H118.939V164.266H110.97V162.656H120.986ZM122.486 170.734V172.328H116.954V176.469H114.954V172.328H109.47V170.734H122.486ZM135.06 162.234V172.75H133.06V162.234H135.06ZM135.435 174.594V176.188H125.529V171.812H127.544V174.594H135.435ZM130.826 163.297V164.891H125.935V166.234H130.404V167.766H125.935V169.125C128.435 169.125 130.021 169.094 131.826 168.797L132.029 170.328C129.997 170.688 128.201 170.719 125.154 170.719H123.935V163.297H130.826Z" fill="white" fill-opacity="0.48"/>
<path d="M31.6445 198.564V200.756H27.7559C27.7881 203.001 29.1738 205.257 32.332 206.213L30.957 208.404C28.7871 207.717 27.2725 206.342 26.4023 204.623C25.5215 206.557 23.9531 208.093 21.6543 208.834L20.2363 206.643C23.4805 205.622 24.9307 203.194 24.9844 200.756H20.9883V198.564H31.6445ZM36.0918 197.426V201.852H38.7344V204.086H36.0918V208.77H33.3418V197.426H36.0918ZM36.0918 209.543V216.762H23.3086V209.543H36.0918ZM26.0156 211.691V214.57H33.3848V211.691H26.0156ZM57.2488 205.053V207.201H39.3738V205.053H57.2488ZM55.1218 201.83V203.979H41.6081V197.812H54.9714V200.004H44.3366V201.83H55.1218ZM55.0359 208.361V213.475H44.1433V214.678H55.5515V216.805H41.4577V211.52H52.3288V210.424H41.4363V208.361H55.0359ZM74.603 197.426V216.977H71.8315V197.426H74.603ZM68.7377 199.467C68.7377 205.396 66.6538 210.316 59.6713 213.625L58.2319 211.434C63.2807 209.049 65.5043 205.955 65.9448 201.615H59.2846V199.467H68.7377ZM98.2899 197.447V211.713H95.5614V204.709H92.3602V202.496H95.5614V197.447H98.2899ZM98.7626 214.441V216.633H85.3134V210.467H88.0634V214.441H98.7626ZM89.202 201.271C89.202 203.527 90.577 205.955 93.6923 206.965L92.3387 209.135C90.1688 208.437 88.6864 207.008 87.827 205.225C86.9677 207.201 85.41 208.77 83.1005 209.543L81.704 207.309C84.9266 206.299 86.3876 203.742 86.4091 201.25V200.949H82.4774V198.758H93.0907V200.949H89.202V201.271ZM104.73 213.41L102.882 219.533H100.605L101.679 213.41H104.73ZM36.2852 245.102V251.762H22.6426V245.102H36.2852ZM25.3496 247.271V249.57H33.5996V247.271H25.3496ZM36.1562 233.092V239.945H30.8496V241.557H38.4121V243.748H20.5801V241.557H28.0996V239.945H22.793V233.092H36.1562ZM25.4785 235.283V237.775H33.4707V235.283H25.4785ZM50.3738 234.381V235.949C50.3523 237.797 50.3523 240.203 49.8366 243.447L47.1296 243.232C47.57 240.396 47.613 238.302 47.6452 236.572H40.2331V234.381H50.3738ZM45.4968 239.988V245.66C47.4196 245.585 49.3747 245.445 51.1687 245.209L51.3405 247.25C47.323 247.938 42.8757 248.002 39.4597 247.98L39.2019 245.789C40.2976 245.778 41.5222 245.778 42.7898 245.746V239.988H45.4968ZM54.864 232.426V240.289H57.528V242.566H54.864V251.977H52.0925V232.426H54.864ZM73.0295 234.273V247.207H63.6408V234.273H73.0295ZM66.3478 236.422V245.037H70.3009V236.422H66.3478ZM78.4435 232.426V239.795H81.3224V242.072H78.4435V251.977H75.6935V232.426H78.4435ZM90.7274 232.791C95.0673 232.791 97.8173 234.23 97.8387 236.615C97.8173 238.979 95.0673 240.418 90.7274 240.396C86.4091 240.418 83.5946 238.979 83.5946 236.615C83.5946 234.23 86.4091 232.791 90.7274 232.791ZM90.7274 234.918C87.9989 234.918 86.4305 235.498 86.452 236.615C86.4305 237.711 87.9989 238.27 90.7274 238.27C93.4345 238.27 95.0028 237.711 95.0028 236.615C95.0028 235.498 93.4345 234.918 90.7274 234.918ZM97.5165 245.102V251.762H83.8739V245.102H97.5165ZM86.5809 247.271V249.57H94.8309V247.271H86.5809ZM99.6434 241.535V243.727H81.8114V241.535H99.6434ZM109.521 232.705C114.011 232.705 116.611 233.887 116.632 236.035C116.611 238.205 114.011 239.387 109.521 239.387C105.009 239.387 102.388 238.205 102.388 236.035C102.388 233.887 105.009 232.705 109.521 232.705ZM109.521 234.703C106.642 234.703 105.246 235.176 105.267 236.035C105.246 237.002 106.642 237.367 109.521 237.367C112.421 237.367 113.796 237.002 113.796 236.035C113.796 235.176 112.421 234.703 109.521 234.703ZM118.437 240.311V242.48H100.605V240.311H118.437ZM116.267 243.619V248.604H105.375V249.785H116.783V251.848H102.689V246.691H113.56V245.617H102.668V243.619H116.267ZM140.47 233.264V235.412H135.077C135.399 237.023 137.419 238.656 141.286 239.086L140.276 241.234C136.613 240.826 134.164 239.301 133.144 237.281C132.112 239.29 129.685 240.826 126.032 241.234L125.044 239.086C128.911 238.656 130.909 237.002 131.231 235.412H125.882V233.264H140.47ZM142.124 242.158V244.35H134.755V247.723H132.048V244.35H124.228V242.158H142.124ZM140.147 249.441V251.633H126.333V245.982H129.062V249.441H140.147ZM159.414 232.426V252.02H156.642V232.426H159.414ZM146.76 233.973V238.742H150.97V233.973H153.677V247.443H144.01V233.973H146.76ZM146.76 245.23H150.97V240.869H146.76V245.23ZM177.262 232.426V240.074H180.141V242.33H177.262V251.977H174.555V232.426H177.262ZM173.223 235.348V237.539H161.729V235.348H166.155V232.727H168.905V235.348H173.223ZM167.53 238.635C170.387 238.635 172.514 240.568 172.514 243.297C172.514 246.025 170.387 247.959 167.53 247.959C164.651 247.959 162.524 246.025 162.524 243.297C162.524 240.568 164.651 238.635 167.53 238.635ZM167.53 240.848C166.155 240.869 165.145 241.793 165.145 243.297C165.145 244.822 166.155 245.725 167.53 245.703C168.905 245.725 169.893 244.822 169.893 243.297C169.893 241.793 168.905 240.869 167.53 240.848ZM186.904 237.346C186.904 240.504 187.784 243.77 190.448 245.488L188.966 247.615C187.279 246.595 186.205 244.919 185.593 242.91C184.884 245.123 183.713 246.971 181.941 248.045L180.265 246.025C183.165 244.221 184.239 240.783 184.239 237.475V234.102H186.904V237.346ZM197.581 232.426V251.977H194.96V232.426H197.581ZM193.478 232.705V251.074H190.921V241.256H188.386V239.021H190.921V232.705H193.478ZM217.32 247.443V249.699H199.424V247.443H203.42V242.652C201.905 241.75 200.992 240.364 200.992 238.635C200.992 235.477 204.086 233.371 208.34 233.371C212.572 233.371 215.687 235.477 215.709 238.635C215.698 240.321 214.807 241.696 213.346 242.609V247.443H217.32ZM208.34 235.541C205.547 235.541 203.699 236.658 203.699 238.635C203.699 240.547 205.547 241.729 208.34 241.729C211.111 241.729 212.98 240.547 213.002 238.635C212.98 236.658 211.111 235.541 208.34 235.541ZM206.127 247.443H210.574V243.641C209.876 243.78 209.124 243.855 208.34 243.855C207.556 243.855 206.814 243.791 206.127 243.641V247.443Z" fill="#F2F5FA"/>
<defs>
<linearGradient id="paint0_linear_296_58727" x1="120" y1="0" x2="120" y2="280" gradientUnits="userSpaceOnUse">
<stop stop-color="#082F8A"/>
<stop offset="1" stop-color="#0F2049"/>
</linearGradient>
</defs>
</svg>
