<svg width="240" height="280" viewBox="0 0 240 280" fill="none" xmlns="http://www.w3.org/2000/svg">
<path d="M0 20C0 8.95431 8.95431 0 20 0H220C231.046 0 240 8.95431 240 20V260C240 271.046 231.046 280 220 280H20C8.9543 280 0 271.046 0 260V20Z" fill="url(#paint0_linear_296_58796)"/>
<g clip-path="url(#clip0_296_58796)">
<path d="M61.0609 96.6666C81.2867 96.6666 97.6829 80.2504 97.6829 59.9999C97.6829 39.7495 81.2867 23.3333 61.0609 23.3333C40.8352 23.3333 24.439 39.7495 24.439 59.9999C24.439 80.2504 40.8352 96.6666 61.0609 96.6666Z" fill="#FCE6C3"/>
<path d="M78.9807 71.8523C74.4911 77.881 67.6239 80.6386 62.3601 78.9556C61.3786 78.6408 61.5672 76.6757 60.7224 76.0451C60.3778 75.7879 58.9402 77.0067 58.6397 76.7107C54.2524 72.3793 54.5393 64.0226 59.5245 57.3282C64.5566 50.5709 72.5752 47.9239 77.9769 51.0323C78.2931 51.2145 77.7828 52.515 78.0797 52.7368C78.9336 53.3741 80.471 53.0404 81.0555 53.9056C84.1464 58.4788 83.4603 65.8367 78.9807 71.8523Z" fill="#BC845F"/>
<path d="M65.913 71.4636C64.79 71.796 63.914 72.7197 63.6264 73.8758L62.36 78.9554C61.3786 78.6406 60.4523 78.1726 59.6075 77.542C59.2629 77.2847 58.9401 77.0065 58.6396 76.7105L59.5419 73.0911C60.2302 70.3296 62.324 68.1211 65.0067 67.327L68.4079 66.3191C69.8576 65.8899 70.8592 64.4849 70.7888 62.9774L70.6841 60.7411C70.563 58.1229 71.8327 55.5155 73.9992 53.9349L77.977 51.0322C78.2931 51.2144 78.6007 51.4165 78.8978 51.6382C79.7517 52.2757 80.4711 53.0403 81.0555 53.9054L76.2853 57.3858C75.3794 58.0472 74.8475 59.1396 74.8988 60.2342L75.0029 62.4714C75.17 66.0728 72.7781 69.431 69.3137 70.4566L65.913 71.4636Z" fill="#815634"/>
<path d="M61.9744 57.2664C61.9744 64.7865 58.1153 71.107 52.8906 72.908C51.9158 73.2429 50.8938 71.5547 49.8401 71.5547C49.4101 71.5547 48.9853 73.3923 48.5677 73.3348C42.4645 72.4879 37.7056 65.6168 37.7056 57.2665C37.7056 48.8376 42.5539 41.9168 48.74 41.1761C49.1022 41.1329 49.4696 42.481 49.8399 42.481C50.905 42.481 51.9383 41.2933 52.9234 41.6371C58.1317 43.4534 61.9744 49.7629 61.9744 57.2664Z" fill="#BC845F"/>
<path d="M51.2664 64.7758C50.5646 65.7144 50.4137 66.9792 50.8734 68.0781L52.8907 72.9083C51.9159 73.2433 50.8939 73.4224 49.8402 73.4224C49.4102 73.4224 48.9854 73.3925 48.5678 73.3351L47.1302 69.8934C46.0333 67.2677 46.3935 64.244 48.0701 62.0019L50.1951 59.1584C51.1011 57.9467 51.0652 56.2209 50.1089 55.0545L48.6898 53.3243C47.0296 51.2978 46.4909 48.4476 47.284 45.8838L48.7401 41.1763C49.1022 41.1332 49.4696 41.1111 49.84 41.1111C50.905 41.1111 51.9383 41.2935 52.9234 41.6373L51.177 47.2824C50.8456 48.3548 51.0713 49.5488 51.766 50.3956L53.185 52.127C55.4691 54.9141 55.5563 59.0379 53.3913 61.9333L51.2664 64.7758Z" fill="#815634"/>
<path d="M60.5061 20.0488C38.5486 20.0488 20.5549 38.0425 20.5549 60C20.5549 81.9576 38.5486 99.9513 60.5061 99.9513C82.4637 99.9513 100.457 81.9576 100.457 60C100.457 38.0425 82.4637 20.0488 60.5061 20.0488ZM30.0746 60C30.0746 43.2391 43.7452 29.5685 60.5061 29.5685C66.8264 29.5685 72.913 31.5346 78.1097 35.2333L60.5061 52.8368L35.7397 77.6035C32.0408 72.4066 30.0746 66.3203 30.0746 60ZM60.5061 90.4316C54.1859 90.4316 48.0993 88.4651 42.9026 84.7665L85.2728 42.3964C88.9715 47.5932 90.9377 53.6795 90.9377 60C90.9377 76.7607 77.2671 90.4316 60.5061 90.4316Z" fill="#E28C00"/>
<path d="M78.8171 57.1459V90.757C88.9983 93.09 99.5098 93.6403 110.658 90.757V57.1459C105.395 56.6447 84.1761 56.5448 78.8171 57.1459Z" fill="#FFD694"/>
<path d="M78.8171 57.1458H110.658V55.1852C110.658 52.9281 108.843 51.1111 106.589 51.1111H82.8862C80.632 51.1111 78.8171 52.9281 78.8171 55.1852V57.1458Z" fill="#C07600"/>
<path d="M110.658 90.7568H78.8171V95.9258C78.8171 98.1829 80.632 99.9999 82.8862 99.9999H106.589C108.843 99.9999 110.658 98.1829 110.658 95.9258V90.7568Z" fill="#C07600"/>
<path d="M94.7373 97.4841C95.0134 97.4841 95.2869 97.4296 95.5421 97.3238C95.7972 97.218 96.029 97.0629 96.2243 96.8674C96.4196 96.6718 96.5745 96.4397 96.6802 96.1843C96.7859 95.9288 96.8403 95.655 96.8403 95.3785C96.8403 95.102 96.7859 94.8282 96.6802 94.5727C96.5745 94.3173 96.4196 94.0852 96.2243 93.8897C96.029 93.6941 95.7972 93.539 95.5421 93.4332C95.2869 93.3274 95.0134 93.2729 94.7373 93.2729C94.4611 93.2729 94.1876 93.3274 93.9325 93.4332C93.6773 93.539 93.4455 93.6941 93.2502 93.8896C93.0549 94.0852 92.9 94.3173 92.7944 94.5727C92.6887 94.8282 92.6343 95.102 92.6343 95.3785C92.6343 95.655 92.6887 95.9288 92.7944 96.1843C92.9 96.4397 93.055 96.6719 93.2502 96.8674C93.4455 97.0629 93.6773 97.218 93.9325 97.3238C94.1876 97.4296 94.4611 97.4841 94.7373 97.4841Z" fill="#8A5500"/>
<path d="M96.4272 63.572C94.9431 63.572 94.3927 64.7716 94.2425 66.2543L93.424 73.6266L90.7337 74.2087C89.3161 74.6486 88.0547 74.9103 88.0547 76.3962C88.0547 77.8822 89.2496 78.3473 90.7337 78.3473H95.6969C97.1811 78.3473 98.376 77.1509 98.376 75.665V66.2543C98.376 64.7684 97.9114 63.572 96.4272 63.572Z" fill="#C07600"/>
</g>
<path d="M32.4062 162.234V172.625H30.4219V167.984H27.875V166.344H30.4219V162.234H32.4062ZM28 163.281C28 167.094 25.5781 169.906 21.4219 171.203L20.6094 169.625C23.5547 168.703 25.4531 167.008 25.8281 164.906H21.3438V163.281H28ZM32.7656 174.594V176.188H23.0312V171.578H25.0625V174.594H32.7656ZM45.3713 162.219V165.562H47.2931V167.188H45.3713V170.469H43.3713V162.219H45.3713ZM41.4025 163.156C41.4181 166.953 39.0275 169.609 34.7931 170.781L33.9963 169.172C37.1291 168.336 38.9259 166.727 39.2306 164.75H34.6681V163.156H41.4025ZM40.7306 170.641C43.6213 170.641 45.5275 171.766 45.5275 173.547C45.5275 175.344 43.6213 176.453 40.7306 176.453C37.84 176.453 35.9025 175.344 35.9181 173.547C35.9025 171.766 37.84 170.641 40.7306 170.641ZM40.7306 172.188C38.9338 172.188 37.8713 172.672 37.8869 173.547C37.8713 174.406 38.9338 174.906 40.7306 174.891C42.4963 174.906 43.5588 174.406 43.5588 173.547C43.5588 172.672 42.4963 172.188 40.7306 172.188ZM59.0394 162.234V166.594H60.9613V168.219H59.0394V172.844H57.0394V162.234H59.0394ZM56.1956 163.719V165.297H47.7581V163.719H50.9925V162.203H52.9769V163.719H56.1956ZM51.9769 165.797C54.0394 165.797 55.4769 166.906 55.4769 168.547C55.4769 170.188 54.0394 171.266 51.9769 171.266C49.8988 171.266 48.4456 170.188 48.4456 168.547C48.4456 166.906 49.8988 165.797 51.9769 165.797ZM51.9769 167.312C51.0238 167.328 50.3831 167.766 50.3988 168.547C50.3831 169.328 51.0238 169.75 51.9769 169.75C52.93 169.75 53.5863 169.328 53.5863 168.547C53.5863 167.766 52.93 167.328 51.9769 167.312ZM59.555 174.594V176.188H49.8206V172.031H51.805V174.594H59.555ZM69.5006 164.75C69.5006 166.281 70.2975 167.812 72.1881 168.531L71.1256 170.047C69.9147 169.586 69.0788 168.742 68.5631 167.688C68.0475 168.922 67.1569 169.953 65.8288 170.5L64.7506 168.969C66.7506 168.094 67.5631 166.344 67.5631 164.75V163.078H69.5006V164.75ZM77.1725 162.234V170.922H75.2819V167.312H74.0944V170.484H72.235V162.484H74.0944V165.703H75.2819V162.234H77.1725ZM72.3131 171.125C75.3131 171.125 77.235 172.125 77.2506 173.781C77.235 175.438 75.3131 176.438 72.3131 176.438C69.2975 176.438 67.3913 175.438 67.3913 173.781C67.3913 172.125 69.2975 171.125 72.3131 171.125ZM72.3131 172.609C70.4538 172.609 69.3756 173.016 69.3913 173.781C69.3756 174.547 70.4538 174.938 72.3131 174.938C74.1569 174.938 75.235 174.547 75.235 173.781C75.235 173.016 74.1569 172.609 72.3131 172.609ZM89.9969 162.219V165.578H91.8094V167.234H89.9969V170.594H87.9969V162.219H89.9969ZM89.9969 171.094V174.281H82.3719V175.016H90.4656V176.344H80.3719V173.078H87.9969V172.422H80.3563V171.094H89.9969ZM78.4656 169.062C79.5047 169.07 80.6844 169.07 81.9188 169.031V168.406C80.3641 168.227 79.4031 167.578 79.4188 166.562C79.4031 165.406 80.7781 164.734 82.9031 164.734C85.0125 164.734 86.3719 165.406 86.3875 166.562C86.3719 167.578 85.4344 168.219 83.9031 168.406V168.969C85.0672 168.914 86.2391 168.82 87.3406 168.672L87.4813 169.906C84.45 170.422 81.1531 170.438 78.6688 170.438L78.4656 169.062ZM86.9813 163.109V164.438H78.8406V163.109H81.9188V162.094H83.9031V163.109H86.9813ZM82.9031 165.969C81.8875 165.969 81.3094 166.156 81.325 166.562C81.3094 166.984 81.8875 167.203 82.9031 167.219C83.9031 167.203 84.4656 166.984 84.4813 166.562C84.4656 166.156 83.9031 165.969 82.9031 165.969ZM99.3019 170.75V171.953H105.161V170.75H107.146V176.281H97.3331V170.75H99.3019ZM99.3019 174.719H105.161V173.469H99.3019V174.719ZM108.786 168.422V170.031H95.8175V168.422H108.786ZM103.333 162.844C103.333 164.266 104.974 165.875 108.146 166.234L107.442 167.797C104.989 167.484 103.216 166.469 102.302 165.094C101.388 166.469 99.6066 167.484 97.1769 167.797L96.4581 166.234C99.63 165.859 101.271 164.297 101.286 162.844V162.359H103.333V162.844ZM117.454 163.25V164.141C117.454 165.125 117.454 166.547 117.126 168.312L115.173 168.125C115.423 166.758 115.486 165.727 115.501 164.875H110.142V163.25H117.454ZM113.923 166.531V169.25C115.337 169.195 116.79 169.086 118.126 168.891L118.236 170.328C115.283 170.875 111.939 170.922 109.47 170.938L109.298 169.344C110.095 169.344 110.993 169.344 111.939 169.312V166.531H113.923ZM120.939 162.219V166.547H122.658V168.219H120.939V172.859H118.892V162.219H120.939ZM121.376 174.594V176.188H111.392V171.906H113.392V174.594H121.376ZM138.181 162.656V166.891H130.228V168.078H138.509V169.672H128.213V165.391H136.134V164.266H128.166V162.656H138.181ZM139.681 170.734V172.328H134.15V176.469H132.15V172.328H126.666V170.734H139.681ZM152.256 162.234V172.75H150.256V162.234H152.256ZM152.631 174.594V176.188H142.724V171.812H144.74V174.594H152.631ZM148.021 163.297V164.891H143.131V166.234H147.599V167.766H143.131V169.125C145.631 169.125 147.217 169.094 149.021 168.797L149.224 170.328C147.193 170.688 145.396 170.719 142.349 170.719H141.131V163.297H148.021Z" fill="white" fill-opacity="0.48"/>
<path d="M31.6875 198.564V200.756H27.7988C27.8203 203.044 29.1738 205.386 32.3535 206.406L30.957 208.533C28.7871 207.835 27.2939 206.438 26.4453 204.688C25.5752 206.6 24.0176 208.114 21.7402 208.855L20.2793 206.75C23.5127 205.708 24.9844 203.205 25.0273 200.756H21.0312V198.564H31.6875ZM36.0918 197.426V202.174H38.7344V204.451H36.0918V209.221H33.3418V197.426H36.0918ZM36.0918 210.059V216.977H33.3418V212.229H22.9219V210.059H36.0918ZM57.2058 207.416V209.607H39.3738V207.416H57.2058ZM55.1863 214.441V216.633H41.5222V210.918H44.2722V214.441H55.1863ZM48.2898 198.027C52.5652 198.006 55.3796 199.531 55.4011 202.023C55.3796 204.516 52.5652 206.062 48.2898 206.062C43.9714 206.062 41.157 204.516 41.157 202.023C41.157 199.531 43.9714 198.006 48.2898 198.027ZM48.2898 200.176C45.5827 200.197 43.9929 200.842 44.0144 202.023C43.9929 203.248 45.5827 203.85 48.2898 203.85C50.9968 203.85 52.5652 203.248 52.5652 202.023C52.5652 200.842 50.9968 200.197 48.2898 200.176ZM67.8088 209.156V210.811H75.8654V209.156H78.5939V216.762H65.1017V209.156H67.8088ZM67.8088 214.613H75.8654V212.895H67.8088V214.613ZM80.8498 205.955V208.168H63.0177V205.955H80.8498ZM73.3517 198.285C73.3517 200.24 75.6076 202.453 79.9689 202.947L79.0021 205.096C75.6291 204.666 73.1906 203.27 71.9338 201.379C70.6769 203.27 68.2277 204.666 64.8869 205.096L63.8986 202.947C68.2599 202.432 70.5158 200.283 70.5373 198.285V197.619H73.3517V198.285ZM92.7684 198.844V200.068C92.7684 201.422 92.7684 203.377 92.3173 205.805L89.6317 205.547C89.9755 203.667 90.0614 202.249 90.0829 201.078H82.7137V198.844H92.7684ZM87.913 203.355V207.094C89.8573 207.019 91.8554 206.868 93.6923 206.6L93.8427 208.576C89.7821 209.328 85.1845 209.393 81.7899 209.414L81.5536 207.223C82.6493 207.223 83.8846 207.223 85.1845 207.18V203.355H87.913ZM97.5595 197.426V203.377H99.9227V205.676H97.5595V212.057H94.745V197.426H97.5595ZM98.161 214.441V216.633H84.4325V210.746H87.1825V214.441H98.161ZM116.976 197.426V217.02H114.205V197.426H116.976ZM106.363 198.801C109.306 198.801 111.498 201.508 111.498 205.762C111.498 210.059 109.306 212.744 106.363 212.744C103.355 212.744 101.164 210.059 101.185 205.762C101.164 201.508 103.355 198.801 106.363 198.801ZM106.363 201.271C104.838 201.271 103.828 202.861 103.828 205.762C103.828 208.684 104.838 210.252 106.363 210.252C107.845 210.252 108.855 208.684 108.855 205.762C108.855 202.861 107.845 201.271 106.363 201.271ZM30.957 233.951C30.957 236.25 33.2988 238.807 37.7891 239.365L36.7148 241.578C33.2988 241.084 30.7959 239.505 29.5176 237.389C28.2285 239.505 25.7471 241.084 22.3633 241.578L21.2676 239.365C25.7148 238.807 28.0781 236.25 28.0781 233.951V233.006H30.957V233.951ZM38.4121 243.061V245.295H30.8066V251.977H28.0996V245.295H20.5801V243.061H38.4121ZM49.4714 234.016V235.498H53.1238V232.447H55.8523V246.67H53.1238V241.879H49.4714V243.533H40.1902V234.016H49.4714ZM42.9187 236.186V241.406H46.7859V236.186H42.9187ZM56.2605 249.441V251.633H42.8327V245.316H45.6042V249.441H56.2605ZM49.4714 239.709H53.1238V237.711H49.4714V239.709ZM64.5053 233.736C67.5991 233.715 69.9194 235.734 69.9194 238.527C69.9194 241.342 67.5991 243.34 64.5053 243.34C61.4116 243.34 59.0698 241.342 59.0698 238.527C59.0698 235.734 61.4116 233.715 64.5053 233.736ZM64.5053 236.1C62.9584 236.1 61.7768 237.002 61.7983 238.527C61.7768 240.074 62.9584 240.955 64.5053 240.955C66.0522 240.955 67.2338 240.074 67.2553 238.527C67.2338 237.002 66.0737 236.1 64.5053 236.1ZM74.603 232.426V252.02H71.8745V232.426H74.603ZM58.2534 245.789C61.7338 245.811 66.5678 245.746 70.7573 245.166L70.9721 247.143C66.6323 247.98 61.9916 248.023 58.5756 248.023L58.2534 245.789ZM98.161 232.426V242.459H95.4325V232.426H98.161ZM98.1825 243.232V248.453H87.7841V249.742H98.7196V251.848H85.0985V246.498H95.454V245.316H85.0555V243.232H98.1825ZM93.37 233.328V235.52H89.4598C89.6532 237.475 91.1141 239.365 94.122 240.16L92.8114 242.266C90.5448 241.643 88.9764 240.332 88.1063 238.656C87.204 240.525 85.5497 241.997 83.1434 242.674L81.8973 240.504C84.9481 239.666 86.4413 237.604 86.6239 235.52H82.6278V233.328H93.37ZM109.521 232.705C114.011 232.705 116.611 233.887 116.632 236.035C116.611 238.205 114.011 239.387 109.521 239.387C105.009 239.387 102.388 238.205 102.388 236.035C102.388 233.887 105.009 232.705 109.521 232.705ZM109.521 234.703C106.642 234.703 105.246 235.176 105.267 236.035C105.246 237.002 106.642 237.367 109.521 237.367C112.421 237.367 113.796 237.002 113.796 236.035C113.796 235.176 112.421 234.703 109.521 234.703ZM118.437 240.311V242.48H100.605V240.311H118.437ZM116.267 243.619V248.604H105.375V249.785H116.783V251.848H102.689V246.691H113.56V245.617H102.668V243.619H116.267ZM139.675 232.426V239.73H142.554V242.029H139.675V251.977H136.925V232.426H139.675ZM127.601 233.973V238.742H131.661V233.973H134.39V247.443H124.872V233.973H127.601ZM127.601 245.23H131.661V240.869H127.601V245.23ZM151.121 233.178V234.188C151.121 235.401 151.121 237.228 150.455 239.623H155.547C156.009 237.84 156.127 236.486 156.17 235.369H152.324V233.178H158.812V234.316C158.812 235.562 158.812 237.324 158.297 239.623H160.939V241.793H153.269V244.693H150.519V241.793H143.043V239.623H147.683C148.231 237.829 148.392 236.454 148.435 235.369H144.633V233.178H151.121ZM147.834 243.684V245.66H155.933V243.684H158.705V251.762H145.105V243.684H147.834ZM147.834 249.592H155.933V247.766H147.834V249.592ZM178.272 232.426V251.977H175.543V232.426H178.272ZM165.596 234.295V244.801C168.239 244.769 171.075 244.521 173.954 243.963L174.297 246.219C170.86 246.928 167.637 247.164 164.608 247.143H162.889V234.295H165.596ZM196.056 232.426V239.688H198.935V241.922H196.056V252.02H193.306V232.426H196.056ZM190.577 234.23V236.443H184.132V245.016C186.968 244.983 189.31 244.854 191.909 244.393L192.21 246.691C189.181 247.207 186.517 247.293 183.058 247.271H181.404V234.23H190.577Z" fill="#F2F5FA"/>
<defs>
<linearGradient id="paint0_linear_296_58796" x1="120" y1="0" x2="120" y2="280" gradientUnits="userSpaceOnUse">
<stop stop-color="#F9B85D"/>
<stop offset="1" stop-color="#C87500"/>
</linearGradient>
<clipPath id="clip0_296_58796">
<rect width="91" height="80" fill="white" transform="translate(20 20)"/>
</clipPath>
</defs>
</svg>
