<svg width="240" height="280" viewBox="0 0 240 280" fill="none" xmlns="http://www.w3.org/2000/svg">
<path d="M0 20C0 8.95431 8.95431 0 20 0H220C231.046 0 240 8.95431 240 20V260C240 271.046 231.046 280 220 280H20C8.9543 280 0 271.046 0 260V20Z" fill="url(#paint0_linear_296_58746)"/>
<g clip-path="url(#clip0_296_58746)">
<path d="M24.5447 24.5208H87.0569V95.479H24.5447V24.5208Z" fill="#0F3037"/>
<path d="M49.4572 50.0356C46.9458 47.5374 45.9261 44.1188 46.3936 40.8711C46.4783 40.2852 45.8831 39.8342 45.3327 40.0588C43.8798 40.6514 42.5299 41.57 41.3978 42.8176C37.6986 46.8953 37.6943 53.1655 41.3905 57.245C45.5819 61.8709 52.7546 62.01 57.1245 57.6625C58.1725 56.6206 58.9591 55.4183 59.4874 54.1353C59.7126 53.5884 59.2573 52.9982 58.6695 53.0824C55.4053 53.5481 51.9686 52.5337 49.4572 50.0356Z" fill="#275F47"/>
<path d="M63.8918 24.5208V29.0416C63.8918 29.0416 65.3583 52.1776 74.1558 59.9999L63.9471 95.479H87.057V24.5208H63.8918Z" fill="#B2DFCC"/>
<path d="M85.7329 65.6488H72.2623C71.531 65.6488 70.9382 65.0592 70.9382 64.3317V58.8879C70.9382 58.1604 71.531 57.5708 72.2623 57.5708H85.7329C86.4643 57.5708 87.057 58.1604 87.057 58.8879V64.3317C87.057 65.0592 86.4643 65.6488 85.7329 65.6488Z" fill="#89C9AE"/>
<path d="M20 22.1783V97.8216C20 99.0246 20.9805 99.9999 22.1899 99.9999H89.4119C90.6213 99.9999 91.6018 99.0246 91.6018 97.8216V22.1783C91.6018 20.9753 90.6213 20 89.4119 20H22.1899C20.9805 20 20 20.9753 20 22.1783ZM81.4538 90.9582H30.148C29.5633 90.9582 29.0896 90.487 29.0896 89.906V30.094C29.0896 29.5129 29.5633 29.0417 30.148 29.0417H81.4544C82.0385 29.0417 82.5122 29.5129 82.5122 30.094V89.9053C82.5122 90.487 82.0385 90.9582 81.4538 90.9582Z" fill="#479C77"/>
<path d="M96.1554 56.5431C96.1554 51.3104 91.9117 47.0684 86.6476 47.0684C81.3872 47.0684 77.1493 51.1441 77.1493 56.3768V77.315C74.8042 79.7083 73.3333 83.1375 73.3333 86.7444C73.3333 94.0622 79.3025 100 86.6666 100C94.0269 100 99.9999 94.0622 99.9999 86.7444C99.9999 83.1186 98.5157 79.8406 96.1554 77.4435V56.5431Z" fill="#DDEDE6"/>
<path d="M90.441 54.6301H82.8394V65.9726H90.441V54.6301Z" fill="#DDEDE6"/>
<path d="M90.4674 80.2311V65.9495H82.8658V80.2312C80.6031 81.541 79.0649 83.9522 79.0649 86.744C79.0649 90.9202 82.4681 94.3057 86.6666 94.3057C90.8651 94.3057 94.2683 90.9202 94.2683 86.744C94.2683 83.9522 92.7301 81.541 90.4674 80.2311Z" fill="#0C5B38"/>
</g>
<path d="M28.1562 163.125C28.1562 166.891 25.6875 169.266 21.4844 170.234L20.6719 168.656C24.0078 167.984 25.7266 166.461 26.0156 164.719H21.4375V163.125H28.1562ZM32.2969 162.234V169.875H30.2969V162.234H32.2969ZM32.4688 170.531V172.078H30.75V174.625H32.6094V176.219H22.5781V174.625H24.4219V172.078H22.7031V170.531H32.4688ZM26.3594 174.625H28.7969V172.078H26.3594V174.625ZM47.0588 169.484V171.078H34.09V169.484H47.0588ZM45.59 174.594V176.188H35.6525V172.031H37.6525V174.594H45.59ZM40.5744 162.656C43.6838 162.641 45.7306 163.75 45.7463 165.562C45.7306 167.375 43.6838 168.5 40.5744 168.5C37.4338 168.5 35.3869 167.375 35.3869 165.562C35.3869 163.75 37.4338 162.641 40.5744 162.656ZM40.5744 164.219C38.6056 164.234 37.4494 164.703 37.465 165.562C37.4494 166.453 38.6056 166.891 40.5744 166.891C42.5431 166.891 43.6838 166.453 43.6838 165.562C43.6838 164.703 42.5431 164.234 40.5744 164.219ZM59.3325 163.047V164.641H56.5044C56.5278 166.273 57.5356 167.914 59.8325 168.609L58.8325 170.203C57.2544 169.703 56.1528 168.703 55.52 167.453C54.8794 168.859 53.7388 169.977 52.0669 170.516L51.0356 168.922C53.395 168.18 54.4497 166.414 54.4888 164.641H51.5825V163.047H59.3325ZM62.5669 162.219V165.438H64.4888V167.062H62.5669V170.469H60.5669V162.219H62.5669ZM62.5669 171.031V176.281H53.27V171.031H62.5669ZM55.2388 172.594V174.688H60.5981V172.594H55.2388ZM79.8563 162.219V166.891H81.6688V168.531H79.8563V173.312H77.8563V162.219H79.8563ZM80.3406 174.594V176.188H70.325V172.578H72.325V174.594H80.3406ZM68.325 170.391C69.3484 170.391 70.5359 170.383 71.7781 170.344V169.516C70.2313 169.305 69.2625 168.531 69.2781 167.422C69.2625 166.016 70.6531 165.188 72.7625 165.203C74.8563 165.188 76.2313 166.016 76.2469 167.422C76.2313 168.523 75.2859 169.297 73.7625 169.516V170.25C74.9344 170.18 76.1063 170.07 77.2 169.906L77.3406 171.281C74.3406 171.859 70.9813 171.891 68.5281 171.922L68.325 170.391ZM76.8406 163.375V164.797H68.7V163.375H71.7781V162.172H73.7625V163.375H76.8406ZM72.7625 166.531C71.7469 166.531 71.1688 166.812 71.1844 167.422C71.1688 167.953 71.7469 168.25 72.7625 168.25C73.7625 168.25 74.325 167.953 74.3406 167.422C74.325 166.812 73.7625 166.531 72.7625 166.531ZM94.1338 162.234V170.422H92.1494V169.031H88.9463V167.438H92.1494V166.078H89.0869C88.2041 168.328 86.1884 169.875 83.0556 170.734L82.2744 169.156C85.5478 168.297 87.1494 166.734 87.4306 164.781H83.04V163.188H89.6025C89.6025 163.648 89.5713 164.094 89.5088 164.516H92.1494V162.234H94.1338ZM89.3994 170.594C92.29 170.594 94.2275 171.703 94.2431 173.469C94.2275 175.25 92.29 176.375 89.3994 176.375C86.4775 176.375 84.5244 175.25 84.54 173.469C84.5244 171.703 86.4775 170.594 89.3994 170.594ZM89.3994 172.156C87.6025 172.141 86.5244 172.594 86.5244 173.469C86.5244 174.344 87.6025 174.797 89.3994 174.797C91.165 174.797 92.2431 174.344 92.2431 173.469C92.2431 172.594 91.165 172.141 89.3994 172.156ZM110.845 162.656V166.891H102.892V168.078H111.173V169.672H100.876V165.391H108.798V164.266H100.829V162.656H110.845ZM112.345 170.734V172.328H106.814V176.469H104.814V172.328H99.3294V170.734H112.345ZM124.919 162.234V172.75H122.919V162.234H124.919ZM125.294 174.594V176.188H115.388V171.812H117.404V174.594H125.294ZM120.685 163.297V164.891H115.794V166.234H120.263V167.766H115.794V169.125C118.294 169.125 119.88 169.094 121.685 168.797L121.888 170.328C119.857 170.688 118.06 170.719 115.013 170.719H113.794V163.297H120.685Z" fill="white" fill-opacity="0.48"/>
<path d="M30.957 198.951C30.957 201.25 33.2988 203.807 37.7891 204.365L36.7148 206.578C33.2988 206.084 30.7959 204.505 29.5176 202.389C28.2285 204.505 25.7471 206.084 22.3633 206.578L21.2676 204.365C25.7148 203.807 28.0781 201.25 28.0781 198.951V198.006H30.957V198.951ZM38.4121 208.061V210.295H30.8066V216.977H28.0996V210.295H20.5801V208.061H38.4121ZM49.4714 199.016V200.498H53.1238V197.447H55.8523V211.67H53.1238V206.879H49.4714V208.533H40.1902V199.016H49.4714ZM42.9187 201.186V206.406H46.7859V201.186H42.9187ZM56.2605 214.441V216.633H42.8327V210.316H45.6042V214.441H56.2605ZM49.4714 204.709H53.1238V202.711H49.4714V204.709ZM78.6584 197.426V203.85H81.1505V206.105H78.6584V212.68H75.9084V197.426H78.6584ZM79.3244 214.441V216.633H65.5529V211.67H68.3029V214.441H79.3244ZM62.8029 208.662C64.2101 208.662 65.8429 208.651 67.5509 208.598V207.459C65.424 207.169 64.092 206.105 64.1134 204.58C64.092 202.646 66.0041 201.508 68.9045 201.529C71.7834 201.508 73.674 202.646 73.6955 204.58C73.674 206.095 72.3742 207.158 70.2795 207.459V208.469C71.8908 208.372 73.5021 208.222 75.006 207.996L75.1994 209.887C71.0744 210.682 66.4552 210.725 63.0822 210.768L62.8029 208.662ZM74.5119 199.016V200.971H63.3185V199.016H67.5509V197.361H70.2795V199.016H74.5119ZM68.9045 203.355C67.508 203.355 66.713 203.742 66.7345 204.58C66.713 205.311 67.508 205.719 68.9045 205.719C70.2795 205.719 71.0529 205.311 71.0744 204.58C71.0529 203.742 70.2795 203.355 68.9045 203.355ZM98.2899 197.447V208.705H95.5614V206.793H91.1571V204.602H95.5614V202.732H91.3505C90.1366 205.826 87.3651 207.953 83.0575 209.135L81.9833 206.965C86.4843 205.783 88.6864 203.635 89.0731 200.949H83.036V198.758H92.0595C92.0595 199.392 92.0165 200.004 91.9305 200.584H95.5614V197.447H98.2899ZM91.7802 208.941C95.7548 208.941 98.4188 210.467 98.4403 212.895C98.4188 215.344 95.7548 216.891 91.7802 216.891C87.7626 216.891 85.077 215.344 85.0985 212.895C85.077 210.467 87.7626 208.941 91.7802 208.941ZM91.7802 211.09C89.3095 211.068 87.827 211.691 87.827 212.895C87.827 214.098 89.3095 214.721 91.7802 214.721C94.2079 214.721 95.6903 214.098 95.6903 212.895C95.6903 211.691 94.2079 211.068 91.7802 211.09ZM109.521 197.705C114.011 197.705 116.611 198.887 116.632 201.035C116.611 203.205 114.011 204.387 109.521 204.387C105.009 204.387 102.388 203.205 102.388 201.035C102.388 198.887 105.009 197.705 109.521 197.705ZM109.521 199.703C106.642 199.703 105.246 200.176 105.267 201.035C105.246 202.002 106.642 202.367 109.521 202.367C112.421 202.367 113.796 202.002 113.796 201.035C113.796 200.176 112.421 199.703 109.521 199.703ZM118.437 205.311V207.48H100.605V205.311H118.437ZM116.267 208.619V213.604H105.375V214.785H116.783V216.848H102.689V211.691H113.56V210.617H102.668V208.619H116.267ZM37.0586 232.426V243.727H34.3301V239.172H31.2363V236.938H34.3301V232.426H37.0586ZM37.0586 244.543V251.762H23.9102V244.543H37.0586ZM26.6602 246.691V249.57H34.373V246.691H26.6602ZM31.8594 233.414V235.627H27.9707C28.0137 237.851 29.3994 240.225 32.4609 241.234L31.1074 243.404C28.9375 242.685 27.4443 241.267 26.5957 239.494C25.7256 241.449 24.168 243.007 21.8691 243.748L20.4727 241.6C23.6309 240.59 25.1025 238.098 25.1777 235.627H21.2461V233.414H31.8594ZM49.5144 233.564C49.5144 238.678 46.2917 242.223 40.5554 243.812L39.4812 241.686C43.6921 240.547 46.1198 238.398 46.5925 235.756H40.5339V233.564H49.5144ZM55.8523 232.447V243.383H53.1238V239.322H49.6433V237.088H53.1238V232.447H55.8523ZM55.8523 244.156V251.74H42.8972V244.156H55.8523ZM45.5827 246.305V249.592H53.1452V246.305H45.5827ZM67.5991 235.412V237.582H58.1459V235.412H61.5405V232.963H64.2475V235.412H67.5991ZM62.9155 238.463C65.4077 238.463 67.1909 240.396 67.2123 243.104C67.1909 245.832 65.4077 247.766 62.9155 247.766C60.4233 247.766 58.5971 245.832 58.5971 243.104C58.5971 240.396 60.4233 238.463 62.9155 238.463ZM62.9155 240.74C61.7768 240.74 61.0034 241.621 61.0034 243.104C61.0034 244.586 61.7768 245.445 62.9155 245.445C64.0112 245.445 64.7846 244.586 64.8061 243.104C64.7846 241.621 64.0112 240.74 62.9155 240.74ZM75.0756 232.426V251.977H72.476V242.566H70.8862V251.139H68.3295V232.812H70.8862V240.375H72.476V232.426H75.0756ZM94.8576 247.465V249.699H76.9611V247.465H84.5021V243.855H78.8517V233.672H81.6017V236.701H90.131V233.672H92.8595V243.855H87.2306V247.465H94.8576ZM81.6017 241.664H90.131V238.893H81.6017V241.664ZM102.028 237.346C102.028 240.504 102.909 243.77 105.573 245.488L104.091 247.615C102.404 246.595 101.33 244.919 100.718 242.91C100.009 245.123 98.8378 246.971 97.0653 248.045L95.3895 246.025C98.2899 244.221 99.3641 240.783 99.3641 237.475V234.102H102.028V237.346ZM112.706 232.426V251.977H110.085V232.426H112.706ZM108.602 232.705V251.074H106.046V241.256H103.511V239.021H106.046V232.705H108.602ZM132.445 247.443V249.699H114.548V247.443H118.545V242.652C117.03 241.75 116.117 240.364 116.117 238.635C116.117 235.477 119.211 233.371 123.464 233.371C127.697 233.371 130.812 235.477 130.834 238.635C130.823 240.321 129.931 241.696 128.47 242.609V247.443H132.445ZM123.464 235.541C120.671 235.541 118.824 236.658 118.824 238.635C118.824 240.547 120.671 241.729 123.464 241.729C126.236 241.729 128.105 240.547 128.127 238.635C128.105 236.658 126.236 235.541 123.464 235.541ZM121.252 247.443H125.699V243.641C125.001 243.78 124.249 243.855 123.464 243.855C122.68 243.855 121.939 243.791 121.252 243.641V247.443Z" fill="#F2F5FA"/>
<defs>
<linearGradient id="paint0_linear_296_58746" x1="120" y1="0" x2="120" y2="280" gradientUnits="userSpaceOnUse">
<stop stop-color="#117247"/>
<stop offset="1" stop-color="#0C2E1F"/>
</linearGradient>
<clipPath id="clip0_296_58746">
<rect width="80" height="80" fill="white" transform="translate(20 20)"/>
</clipPath>
</defs>
</svg>
