<svg width="240" height="280" viewBox="0 0 240 280" fill="none" xmlns="http://www.w3.org/2000/svg">
<path d="M0 20C0 8.95431 8.95431 0 20 0H220C231.046 0 240 8.95431 240 20V260C240 271.046 231.046 280 220 280H20C8.9543 280 0 271.046 0 260V20Z" fill="url(#paint0_linear_296_58905)"/>
<g clip-path="url(#clip0_296_58905)">
<path d="M95.8124 60.6422C95.2766 64.0285 93.6395 67.3803 90.9453 70.6048C87.5812 74.6315 83.1236 77.4728 79.9764 79.1472C78.4877 79.9474 76.9441 80.6551 75.3557 81.2656C73.6137 81.9238 72.9402 82 72.5854 82C72.4554 82.0001 72.3258 81.9872 72.1987 81.9615C71.0372 81.7617 67.7554 80.58 64.1138 78.5821C60.765 76.7448 56.112 73.6424 52.9619 69.2966C48.6896 63.4035 47.8828 57.1459 50.7483 52.1284C51.8648 50.1626 53.5178 48.5069 55.54 47.3289C57.4975 46.1837 59.7587 45.5716 62.0689 45.5617H62.112C64.4598 45.5789 66.7514 46.2342 68.7066 47.4476C70.1778 48.3656 71.4628 49.5199 72.5022 50.8569C73.6981 49.2514 75.0734 47.9471 76.5946 46.9777C78.6242 45.6839 80.9227 45 83.2415 45C83.2891 45 83.3369 45 83.3844 45.0009C85.6737 45.028 87.9296 45.7089 89.9079 46.9698C91.8902 48.2494 93.4772 49.9931 94.5097 52.0259C95.8441 54.6177 96.2942 57.5972 95.8124 60.6422Z" fill="#5D2C8B"/>
<path d="M33.7075 93.0519C33.6835 88.2163 33.6027 68.37 35.207 63.937C35.7667 62.3909 37.1589 60.3351 38.9342 58.5086C39.67 57.7516 40.4946 57.0826 41.3616 56.4783L61.3246 56.2424C66.1217 59.4011 69.2754 64.8249 69.2492 70.9727L69.2169 93.2008L33.7075 93.0519Z" fill="#AD75E2"/>
<path d="M48.2609 47.3857V53.6503C44.1094 54.3896 41.3613 56.4787 41.3613 56.4787C42.9343 60.3194 46.9689 62.8906 51.397 62.8906C55.8546 62.8906 59.8296 60.1468 61.3832 56.2653C59.169 54.8062 56.8268 53.9868 54.77 53.5974V47.3857" fill="#E6D6F5"/>
<path d="M51.6258 49.3626C57.6264 49.3626 62.4908 44.5261 62.4908 38.56C62.4908 32.5938 57.6264 27.7573 51.6258 27.7573C45.6252 27.7573 40.7607 32.5938 40.7607 38.56C40.7607 44.5261 45.6252 49.3626 51.6258 49.3626Z" fill="#E6D6F5"/>
<path d="M56.0378 28.5365C56.6763 27.6517 57.0522 26.5669 57.0522 25.395C57.0522 22.4155 54.6228 20 51.6259 20C48.6291 20 46.1997 22.4155 46.1997 25.395C46.1997 26.449 46.6022 27.3783 47.0293 28.2633C47.4232 29.0795 47.7465 29.0795 47.7465 29.0795H55.5054L56.0378 28.5365Z" fill="#522081"/>
<path d="M60.5647 32.4213C58.6038 29.6041 55.3324 27.7573 51.6258 27.7573C45.6253 27.7573 40.7607 32.5939 40.7607 38.56C40.7607 38.9019 40.7787 39.2396 40.8099 39.5735C43.16 40.2518 54.8664 42.9997 60.5647 32.4213Z" fill="#522081"/>
<path d="M74.0704 78.8935C74.0704 78.8935 81.8662 78.4508 81.8662 84.485H73.8701" fill="#E6D6F5"/>
<path d="M74.1134 85.4045V78.929H66.4827V85.4045H74.1751" fill="#9A62CF"/>
<path d="M29.089 78.8935C29.089 78.8935 21.2932 78.4508 21.2932 84.485H29.2892" fill="#E6D6F5"/>
<path d="M36.6771 78.929H29.0464V85.5652H35.4617L36.6771 78.929Z" fill="#9A62CF"/>
<path d="M41.4437 79.2124V56.4778L41.3614 56.4787C40.4943 57.0831 39.6699 57.7521 38.934 58.509C37.1587 60.3355 35.7663 62.3913 35.2068 63.9374C34.0548 67.1208 33.7717 78.2526 33.7124 86.0662H37.9156C37.9156 86.0662 41.6016 84.5431 41.4437 79.2124Z" fill="#9A62CF"/>
<path d="M64.8811 86.1339H69.2271L69.2491 70.9728C69.2751 64.8372 66.1339 59.4234 61.3531 56.262V79.2803C61.1952 84.6108 64.8811 86.1339 64.8811 86.1339Z" fill="#C2E6FF"/>
<path d="M64.8811 86.1339H69.2271L69.2491 70.9728C69.2751 64.8372 66.1339 59.4234 61.3531 56.262V79.2803C61.1952 84.6108 64.8811 86.1339 64.8811 86.1339Z" fill="#9A62CF"/>
<path d="M51.626 92.1128C37.3418 84.0406 27.8057 84.8476 27.8057 84.8476L27.5784 84.9063C25.763 85.0025 23.8232 85.4846 22.5301 86.7702C22.2068 87.0916 22.0452 87.413 21.7219 87.5737C19.2972 90.4663 19.4588 94.8051 22.0452 97.537C23.3383 98.8226 24.7931 99.6261 26.5712 99.7868C37.8862 99.9475 49.2013 99.6261 60.5164 99.9475C61.9712 99.9475 71.3848 100.108 72.8821 99.8671" fill="#5C2492"/>
<path d="M32.5364 99.7896C35.1384 93.2785 48.0699 94.2427 48.0699 94.2427L48.2315 99.7868L32.5364 99.7896Z" fill="#E6D6F5"/>
<path d="M39.8262 99.7869C59.7402 84.2517 75.5996 84.8478 75.5996 84.8478L75.6736 84.9064C78.2974 85.1634 80.7221 85.9669 82.0152 88.3773C83.47 90.7878 83.6316 93.6804 82.1769 96.2516C81.3686 97.6978 80.0755 98.5013 78.6207 99.3048C76.681 100.269 72.2872 99.8673 72.2872 99.8673" fill="#6C31A5"/>
</g>
<path d="M27.9062 164.094C27.9062 166.172 29.75 168.406 32.9688 168.953L32.0938 170.609C29.6172 170.117 27.7734 168.727 26.8594 166.891C25.9141 168.711 24.0703 170.109 21.6094 170.609L20.75 168.953C23.9062 168.391 25.7656 166.156 25.7812 164.094V163.062H27.9062V164.094ZM33.4375 173.047V174.688H20.4219V173.047H33.4375ZM45.6838 169.562V171.141H35.6213V163.266H45.5744V164.875H37.6525V166.375H45.2463V167.938H37.6525V169.562H45.6838ZM47.1056 173.156V174.781H34.09V173.156H47.1056ZM53.1956 163.641V169.031H50.0706V171.453C51.4534 171.438 52.7659 171.375 54.2425 171.094L54.4144 172.719C52.555 173.062 50.9613 173.094 49.1644 173.109H48.1644V167.453H51.2738V165.219H48.1488V163.641H53.1956ZM60.055 162.219V176.438H58.1644V162.219H60.055ZM57.1019 162.484V175.75H55.2425V168.688H53.7894V167.078H55.2425V162.484H57.1019ZM68.9106 164.094C68.9106 166.172 70.7544 168.406 73.9731 168.953L73.0981 170.609C70.6216 170.117 68.7778 168.727 67.8638 166.891C66.9184 168.711 65.0747 170.109 62.6138 170.609L61.7544 168.953C64.9106 168.391 66.77 166.156 66.7856 164.094V163.062H68.9106V164.094ZM74.4419 173.047V174.688H61.4263V173.047H74.4419ZM82.9031 162.797C84.9813 162.797 86.4813 163.969 86.4813 165.688C86.4813 167.078 85.4578 168.141 83.9344 168.469V169.5C85.0438 169.438 86.1609 169.336 87.2 169.188L87.3563 170.641C84.4344 171.156 81.1688 171.219 78.7938 171.219L78.5906 169.641C79.575 169.641 80.7234 169.633 81.9344 169.594V168.484C80.3641 168.172 79.3094 167.102 79.325 165.688C79.3094 163.969 80.8094 162.797 82.9031 162.797ZM82.9031 164.297C81.8875 164.312 81.1688 164.797 81.1844 165.688C81.1688 166.547 81.8875 167.062 82.9031 167.062C83.9188 167.062 84.6063 166.547 84.6063 165.688C84.6063 164.797 83.9188 164.312 82.9031 164.297ZM89.9969 162.234V166.703H91.8094V168.359H89.9969V173.078H87.9969V162.234H89.9969ZM90.4813 174.578V176.172H80.4656V172.125H82.4656V174.578H90.4813ZM103.665 162.219V168H105.524V169.656H103.665V176.438H101.649V162.219H103.665ZM92.1181 172.422C93.1572 172.422 94.3681 172.422 95.6338 172.391V171.172C94.1181 170.875 93.1338 169.914 93.1494 168.594C93.1338 167 94.5713 165.922 96.6494 165.922C98.6806 165.922 100.134 167 100.149 168.594C100.134 169.914 99.1338 170.883 97.6338 171.172V172.312C98.7588 172.258 99.8916 172.164 100.946 172.016L101.071 173.469C98.04 174.031 94.79 174.047 92.3838 174.047L92.1181 172.422ZM100.837 163.797V165.359H92.3994V163.797H95.6338V162.297H97.6338V163.797H100.837ZM96.6494 167.438C95.6806 167.438 95.0244 167.859 95.04 168.594C95.0244 169.344 95.6806 169.75 96.6494 169.75C97.5869 169.75 98.2275 169.344 98.2275 168.594C98.2275 167.859 97.5869 167.438 96.6494 167.438ZM120.986 162.656V166.891H113.033V168.078H121.314V169.672H111.017V165.391H118.939V164.266H110.97V162.656H120.986ZM122.486 170.734V172.328H116.954V176.469H114.954V172.328H109.47V170.734H122.486ZM135.06 162.234V172.75H133.06V162.234H135.06ZM135.435 174.594V176.188H125.529V171.812H127.544V174.594H135.435ZM130.826 163.297V164.891H125.935V166.234H130.404V167.766H125.935V169.125C128.435 169.125 130.021 169.094 131.826 168.797L132.029 170.328C129.997 170.688 128.201 170.719 125.154 170.719H123.935V163.297H130.826Z" fill="white" fill-opacity="0.48"/>
<path d="M30.5918 199.273V212.207H21.2031V199.273H30.5918ZM23.9102 201.422V210.037H27.8633V201.422H23.9102ZM36.0059 197.426V204.795H38.8848V207.072H36.0059V216.977H33.2559V197.426H36.0059ZM48.2898 197.791C52.6296 197.791 55.3796 199.23 55.4011 201.615C55.3796 203.979 52.6296 205.418 48.2898 205.396C43.9714 205.418 41.157 203.979 41.157 201.615C41.157 199.23 43.9714 197.791 48.2898 197.791ZM48.2898 199.918C45.5613 199.918 43.9929 200.498 44.0144 201.615C43.9929 202.711 45.5613 203.27 48.2898 203.27C50.9968 203.27 52.5652 202.711 52.5652 201.615C52.5652 200.498 50.9968 199.918 48.2898 199.918ZM55.0788 210.102V216.762H41.4363V210.102H55.0788ZM44.1433 212.271V214.57H52.3933V212.271H44.1433ZM57.2058 206.535V208.727H39.3738V206.535H57.2058ZM67.0834 197.705C71.5737 197.705 74.1733 198.887 74.1948 201.035C74.1733 203.205 71.5737 204.387 67.0834 204.387C62.5717 204.387 59.9506 203.205 59.9506 201.035C59.9506 198.887 62.5717 197.705 67.0834 197.705ZM67.0834 199.703C64.2045 199.703 62.808 200.176 62.8295 201.035C62.808 202.002 64.2045 202.367 67.0834 202.367C69.9838 202.367 71.3588 202.002 71.3588 201.035C71.3588 200.176 69.9838 199.703 67.0834 199.703ZM75.9995 205.311V207.48H58.1674V205.311H75.9995ZM73.8295 208.619V213.604H62.937V214.785H74.3452V216.848H60.2514V211.691H71.1225V210.617H60.2299V208.619H73.8295ZM98.2899 197.426V211.82H95.5614V207.008H93.0692V204.752H95.5614V203.055H93.0692V200.863H95.5614V197.426H98.2899ZM92.7255 198.822V201.014H91.1141V206.943C91.7694 206.9 92.4139 206.836 93.0262 206.771L93.1337 208.77C89.4813 209.371 85.1845 209.457 82.0907 209.457L81.8114 207.223C82.4559 207.223 83.1649 207.212 83.8954 207.201V201.014H82.3055V198.822H92.7255ZM98.7626 214.441V216.633H85.2919V210.746H88.0419V214.441H98.7626ZM86.538 207.158C87.1825 207.147 87.8378 207.126 88.493 207.094V201.014H86.538V207.158ZM116.117 197.426V203.033H118.759V205.311H116.117V211.67H113.367V197.426H116.117ZM116.826 214.441V216.633H103.441V210.166H106.17V214.441H116.826ZM106.105 198.693C109.091 198.693 111.433 200.756 111.433 203.656C111.433 206.514 109.091 208.619 106.105 208.619C103.097 208.619 100.734 206.514 100.734 203.656C100.734 200.756 103.097 198.693 106.105 198.693ZM106.105 201.078C104.623 201.057 103.42 202.023 103.441 203.656C103.42 205.246 104.623 206.234 106.105 206.234C107.609 206.234 108.748 205.246 108.769 203.656C108.748 202.023 107.609 201.057 106.105 201.078ZM134.825 197.426V205.074H137.703V207.33H134.825V216.977H132.118V197.426H134.825ZM130.785 200.348V202.539H119.291V200.348H123.717V197.727H126.467V200.348H130.785ZM125.092 203.635C127.95 203.635 130.076 205.568 130.076 208.297C130.076 211.025 127.95 212.959 125.092 212.959C122.213 212.959 120.086 211.025 120.086 208.297C120.086 205.568 122.213 203.635 125.092 203.635ZM125.092 205.848C123.717 205.869 122.707 206.793 122.707 208.297C122.707 209.822 123.717 210.725 125.092 210.703C126.467 210.725 127.455 209.822 127.455 208.297C127.455 206.793 126.467 205.869 125.092 205.848ZM155.144 197.426V216.977H152.565V197.426H155.144ZM150.976 197.855V216.117H148.419V207.137H145.218C144.101 209.371 142.285 211.305 139.503 212.916L137.956 210.982C141.898 208.641 143.639 205.794 144.015 201.959H139.03V199.746H146.743C146.732 201.604 146.539 203.355 146.077 204.967H148.419V197.855H150.976ZM30.5488 234.037V243.426H21.1602V234.037H30.5488ZM23.8672 236.229V241.277H27.8418V236.229H23.8672ZM36.0918 232.426V238.055H38.7344V240.311H36.0918V246.691H33.3418V232.426H36.0918ZM36.8008 249.441V251.633H23.416V245.295H26.1445V249.441H36.8008ZM55.3152 241.471V243.662H41.4792V234.059H55.1648V236.271H44.1863V241.471H55.3152ZM57.2702 247.336V249.592H39.3738V247.336H57.2702ZM74.0444 237.754V239.902H60.3803V233.113H63.1088V237.754H74.0444ZM76.0424 242.008V244.156H58.1459V242.008H76.0424ZM74.1733 249.355V251.547H60.2084V245.746H62.9584V249.355H74.1733ZM86.6024 244.156V245.811H94.6591V244.156H97.3876V251.762H83.8954V244.156H86.6024ZM86.6024 249.613H94.6591V247.895H86.6024V249.613ZM99.6434 240.955V243.168H81.8114V240.955H99.6434ZM92.1454 233.285C92.1454 235.24 94.4012 237.453 98.7626 237.947L97.7958 240.096C94.4227 239.666 91.9843 238.27 90.7274 236.379C89.4706 238.27 87.0214 239.666 83.6805 240.096L82.6923 237.947C87.0536 237.432 89.3095 235.283 89.3309 233.285V232.619H92.1454V233.285ZM111.562 233.844V235.068C111.562 236.422 111.562 238.377 111.111 240.805L108.425 240.547C108.769 238.667 108.855 237.249 108.877 236.078H101.507V233.844H111.562ZM106.707 238.355V242.094C108.651 242.019 110.649 241.868 112.486 241.6L112.636 243.576C108.576 244.328 103.978 244.393 100.584 244.414L100.347 242.223C101.443 242.223 102.678 242.223 103.978 242.18V238.355H106.707ZM116.353 232.426V238.377H118.716V240.676H116.353V247.057H113.539V232.426H116.353ZM116.955 249.441V251.633H103.226V245.746H105.976V249.441H116.955Z" fill="#F2F5FA"/>
<defs>
<linearGradient id="paint0_linear_296_58905" x1="120" y1="0" x2="120" y2="280" gradientUnits="userSpaceOnUse">
<stop stop-color="#C99FF0"/>
<stop offset="1" stop-color="#8347BB"/>
</linearGradient>
<clipPath id="clip0_296_58905">
<rect width="76" height="80" fill="white" transform="translate(20 20)"/>
</clipPath>
</defs>
</svg>
