<svg width="240" height="280" viewBox="0 0 240 280" fill="none" xmlns="http://www.w3.org/2000/svg">
<path d="M0 20C0 8.95431 8.95431 0 20 0H220C231.046 0 240 8.95431 240 20V260C240 271.046 231.046 280 220 280H20C8.9543 280 0 271.046 0 260V20Z" fill="url(#paint0_linear_296_58843)"/>
<g clip-path="url(#clip0_296_58843)">
<path d="M20 41.1719C20 52.8461 29.4977 62.3438 41.1719 62.3438L42.7344 57.6562V24.6875L41.1719 20C29.4977 20 20 29.4977 20 41.1719Z" fill="#DEECFB"/>
<path d="M41.1719 20V62.3438C52.8461 62.3438 62.3438 52.8461 62.3438 41.1719C62.3438 29.4977 52.8461 20 41.1719 20Z" fill="#DEECFB"/>
<path d="M24.6875 41.1719C24.6875 50.2614 32.0823 57.6562 41.1719 57.6562L42.7344 41.1719L41.1719 24.6875C32.0823 24.6875 24.6875 32.0823 24.6875 41.1719Z" fill="#B5D3F1"/>
<path d="M41.1719 24.6875V57.6562C50.2614 57.6562 57.6562 50.2614 57.6562 41.1719C57.6562 32.0823 50.2614 24.6875 41.1719 24.6875Z" fill="#B5D3F1"/>
<path d="M41.1719 29.5312C39.8775 29.5312 38.8281 30.5806 38.8281 31.875V41.25C38.8281 42.5444 39.8775 43.5938 41.1719 43.5938L42.7344 36.5625L41.1719 29.5312Z" fill="#68A0D8"/>
<path d="M48.2031 38.9062H43.5156V31.875C43.5156 30.5806 42.4663 29.5312 41.1719 29.5312V43.5938H48.2031C49.4975 43.5938 50.5469 42.5444 50.5469 41.25C50.5469 39.9556 49.4975 38.9062 48.2031 38.9062Z" fill="#68A0D8"/>
<path d="M51.5547 71.6062C51.5547 81.0403 59.23 88.7156 68.6641 88.7156L71.7891 71.2503L68.6641 54.4968C59.23 54.4968 51.5547 62.1721 51.5547 71.6062Z" fill="#1C5FA1"/>
<path d="M68.6641 54.4968V88.7156C78.0981 88.7156 85.7734 81.0403 85.7734 71.6062C85.7734 62.1721 78.0983 54.4968 68.6641 54.4968Z" fill="#1C5FA1"/>
<path d="M37.3773 83.5309C32.4991 83.1221 28.4294 86.9737 28.4294 91.7496C28.4296 96.3062 32.1233 100 36.6799 100H47.671L49.2335 84.852L47.671 68.6492C39.9568 68.649 34.6777 76.3757 37.3773 83.5309Z" fill="#DEECFB"/>
<path d="M64.1714 77.9995C62.1653 77.9995 60.2862 78.5392 58.6668 79.4773C58.5743 73.4817 53.6884 68.6492 47.6709 68.6492V100H64.1714C70.2467 100 75.1717 95.0751 75.1717 88.9998C75.1717 82.9245 70.2467 77.9995 64.1714 77.9995Z" fill="#DEECFB"/>
<path d="M97.6563 69.2625H92.8203C91.5259 69.2625 90.4766 70.3118 90.4766 71.6062C90.4766 72.9006 91.5259 73.95 92.8203 73.95H97.6563C98.9506 73.95 100 72.9006 100 71.6062C100 70.3118 98.9506 69.2625 97.6563 69.2625Z" fill="#1C5FA1"/>
<path d="M87.4024 56.1824L90.8219 52.7629C91.7372 51.8476 91.7372 50.3637 90.8219 49.4484C89.9066 48.5332 88.4227 48.5331 87.5074 49.4484L84.0879 52.8679C83.1725 53.7832 83.1725 55.2671 84.0879 56.1824C85.0032 57.0978 86.4869 57.0978 87.4024 56.1824Z" fill="#1C5FA1"/>
<path d="M66.3203 42.614V47.45C66.3203 48.7443 67.3697 49.7937 68.6641 49.7937L70.2266 45.032L68.6641 40.2703C67.3697 40.2703 66.3203 41.3196 66.3203 42.614Z" fill="#1C5FA1"/>
<path d="M68.6641 40.2703V49.7937C69.9584 49.7937 71.0078 48.7443 71.0078 47.45V42.614C71.0078 41.3196 69.9584 40.2703 68.6641 40.2703Z" fill="#1C5FA1"/>
<path d="M87.4024 87.03C86.4872 86.1147 85.0032 86.1147 84.0879 87.03C83.1725 87.9453 83.1725 89.4292 84.0879 90.3445L87.5074 93.7641C88.4225 94.6794 89.9068 94.6794 90.8219 93.7641C91.7372 92.8487 91.7372 91.3648 90.8219 90.4495L87.4024 87.03Z" fill="#1C5FA1"/>
</g>
<path d="M33.3906 170.062V171.656H27.8594V176.438H25.8906V171.656H20.4219V170.062H33.3906ZM32.2344 162.969V164.531H28.0938C28.2891 165.922 29.8594 167.32 32.7812 167.672L32.0625 169.234C29.5625 168.898 27.7734 167.828 26.9219 166.359C26.0469 167.828 24.2734 168.898 21.7969 169.234L21.0625 167.672C23.9375 167.32 25.5234 165.922 25.75 164.531H21.5938V162.969H32.2344ZM45.3713 162.219V166.203H47.2931V167.844H45.3713V172.406H43.3556V162.219H45.3713ZM41.4963 163.281C41.4963 167.125 39.09 169.812 34.8244 171.016L33.9963 169.438C37.1759 168.547 38.9806 166.898 39.3088 164.906H34.6213V163.281H41.4963ZM45.8556 174.594V176.188H36.1213V171.359H38.1369V174.594H45.8556ZM58.7388 166.766V168.094H64.2544V169.656H51.2856V168.094H56.77V166.766H58.7388ZM62.6763 170.375V174.031H54.7544V174.844H63.0513V176.344H52.8013V172.625H60.7075V171.844H52.7856V170.375H62.6763ZM63.0825 162.578V164.141H59.2388C59.6372 165.039 61.0903 165.836 63.6919 166.047L63.0669 167.547C60.3325 167.336 58.5044 166.383 57.77 165.031C57.0356 166.383 55.2153 167.336 52.4888 167.547L51.8325 166.047C54.4184 165.836 55.8794 165.031 56.2856 164.141H52.4731V162.578H63.0825ZM76.86 162.234V170.656H74.86V162.234H76.86ZM72.2819 163.047V167.312H67.6569V168.547C70.0319 168.539 71.7038 168.469 73.6256 168.156L73.8756 169.75C71.6881 170.094 69.7819 170.172 66.9538 170.172H65.7038V165.797H70.2975V164.609H65.6881V163.047H72.2819ZM76.86 171.281V176.281H67.3288V171.281H76.86ZM69.2975 172.859V174.688H74.9069V172.859H69.2975ZM90.1181 163.25V164.141C90.1181 165.125 90.1181 166.547 89.79 168.312L87.8369 168.125C88.0869 166.758 88.1494 165.727 88.165 164.875H82.8056V163.25H90.1181ZM86.5869 166.531V169.25C88.0009 169.195 89.4541 169.086 90.79 168.891L90.8994 170.328C87.9463 170.875 84.6025 170.922 82.1338 170.938L81.9619 169.344C82.7588 169.344 83.6572 169.344 84.6025 169.312V166.531H86.5869ZM93.6025 162.219V166.547H95.3213V168.219H93.6025V172.859H91.5556V162.219H93.6025ZM94.04 174.594V176.188H84.0556V171.906H86.0556V174.594H94.04ZM107.739 162.219V176.469H105.755V162.219H107.739ZM103.333 163.406V168.891H98.6456V171.5C100.81 171.492 102.653 171.367 104.739 171.031L104.911 172.641C102.567 173.047 100.458 173.141 97.8644 173.141H96.5831V167.312H101.302V165.016H96.5675V163.406H103.333ZM124.513 162.656V166.891H116.56V168.078H124.841V169.672H114.544V165.391H122.466V164.266H114.497V162.656H124.513ZM126.013 170.734V172.328H120.482V176.469H118.482V172.328H112.997V170.734H126.013ZM138.588 162.234V172.75H136.588V162.234H138.588ZM138.963 174.594V176.188H129.056V171.812H131.072V174.594H138.963ZM134.353 163.297V164.891H129.463V166.234H133.931V167.766H129.463V169.125C131.963 169.125 133.548 169.094 135.353 168.797L135.556 170.328C133.525 170.688 131.728 170.719 128.681 170.719H127.463V163.297H134.353Z" fill="white" fill-opacity="0.48"/>
<path d="M36.0918 197.404V201.701H38.7344V203.979H36.0918V208.125H33.3418V197.404H36.0918ZM24.125 198.35V204.924C26.4883 204.881 29.0342 204.666 31.752 204.107L32.0742 206.342C28.8516 207.008 25.8223 207.201 23.0508 207.201H21.375V198.35H24.125ZM36.3281 208.963V211.133H31.2363C31.5479 212.658 33.5137 214.312 37.1875 214.764L36.1562 216.848C33.0518 216.429 30.8711 215.15 29.7754 213.475C28.6582 215.161 26.4668 216.386 23.373 216.805L22.3203 214.721C26.0156 214.312 27.9385 212.701 28.25 211.133H23.1582V208.963H36.3281ZM62.0991 206.664V208.812H44.2241V206.664H51.8295V204.988H46.394V198.285H59.9506V200.412H49.1225V202.84H60.058V204.988H54.5151V206.664H62.0991ZM53.1186 209.801C57.351 209.801 59.9077 211.09 59.9291 213.41C59.9077 215.688 57.351 216.998 53.1186 216.998C48.8432 216.998 46.2651 215.688 46.2651 213.41C46.2651 211.09 48.8432 209.801 53.1186 209.801ZM53.1186 211.885C50.4116 211.885 49.0366 212.4 49.058 213.41C49.0366 214.441 50.4116 214.914 53.1186 214.914C55.7612 214.914 57.1577 214.441 57.1791 213.41C57.1577 212.4 55.7612 211.885 53.1186 211.885ZM78.5295 197.426V203.033H81.172V205.311H78.5295V211.67H75.7795V197.426H78.5295ZM79.2384 214.441V216.633H65.8537V210.166H68.5822V214.441H79.2384ZM68.5177 198.693C71.5041 198.693 73.8459 200.756 73.8459 203.656C73.8459 206.514 71.5041 208.619 68.5177 208.619C65.5099 208.619 63.1466 206.514 63.1466 203.656C63.1466 200.756 65.5099 198.693 68.5177 198.693ZM68.5177 201.078C67.0353 201.057 65.8322 202.023 65.8537 203.656C65.8322 205.246 67.0353 206.234 68.5177 206.234C70.0216 206.234 71.1603 205.246 71.1818 203.656C71.1603 202.023 70.0216 201.057 68.5177 201.078ZM88.1493 198.736C91.243 198.715 93.5634 200.734 93.5634 203.527C93.5634 206.342 91.243 208.34 88.1493 208.34C85.0555 208.34 82.7137 206.342 82.7137 203.527C82.7137 200.734 85.0555 198.715 88.1493 198.736ZM88.1493 201.1C86.6024 201.1 85.4208 202.002 85.4423 203.527C85.4208 205.074 86.6024 205.955 88.1493 205.955C89.6962 205.955 90.8778 205.074 90.8993 203.527C90.8778 202.002 89.7177 201.1 88.1493 201.1ZM98.247 197.426V217.02H95.5184V197.426H98.247ZM81.8973 210.789C85.3778 210.811 90.2118 210.746 94.4012 210.166L94.6161 212.143C90.2762 212.98 85.6356 213.023 82.2196 213.023L81.8973 210.789ZM37.5312 232.426V251.977H34.9102V232.426H37.5312ZM33.4492 232.705V251.074H30.8711V241.836H29.3027C29.0449 245.682 27.4121 248.002 25.0059 248.002C22.4277 248.002 20.752 245.295 20.752 240.891C20.752 236.508 22.4277 233.822 25.0059 233.822C27.3584 233.822 28.9697 236.014 29.2812 239.666H30.8711V232.705H33.4492ZM25.0059 236.4C23.9102 236.4 23.2656 237.904 23.2871 240.891C23.2656 243.898 23.9102 245.381 25.0059 245.359C26.123 245.381 26.7891 243.898 26.7891 240.891C26.7891 237.904 26.123 236.4 25.0059 236.4ZM55.8952 232.426V252.02H53.1667V240.697H47.8171V238.463H53.1667V232.426H55.8952ZM43.1335 234.51V245.123C45.6257 245.091 48.1609 244.876 50.8249 244.371L51.1257 246.605C47.9675 247.271 44.9597 247.422 42.0378 247.422H40.3835V234.51H43.1335ZM65.7514 237.754C65.7514 240.912 67.3627 244.285 70.6498 245.66L69.1674 247.809C66.8579 246.831 65.268 244.887 64.3979 242.502C63.5063 245.091 61.8842 247.239 59.5854 248.303L58.017 246.133C61.2612 244.693 62.937 241.062 62.937 237.754V236.551H58.7905V234.316H69.8334V236.551H65.7514V237.754ZM74.5385 232.426V251.977H71.767V232.426H74.5385ZM94.8361 241.191V243.232H76.9396V241.191H94.8361ZM92.6877 244.199V248.818H81.7306V249.936H93.2677V251.805H79.0021V247.078H89.9806V246.09H78.9806V244.199H92.6877ZM92.6662 232.77V237.367H81.9025V238.42H93.0099V240.268H79.174V235.627H89.9162V234.639H79.131V232.77H92.6662ZM111.562 233.844V235.068C111.562 236.422 111.562 238.377 111.111 240.805L108.425 240.547C108.769 238.667 108.855 237.249 108.877 236.078H101.507V233.844H111.562ZM106.707 238.355V242.094C108.651 242.019 110.649 241.868 112.486 241.6L112.636 243.576C108.576 244.328 103.978 244.393 100.584 244.414L100.347 242.223C101.443 242.223 102.678 242.223 103.978 242.18V238.355H106.707ZM116.353 232.426V238.377H118.716V240.676H116.353V247.057H113.539V232.426H116.353ZM116.955 249.441V251.633H103.226V245.746H105.976V249.441H116.955ZM135.791 232.426V252.02H133.063V232.426H135.791ZM129.733 234.059V241.6H123.287V245.188C126.263 245.177 128.798 245.005 131.666 244.543L131.903 246.756C128.68 247.314 125.78 247.443 122.213 247.443H120.451V239.43H126.94V236.271H120.43V234.059H129.733ZM153.618 232.426V240.074H156.497V242.33H153.618V251.977H150.911V232.426H153.618ZM149.579 235.348V237.539H138.085V235.348H142.511V232.727H145.261V235.348H149.579ZM143.886 238.635C146.743 238.635 148.87 240.568 148.87 243.297C148.87 246.025 146.743 247.959 143.886 247.959C141.007 247.959 138.88 246.025 138.88 243.297C138.88 240.568 141.007 238.635 143.886 238.635ZM143.886 240.848C142.511 240.869 141.501 241.793 141.501 243.297C141.501 244.822 142.511 245.725 143.886 245.703C145.261 245.725 146.249 244.822 146.249 243.297C146.249 241.793 145.261 240.869 143.886 240.848ZM163.26 237.346C163.26 240.504 164.14 243.77 166.804 245.488L165.322 247.615C163.636 246.595 162.561 244.919 161.949 242.91C161.24 245.123 160.069 246.971 158.297 248.045L156.621 246.025C159.521 244.221 160.595 240.783 160.595 237.475V234.102H163.26V237.346ZM173.937 232.426V251.977H171.316V232.426H173.937ZM169.834 232.705V251.074H167.277V241.256H164.742V239.021H167.277V232.705H169.834ZM193.676 247.443V249.699H175.78V247.443H179.776V242.652C178.261 241.75 177.348 240.364 177.348 238.635C177.348 235.477 180.442 233.371 184.696 233.371C188.928 233.371 192.043 235.477 192.065 238.635C192.054 240.321 191.163 241.696 189.702 242.609V247.443H193.676ZM184.696 235.541C181.903 235.541 180.055 236.658 180.055 238.635C180.055 240.547 181.903 241.729 184.696 241.729C187.467 241.729 189.336 240.547 189.358 238.635C189.336 236.658 187.467 235.541 184.696 235.541ZM182.483 247.443H186.93V243.641C186.232 243.78 185.48 243.855 184.696 243.855C183.912 243.855 183.17 243.791 182.483 243.641V247.443Z" fill="#F2F5FA"/>
<defs>
<linearGradient id="paint0_linear_296_58843" x1="120" y1="0" x2="120" y2="280" gradientUnits="userSpaceOnUse">
<stop stop-color="#95C2F0"/>
<stop offset="1" stop-color="#3785D2"/>
</linearGradient>
<clipPath id="clip0_296_58843">
<rect width="80" height="80" fill="white" transform="translate(20 20)"/>
</clipPath>
</defs>
</svg>
