<svg width="240" height="280" viewBox="0 0 240 280" fill="none" xmlns="http://www.w3.org/2000/svg">
<path d="M0 20C0 8.95431 8.95431 0 20 0H220C231.046 0 240 8.95431 240 20V260C240 271.046 231.046 280 220 280H20C8.9543 280 0 271.046 0 260V20Z" fill="url(#paint0_linear_296_58935)"/>
<path d="M107.985 39.9015C106.514 34.1284 103.38 29.151 98.9206 25.5061C94.5764 21.9556 89.254 20 83.9357 20C79.8575 20 75.9679 21.0992 72.3741 23.2666C69.5361 24.9781 66.983 27.3073 64.7533 30.2131C59.6808 23.5956 52.9856 20 45.5797 20C40.2627 20 34.943 21.9556 30.5994 25.5061C26.1413 29.151 23.0076 34.1284 21.5371 39.9008C19.9379 46.1784 19.6287 56.2107 27.236 68.3558C34.2775 79.5966 46.483 90.0113 63.5145 99.312C63.9005 99.5231 64.3262 99.6283 64.7526 99.6283C65.179 99.6283 65.6054 99.5231 65.9914 99.312C83.0269 90.0113 95.2372 79.5959 102.281 68.3558C109.891 56.2107 109.584 46.1791 107.985 39.9015Z" fill="#882523"/>
<path d="M39.3702 61.7773L42.5975 55.3157L51.3649 72.8697C51.8034 73.7471 52.6987 74.3014 53.6781 74.3014C54.6582 74.3014 55.5535 73.7471 55.9914 72.8697L64.7594 55.3157L67.9867 61.7773C68.4246 62.6546 69.3205 63.2083 70.3 63.2083H89.9148C91.3429 63.2083 92.5009 62.0491 92.5009 60.6194C92.5009 59.1898 91.3429 58.0306 89.9148 58.0306H71.8985L67.0726 48.3685C66.6348 47.4918 65.7388 46.9375 64.7594 46.9375C63.7799 46.9375 62.8846 47.4918 62.4461 48.3685L53.6788 65.9226L44.9108 48.3685C44.4729 47.4918 43.5777 46.9375 42.5975 46.9375C41.6181 46.9375 40.7221 47.4918 40.2843 48.3685L35.459 58.0306H22.0962C22.5913 59.6936 23.2292 61.4212 24.0336 63.2083H37.0576C38.0364 63.2083 38.9323 62.6546 39.3702 61.7773Z" fill="#B54442"/>
<path d="M96.4915 42.353H77.3387C76.4003 42.353 75.6396 43.1145 75.6396 44.0539V47.4556C75.6396 48.395 76.4003 49.1565 77.3387 49.1565H96.4915C97.4299 49.1565 98.1906 48.395 98.1906 47.4556V44.0539C98.1906 43.1145 97.4299 42.353 96.4915 42.353Z" fill="#DD5B58"/>
<path d="M96.4145 49.1565H77.414C77.414 51.7645 74.8009 55.4219 72.6771 57.9613C70.9549 60.0091 70.0074 62.5982 70.0005 65.275V91.0091C70.0005 93.2646 70.8955 95.4277 72.4887 97.0226C74.0819 98.6174 76.2427 99.5134 78.4957 99.5134H95.3333C97.5864 99.5134 99.7472 98.6174 101.34 97.0226C102.934 95.4277 103.829 93.2646 103.829 91.0091V65.2756C103.822 62.5988 102.874 60.0098 101.153 57.9619C99.0282 55.4219 96.4145 51.7668 96.4145 49.1565Z" fill="#F28482"/>
<path d="M92.2343 66.8086H70V90.3021H92.2343C92.6651 90.3021 93.0917 90.2171 93.4896 90.0521C93.8876 89.8871 94.2492 89.6452 94.5538 89.3403C94.8584 89.0353 95.1001 88.6733 95.2649 88.2749C95.4298 87.8765 95.5146 87.4495 95.5146 87.0183V70.0924C95.5146 69.2215 95.169 68.3862 94.5538 67.7704C93.9387 67.1546 93.1043 66.8086 92.2343 66.8086Z" fill="#F2F5FA"/>
<path d="M85.0223 70.9519H80.4915V76.2875H75.1616V80.8232H80.4915V86.1588H85.0223V80.8232H90.3528V76.2875H85.0223V70.9519Z" fill="#88211F"/>
<path d="M116.198 61.8506L108.065 69.9978L120.077 82.0229L128.216 73.8758C129.004 73.0858 129.63 72.1481 130.057 71.1161C130.483 70.0841 130.703 68.9781 130.703 67.8612C130.702 66.7443 130.482 65.6384 130.055 64.6066C129.628 63.5748 129.002 62.6374 128.213 61.8478C127.424 61.0582 126.487 60.432 125.456 60.0048C124.425 59.5776 123.32 59.3579 122.205 59.3582C121.089 59.3584 119.984 59.5787 118.954 60.0063C117.923 60.434 116.986 61.0607 116.198 61.8506Z" fill="#9E3230"/>
<path d="M99.9265 78.1452C99.1151 78.9297 98.4679 79.8681 98.0227 80.9057C97.5775 81.9432 97.3431 83.0592 97.3333 84.1884C97.3235 85.3175 97.5385 86.4374 97.9656 87.4825C98.3928 88.5277 99.0236 89.4772 99.8212 90.2757C100.619 91.0742 101.567 91.7057 102.611 92.1333C103.655 92.5609 104.774 92.7761 105.902 92.7663C107.03 92.7564 108.145 92.5218 109.181 92.0761C110.218 91.6304 111.155 90.9826 111.939 90.1703L120.077 82.0232L108.065 69.998L99.9265 78.1452Z" fill="#88211F"/>
<path d="M120.479 82.5051H108.971V99.5138H120.479C122.732 99.5138 124.893 98.6178 126.486 97.0229C128.079 95.428 128.974 93.2649 128.974 91.0094C128.974 88.754 128.079 86.5909 126.486 84.996C124.893 83.4011 122.732 82.5051 120.479 82.5051Z" fill="#DD5B58"/>
<path d="M88.9731 91.0094C88.9731 93.2649 89.8682 95.428 91.4613 97.0229C93.0545 98.6178 95.2153 99.5138 97.4684 99.5138H108.971V82.5051H97.4684C95.2153 82.5051 93.0545 83.4011 91.4613 84.996C89.8682 86.5909 88.9731 88.754 88.9731 91.0094Z" fill="#FFA6A5"/>
<path d="M32.4062 162.234V172.625H30.4219V167.984H27.875V166.344H30.4219V162.234H32.4062ZM28 163.281C28 167.094 25.5781 169.906 21.4219 171.203L20.6094 169.625C23.5547 168.703 25.4531 167.008 25.8281 164.906H21.3438V163.281H28ZM32.7656 174.594V176.188H23.0312V171.578H25.0625V174.594H32.7656ZM45.3713 162.219V165.562H47.2931V167.188H45.3713V170.469H43.3713V162.219H45.3713ZM41.4025 163.156C41.4181 166.953 39.0275 169.609 34.7931 170.781L33.9963 169.172C37.1291 168.336 38.9259 166.727 39.2306 164.75H34.6681V163.156H41.4025ZM40.7306 170.641C43.6213 170.641 45.5275 171.766 45.5275 173.547C45.5275 175.344 43.6213 176.453 40.7306 176.453C37.84 176.453 35.9025 175.344 35.9181 173.547C35.9025 171.766 37.84 170.641 40.7306 170.641ZM40.7306 172.188C38.9338 172.188 37.8713 172.672 37.8869 173.547C37.8713 174.406 38.9338 174.906 40.7306 174.891C42.4963 174.906 43.5588 174.406 43.5588 173.547C43.5588 172.672 42.4963 172.188 40.7306 172.188ZM59.2544 163.25V164.141C59.2544 165.125 59.2544 166.547 58.9263 168.312L56.9731 168.125C57.2231 166.758 57.2856 165.727 57.3013 164.875H51.9419V163.25H59.2544ZM55.7231 166.531V169.25C57.1372 169.195 58.5903 169.086 59.9263 168.891L60.0356 170.328C57.0825 170.875 53.7388 170.922 51.27 170.938L51.0981 169.344C51.895 169.344 52.7934 169.344 53.7388 169.312V166.531H55.7231ZM62.7388 162.219V166.547H64.4575V168.219H62.7388V172.859H60.6919V162.219H62.7388ZM63.1763 174.594V176.188H53.1919V171.906H55.1919V174.594H63.1763ZM76.8756 162.219V176.469H74.8913V162.219H76.8756ZM72.4694 163.406V168.891H67.7819V171.5C69.9459 171.492 71.7897 171.367 73.8756 171.031L74.0475 172.641C71.7038 173.047 69.5944 173.141 67.0006 173.141H65.7194V167.312H70.4381V165.016H65.7038V163.406H72.4694ZM93.6494 162.656V166.891H85.6963V168.078H93.9775V169.672H83.6806V165.391H91.6025V164.266H83.6338V162.656H93.6494ZM95.1494 170.734V172.328H89.6181V176.469H87.6181V172.328H82.1338V170.734H95.1494ZM107.724 162.234V172.75H105.724V162.234H107.724ZM108.099 174.594V176.188H98.1925V171.812H100.208V174.594H108.099ZM103.489 163.297V164.891H98.5987V166.234H103.067V167.766H98.5987V169.125C101.099 169.125 102.685 169.094 104.489 168.797L104.692 170.328C102.661 170.688 100.864 170.719 97.8175 170.719H96.5987V163.297H103.489Z" fill="white" fill-opacity="0.48"/>
<path d="M30.957 198.951C30.957 201.25 33.2988 203.807 37.7891 204.365L36.7148 206.578C33.2988 206.084 30.7959 204.505 29.5176 202.389C28.2285 204.505 25.7471 206.084 22.3633 206.578L21.2676 204.365C25.7148 203.807 28.0781 201.25 28.0781 198.951V198.006H30.957V198.951ZM38.4121 208.061V210.295H30.8066V216.977H28.0996V210.295H20.5801V208.061H38.4121ZM49.4714 199.016V200.498H53.1238V197.447H55.8523V211.67H53.1238V206.879H49.4714V208.533H40.1902V199.016H49.4714ZM42.9187 201.186V206.406H46.7859V201.186H42.9187ZM56.2605 214.441V216.633H42.8327V210.316H45.6042V214.441H56.2605ZM49.4714 204.709H53.1238V202.711H49.4714V204.709ZM69.1674 199.381V200.949C69.1459 202.797 69.1459 205.203 68.6303 208.447L65.9233 208.232C66.3637 205.396 66.4067 203.302 66.4389 201.572H59.0268V199.381H69.1674ZM64.2905 204.988V210.66C66.2133 210.585 68.1684 210.445 69.9623 210.209L70.1342 212.25C66.1166 212.938 61.6694 213.002 58.2534 212.98L57.9955 210.789C59.0913 210.778 60.3159 210.778 61.5834 210.746V204.988H64.2905ZM73.6577 197.426V205.289H76.3217V207.566H73.6577V216.977H70.8862V197.426H73.6577ZM98.2899 197.447V211.734H95.5614V205.354H92.0595V203.098H95.5614V197.447H98.2899ZM92.2313 198.887C92.2313 204.129 88.9012 207.996 83.1864 209.779L82.0692 207.609C86.119 206.342 88.7294 204.011 89.245 201.121H83.079V198.887H92.2313ZM98.7841 214.441V216.633H85.3993V210.295H88.1923V214.441H98.7841ZM116.117 197.426V202.023H118.759V204.258H116.117V208.77H113.367V197.426H116.117ZM110.66 198.715C110.681 203.936 107.394 207.588 101.572 209.199L100.476 206.986C104.784 205.837 107.254 203.624 107.673 200.906H101.4V198.715H110.66ZM109.736 209.006C113.711 209.006 116.332 210.553 116.332 213.002C116.332 215.473 113.711 216.998 109.736 216.998C105.761 216.998 103.097 215.473 103.119 213.002C103.097 210.553 105.761 209.006 109.736 209.006ZM109.736 211.133C107.265 211.133 105.804 211.799 105.826 213.002C105.804 214.184 107.265 214.871 109.736 214.85C112.164 214.871 113.625 214.184 113.625 213.002C113.625 211.799 112.164 211.133 109.736 211.133ZM137.231 207.416V209.607H119.399V207.416H137.231ZM135.211 214.441V216.633H121.547V210.918H124.297V214.441H135.211ZM128.315 198.027C132.59 198.006 135.405 199.531 135.426 202.023C135.405 204.516 132.59 206.062 128.315 206.062C123.996 206.062 121.182 204.516 121.182 202.023C121.182 199.531 123.996 198.006 128.315 198.027ZM128.315 200.176C125.608 200.197 124.018 200.842 124.039 202.023C124.018 203.248 125.608 203.85 128.315 203.85C131.022 203.85 132.59 203.248 132.59 202.023C132.59 200.842 131.022 200.197 128.315 200.176ZM36.0918 232.426V237.238H38.7344V239.537H36.0918V244.221H33.3418V232.426H36.0918ZM36.0918 245.08V251.762H23.3086V245.08H36.0918ZM26.0156 247.229V249.57H33.3848V247.229H26.0156ZM32.1816 234.188V236.357H20.5801V234.188H25.0273V232.318H27.7559V234.188H32.1816ZM26.3809 236.959C29.2168 236.959 31.1934 238.398 31.1934 240.461C31.1934 242.588 29.2168 244.006 26.3809 244.006C23.502 244.006 21.5254 242.588 21.5254 240.461C21.5254 238.398 23.502 236.959 26.3809 236.959ZM26.3809 239.021C25.0703 239.021 24.1895 239.537 24.2109 240.461C24.1895 241.449 25.0703 241.986 26.3809 241.986C27.6914 241.986 28.5938 241.449 28.5938 240.461C28.5938 239.537 27.6914 239.021 26.3809 239.021ZM44.1863 234.66C44.1648 239.537 43.6921 243.92 41.1999 247.787L39.073 246.67C41.0818 243.63 41.6833 240.665 41.823 236.873H39.7175V234.66H44.1863ZM48.5691 234.66C48.5583 236.379 48.5261 238.087 48.3757 239.752H50.0515V232.855H52.6296V251.117H50.0515V241.965H48.0964C47.6775 244.36 46.9363 246.659 45.5827 248.775L43.4988 247.615C45.6794 244.285 46.1306 240.837 46.2273 236.873H44.7448V234.66H48.5691ZM56.4753 232.426V251.977H53.8542V232.426H56.4753ZM73.9748 233.844V235.068C73.9748 236.422 73.9748 238.377 73.5236 240.805L70.838 240.547C71.1818 238.667 71.2677 237.249 71.2892 236.078H63.9201V233.844H73.9748ZM69.1193 238.355V242.094C71.0636 242.019 73.0617 241.868 74.8986 241.6L75.049 243.576C70.9884 244.328 66.3908 244.393 62.9963 244.414L62.7599 242.223C63.8556 242.223 65.091 242.223 66.3908 242.18V238.355H69.1193ZM78.7658 232.426V238.377H81.1291V240.676H78.7658V247.057H75.9513V232.426H78.7658ZM79.3673 249.441V251.633H65.6388V245.746H68.3888V249.441H79.3673ZM98.204 232.426V252.02H95.4755V232.426H98.204ZM92.1454 234.059V241.6H85.7001V245.188C88.6757 245.177 91.2108 245.005 94.079 244.543L94.3153 246.756C91.0927 247.314 88.1923 247.443 84.6259 247.443H82.8641V239.43H89.3524V236.271H82.8427V234.059H92.1454ZM116.031 232.426V240.074H118.91V242.33H116.031V251.977H113.324V232.426H116.031ZM111.992 235.348V237.539H100.498V235.348H104.923V232.727H107.673V235.348H111.992ZM106.298 238.635C109.156 238.635 111.283 240.568 111.283 243.297C111.283 246.025 109.156 247.959 106.298 247.959C103.42 247.959 101.293 246.025 101.293 243.297C101.293 240.568 103.42 238.635 106.298 238.635ZM106.298 240.848C104.923 240.869 103.914 241.793 103.914 243.297C103.914 244.822 104.923 245.725 106.298 245.703C107.673 245.725 108.662 244.822 108.662 243.297C108.662 241.793 107.673 240.869 106.298 240.848ZM125.672 237.346C125.672 240.504 126.553 243.77 129.217 245.488L127.735 247.615C126.048 246.595 124.974 244.919 124.362 242.91C123.653 245.123 122.482 246.971 120.709 248.045L119.034 246.025C121.934 244.221 123.008 240.783 123.008 237.475V234.102H125.672V237.346ZM136.35 232.426V251.977H133.729V232.426H136.35ZM132.246 232.705V251.074H129.69V241.256H127.155V239.021H129.69V232.705H132.246ZM156.089 247.443V249.699H138.192V247.443H142.189V242.652C140.674 241.75 139.761 240.364 139.761 238.635C139.761 235.477 142.855 233.371 147.108 233.371C151.341 233.371 154.456 235.477 154.478 238.635C154.467 240.321 153.575 241.696 152.114 242.609V247.443H156.089ZM147.108 235.541C144.315 235.541 142.468 236.658 142.468 238.635C142.468 240.547 144.315 241.729 147.108 241.729C149.88 241.729 151.749 240.547 151.771 238.635C151.749 236.658 149.88 235.541 147.108 235.541ZM144.896 247.443H149.343V243.641C148.645 243.78 147.893 243.855 147.108 243.855C146.324 243.855 145.583 243.791 144.896 243.641V247.443Z" fill="#F2F5FA"/>
<defs>
<linearGradient id="paint0_linear_296_58935" x1="120" y1="0" x2="120" y2="280" gradientUnits="userSpaceOnUse">
<stop stop-color="#C65E5C"/>
<stop offset="1" stop-color="#9B2F2D"/>
</linearGradient>
</defs>
</svg>
