<svg width="20" height="20" viewBox="0 0 20 20" fill="none" xmlns="http://www.w3.org/2000/svg">
<path d="M17.379 3.26015C17.379 2.25423 17.1798 1.2785 16.7868 0.359962C16.6934 0.141611 16.4788 0 16.2413 0H3.75873C3.52123 0 3.30664 0.141611 3.21321 0.359962C2.82022 1.2785 2.62097 2.25427 2.62097 3.26015C2.62097 3.26557 2.62117 3.27095 2.62117 3.27637H17.3788C17.3788 3.27095 17.379 3.26557 17.379 3.26015Z" fill="#889CB6"/>
<path d="M9.40671 10.6152V18.8133H5.68715C5.35947 18.8133 5.09381 19.079 5.09381 19.4067C5.09381 19.7343 5.35947 20 5.68715 20H14.3129C14.6406 20 14.9063 19.7343 14.9063 19.4067C14.9063 19.079 14.6406 18.8133 14.3129 18.8133H10.5934V10.6152C13.9843 10.3441 16.7359 7.77067 17.2805 4.46301H2.7196C3.26425 7.77071 6.01575 10.3442 9.40671 10.6152Z" fill="#889CB6"/>
</svg>
