<svg width="20" height="20" viewBox="0 0 20 20" fill="none" xmlns="http://www.w3.org/2000/svg">
<g clip-path="url(#clip0_296_61658)">
<path d="M8.74329 10.4172L10.416 8.74442L11.2524 9.5808L9.57967 11.2536L8.74329 10.4172Z" fill="#889CB6"/>
<path d="M19.4803 3.86494L16.1343 0.518953C15.4425 -0.172904 14.3167 -0.172983 13.6248 0.518953L0.519532 13.6242C-0.172364 14.3161 -0.172364 15.4418 0.519532 16.1337L3.86556 19.4798C4.5573 20.1716 5.68324 20.1717 6.3751 19.4798L19.4803 6.37452C20.1722 5.68262 20.1722 4.55684 19.4803 3.86494ZM14.4613 3.02849L15.2978 3.86502L14.4613 4.70152L13.6248 3.86498L14.4613 3.02849ZM12.7883 4.70148L13.6248 5.53798L12.7883 6.37448L11.9518 5.53798L12.7883 4.70148ZM5.5386 11.9512L6.3751 12.7877L5.5386 13.6242L4.7021 12.7877L5.5386 11.9512ZM3.02907 14.4607L3.86556 13.6242L4.7021 14.4607L3.8656 15.2972L3.02907 14.4607ZM5.5386 16.9702L4.7021 16.1337L5.5386 15.2972L6.3751 16.1337L5.5386 16.9702ZM7.21159 15.2972L6.37506 14.4607L7.21156 13.6242L8.04809 14.4607L7.21159 15.2972ZM9.58169 12.9271L7.07216 10.4176L10.4182 7.07158L12.9277 9.58111L9.58169 12.9271ZM14.4613 8.04751L13.6248 7.21097L14.4613 6.37448L15.2978 7.21101L14.4613 8.04751ZM16.1343 6.37448L15.2978 5.53798L16.1343 4.70148L16.9708 5.53798L16.1343 6.37448Z" fill="#889CB6"/>
<path d="M19.4803 13.6242L16.692 10.8358L10.8364 16.6914L13.6248 19.4797C14.3183 20.1733 15.4407 20.1735 16.1344 19.4797L19.4804 16.1338C20.1689 15.4731 20.1689 14.2848 19.4803 13.6242Z" fill="#889CB6"/>
<path d="M3.30793 9.16283L9.16345 3.30731L6.37513 0.518902C5.68323 -0.172954 4.55741 -0.172994 3.86547 0.518942L0.519562 3.86485C-0.172374 4.55675 -0.172374 5.68261 0.519562 6.37455L3.30793 9.16283Z" fill="#889CB6"/>
</g>
<defs>
<clipPath id="clip0_296_61658">
<rect width="20" height="20" fill="white"/>
</clipPath>
</defs>
</svg>
