<svg width="20" height="20" viewBox="0 0 20 20" fill="none" xmlns="http://www.w3.org/2000/svg">
<g clip-path="url(#clip0_296_61572)">
<path d="M2.5 10V5.83333C2.5 5.61231 2.5878 5.40035 2.74408 5.24407C2.90036 5.08779 3.11232 4.99999 3.33333 4.99999C3.55435 4.99999 3.76631 5.08779 3.92259 5.24407C4.07887 5.40035 4.16667 5.61231 4.16667 5.83333V7.5H5.83333V5.83333C5.83333 5.17029 5.56994 4.5344 5.1011 4.06556C4.63226 3.59672 3.99637 3.33333 3.33333 3.33333C2.67029 3.33333 2.03441 3.59672 1.56557 4.06556C1.09673 4.5344 0.833333 5.17029 0.833333 5.83333V10H0V11.6667H20V10H2.5Z" fill="#889CB6"/>
<path d="M15 7.49999C15.4602 7.49999 15.8333 7.1269 15.8333 6.66666C15.8333 6.20642 15.4602 5.83333 15 5.83333C14.5397 5.83333 14.1666 6.20642 14.1666 6.66666C14.1666 7.1269 14.5397 7.49999 15 7.49999Z" fill="#889CB6"/>
<path d="M12.5 5.83334C12.9602 5.83334 13.3333 5.46024 13.3333 5.00001C13.3333 4.53977 12.9602 4.16667 12.5 4.16667C12.0397 4.16667 11.6666 4.53977 11.6666 5.00001C11.6666 5.46024 12.0397 5.83334 12.5 5.83334Z" fill="#889CB6"/>
<path d="M10.8333 9.16667C11.2936 9.16667 11.6667 8.79357 11.6667 8.33333C11.6667 7.8731 11.2936 7.5 10.8333 7.5C10.3731 7.5 10 7.8731 10 8.33333C10 8.79357 10.3731 9.16667 10.8333 9.16667Z" fill="#889CB6"/>
<path d="M0.833374 15C0.834615 16.1047 1.274 17.1638 2.05513 17.9449C2.83627 18.726 3.89535 19.1654 5.00004 19.1667V20H6.66671V19.1667H13.3334V20H15V19.1667C16.1047 19.1654 17.1638 18.726 17.945 17.9449C18.7261 17.1638 19.1655 16.1047 19.1667 15V12.5H0.833374V15Z" fill="#889CB6"/>
</g>
<defs>
<clipPath id="clip0_296_61572">
<rect width="20" height="20" fill="white"/>
</clipPath>
</defs>
</svg>
