<svg width="20" height="20" viewBox="0 0 20 20" fill="none" xmlns="http://www.w3.org/2000/svg">
<path d="M12.9223 0H9.31709C9.17617 0 9.04308 0.0759242 8.97654 0.203796L7.35597 3.10889C7.22679 3.34066 7.19548 3.61638 7.26985 3.86813C7.34422 4.12388 7.51646 4.33566 7.74741 4.45554L9.24663 5.24276C9.62242 5.43457 10.0687 5.36264 10.3583 5.06294C10.6637 4.73926 11.4465 4.01199 12.0768 4.13187C12.3977 4.19181 12.6757 4.49151 12.8988 5.02298C13.7286 6.99301 13.1415 10.2058 12.8322 11.5764C11.8067 10.6533 10.7185 10.1858 9.57936 10.1858H9.53238C8.40112 10.1978 7.41468 10.6693 6.65529 11.2008C4.86248 8.6993 1.96582 9.07493 1.83664 9.09091C1.64483 9.11888 1.5 9.28671 1.5 9.48651V19.5804C1.5 19.7003 1.55089 19.8122 1.64483 19.8881C1.73486 19.964 1.8523 19.996 1.96582 19.972C3.12057 19.7403 3.91911 18.7812 4.30664 18.2018C5.72757 19.5125 7.41468 20 9.14094 20C13.9244 20 18.974 16.2717 19.2636 16.0519C19.3576 15.984 19.4124 15.8801 19.4241 15.7642C20.1326 7.4006 15.6819 2.04196 14.3001 0.595405C13.9322 0.211788 13.4429 0 12.9223 0ZM17.8513 14.6278C17.9691 14.8128 17.9178 15.0601 17.7366 15.1804C16.3235 16.1191 12.5567 18.3824 9.1519 18.3824C7.64329 18.3824 6.20669 17.9389 5.07621 16.7385C4.92629 16.5794 4.93099 16.3265 5.08717 16.1734C5.24297 16.0208 5.49075 16.0252 5.64067 16.1842C8.90764 19.6531 15.3985 15.7798 17.3099 14.5107C17.4908 14.3896 17.7331 14.4424 17.8513 14.6278Z" fill="#889CB6"/>
</svg>
