<svg width="52" height="52" viewBox="0 0 52 52" fill="none" xmlns="http://www.w3.org/2000/svg">
<path d="M26 0C40.3364 0 52 11.6636 52 26C52 40.3364 40.3364 52 26 52C11.6636 52 0 40.3364 0 26C5.17286e-07 11.6636 11.6636 5.17255e-07 26 0ZM26 31.6592C22.4889 31.6592 18.9786 32.995 16.3057 35.668C15.3829 36.5909 15.3828 38.0876 16.3057 39.0107C17.2285 39.9336 18.7253 39.9334 19.6484 39.0107C23.1507 35.5086 28.8494 35.5086 32.3516 39.0107C33.2744 39.9332 34.7704 39.9332 35.6934 39.0107C36.6165 38.0878 36.6171 36.5911 35.6943 35.668C33.022 32.9956 29.5103 31.6592 26 31.6592ZM15.915 17.8057C15.0845 17.8057 14.2728 18.1435 13.6865 18.7295C13.0991 19.3158 12.7637 20.1293 12.7637 20.958C12.7638 21.7866 13.0992 22.5995 13.6865 23.1855C14.2728 23.7731 15.0862 24.1093 15.915 24.1094C16.7439 24.1094 17.5574 23.7731 18.1436 23.1855C18.7311 22.5995 19.0663 21.7866 19.0664 20.958C19.0664 20.1293 18.7312 19.3158 18.1436 18.7295C17.5574 18.1435 16.7439 17.8057 15.915 17.8057ZM36.085 17.8057C35.2561 17.8057 34.4428 18.1435 33.8564 18.7295C33.2705 19.3158 32.9336 20.1277 32.9336 20.958C32.9337 21.7882 33.2706 22.5995 33.8564 23.1855C34.4428 23.7731 35.2561 24.1094 36.085 24.1094C36.9137 24.1093 37.7264 23.773 38.3125 23.1855C38.8984 22.5995 39.2362 21.7883 39.2363 20.958C39.2363 20.1292 38.8987 19.3158 38.3125 18.7295C37.7264 18.1436 36.9137 17.8057 36.085 17.8057Z" fill="#F2F5FA"/>
</svg>
