<svg width="40" height="40" viewBox="0 0 40 40" fill="none" xmlns="http://www.w3.org/2000/svg">
<g clip-path="url(#clip0_296_60711)">
<path d="M22.5381 40.0001C17.1609 40.0001 12.1055 37.906 8.30333 34.1038C4.50108 30.3015 2.4071 25.2462 2.4071 19.8689C2.4071 15.0777 4.11913 10.4358 7.22779 6.79835C10.3014 3.2018 14.5506 0.793216 19.1925 0.0162668C19.694 -0.0680298 20.1918 0.180954 20.426 0.631967C20.6601 1.08298 20.577 1.63337 20.2201 1.99509C17.1802 5.07601 15.506 9.1556 15.506 13.4826C15.506 22.502 22.8438 29.8399 31.8632 29.8399C34.1199 29.8399 36.3064 29.3881 38.362 28.497C38.8288 28.2948 39.3729 28.4166 39.7084 28.7987C40.0442 29.1809 40.0951 29.7361 39.8343 30.1729C38.0794 33.1125 35.5873 35.5745 32.6272 37.2923C29.575 39.0638 26.0862 40.0001 22.5381 40.0001Z" fill="#E4C122"/>
<path d="M14.7654 40.0012H3.89067C1.74543 40.0012 0.00012207 38.2559 0.00012207 36.1106C0.00012207 34.2924 1.25379 32.7616 2.94215 32.337C3.17989 31.0266 3.81497 29.8224 4.78348 28.8724C6.00403 27.6751 7.61801 27.0156 9.32809 27.0156C11.0382 27.0156 12.6522 27.675 13.8727 28.8723C14.8411 29.8224 15.4762 31.0265 15.714 32.337C17.4024 32.7616 18.6561 34.2923 18.6561 36.1106C18.656 38.2559 16.9107 40.0012 14.7654 40.0012Z" fill="#F2F5FA"/>
<path d="M36.1094 20.3098H25.2347C23.0894 20.3098 21.3441 18.5645 21.3441 16.4193C21.3441 14.6011 22.5977 13.0702 24.2861 12.6456C24.5238 11.3352 25.1589 10.1311 26.1273 9.18102C27.3479 7.98367 28.9619 7.32422 30.672 7.32422C32.3821 7.32422 33.9961 7.98359 35.2166 9.18102C36.1851 10.1311 36.8202 11.3352 37.058 12.6456C38.7462 13.0702 39.9999 14.601 39.9999 16.4193C40 18.5645 38.2547 20.3098 36.1094 20.3098Z" fill="#F2F5FA"/>
</g>
<defs>
<clipPath id="clip0_296_60711">
<rect width="40" height="40" fill="white"/>
</clipPath>
</defs>
</svg>
