<svg width="20" height="20" viewBox="0 0 20 20" fill="none" xmlns="http://www.w3.org/2000/svg">
<g clip-path="url(#clip0_296_61618)">
<path d="M7.78398 3.09574C7.59937 3.28058 7.43437 3.47886 7.26343 3.67328C8.9741 4.04812 10.6582 4.92566 12.1564 6.17988C13.0001 4.07879 14.6529 2.47187 16.835 1.72917L18.214 1.25972C15.6343 -0.940167 11.0892 -0.210049 7.78398 3.09574Z" fill="#889CB6"/>
<path d="M19.065 2.20813L17.2129 2.83868C15.2203 3.51723 13.7381 5.03552 13.0887 7.00908C14.7368 8.67521 15.8608 10.6886 16.3082 12.7525C16.509 12.5767 16.7132 12.4061 16.9039 12.2156C20.0384 9.0806 20.8573 4.84528 19.065 2.20813Z" fill="#889CB6"/>
<path d="M12.6016 17.3684C11.8504 15.0824 9.91825 13.4271 7.55899 12.9605C4.81903 12.4166 2.62746 10.4364 1.72746 7.79198L1.25804 6.41299C-0.941845 8.99261 -0.211179 13.5998 3.0941 16.9056C5.15164 18.9631 7.71528 19.9985 9.98068 19.9985C11.1636 19.9985 12.2579 19.6896 13.1631 19.0767L12.6016 17.3684Z" fill="#889CB6"/>
<path d="M12.2139 7.78565C9.0794 4.65111 4.84369 3.76935 2.20642 5.56189L2.83693 7.41412C3.60295 9.66346 5.45615 11.3477 7.78682 11.8103C10.5606 12.3593 12.8328 14.3147 13.7156 17.002L14.118 18.2262C16.3207 15.6472 15.5204 11.0927 12.2139 7.78565Z" fill="#889CB6"/>
</g>
<defs>
<clipPath id="clip0_296_61618">
<rect width="20" height="20" fill="white"/>
</clipPath>
</defs>
</svg>
