<svg width="20" height="20" viewBox="0 0 20 20" fill="none" xmlns="http://www.w3.org/2000/svg">
<path d="M5.99119 6.875L2.72769 10.1386C1.7817 11.0846 1.25024 12.3676 1.25024 13.7054C1.25024 15.0433 1.7817 16.3263 2.72769 17.2723C3.67369 18.2183 4.95673 18.7498 6.29457 18.7498C7.6324 18.7498 8.91545 18.2183 9.86144 17.2723L13.125 14.0088L5.99119 6.875Z" fill="#889CB6"/>
<path d="M17.2723 2.72769C16.8039 2.25921 16.2479 1.88759 15.6359 1.63404C15.0239 1.3805 14.3679 1.25 13.7054 1.25C13.043 1.25 12.387 1.3805 11.775 1.63404C11.163 1.88759 10.6069 2.25921 10.1386 2.72769L6.875 5.99119L14.0088 13.125L17.2723 9.86144C17.7408 9.39307 18.1124 8.837 18.366 8.22498C18.6195 7.61297 18.75 6.95701 18.75 6.29456C18.75 5.63211 18.6195 4.97615 18.366 4.36414C18.1124 3.75213 17.7408 3.19606 17.2723 2.72769Z" fill="#889CB6"/>
</svg>
