<svg width="52" height="52" viewBox="0 0 52 52" fill="none" xmlns="http://www.w3.org/2000/svg">
<g clip-path="url(#clip0_296_58653)">
<path d="M26 0C11.6636 0 0 11.6636 0 26C0 40.3364 11.6636 52 26 52C40.3364 52 52 40.3364 52 26C52 11.6636 40.3364 0 26 0ZM12.7636 20.9576C12.7636 20.1287 13.0993 19.3156 13.6869 18.7293C14.2732 18.1433 15.0846 17.8061 15.9152 17.8061C16.744 17.8061 17.5571 18.1433 18.1433 18.7293C18.731 19.3156 19.0667 20.1287 19.0667 20.9576C19.0667 21.7864 18.731 22.5995 18.1433 23.1857C17.5571 23.7733 16.744 24.1091 15.9152 24.1091C15.0863 24.1091 14.2732 23.7733 13.6869 23.1857C13.0993 22.5995 12.7636 21.7864 12.7636 20.9576ZM35.6939 35.6937C33.0216 38.3661 29.5103 39.7026 26 39.7026C22.4889 39.7026 18.9791 38.3667 16.3061 35.6937C15.383 34.7708 15.383 33.2743 16.3061 32.3511C17.229 31.4282 18.7257 31.4282 19.6488 32.3511C23.151 35.8532 28.849 35.8532 32.3511 32.3511C33.274 31.4282 34.7707 31.4282 35.6937 32.3511C36.617 33.2742 36.617 34.7707 35.6939 35.6937ZM38.313 23.1857C37.7268 23.7733 36.9137 24.1091 36.0848 24.1091C35.256 24.1091 34.4429 23.7733 33.8566 23.1857C33.2705 22.5995 32.9333 21.788 32.9333 20.9576C32.9333 20.1272 33.2705 19.3156 33.8566 18.7293C34.4429 18.1433 35.256 17.8061 36.0848 17.8061C36.9137 17.8061 37.7268 18.1433 38.313 18.7293C38.8992 19.3156 39.2364 20.1287 39.2364 20.9576C39.2364 21.788 38.899 22.5995 38.313 23.1857Z" fill="#25C3FB"/>
</g>
<defs>
<clipPath id="clip0_296_58653">
<rect width="52" height="52" fill="white"/>
</clipPath>
</defs>
</svg>
