<svg width="20" height="20" viewBox="0 0 20 20" fill="none" xmlns="http://www.w3.org/2000/svg">
<g clip-path="url(#clip0_296_61597)">
<path d="M14.0677 4.07721C13.9893 5.19323 13.3825 6.24511 12.4218 6.82993C11.4751 7.40624 10.2714 7.44956 9.29066 6.92888C8.31469 6.41074 7.66321 5.40501 7.52919 4.31499C7.39036 3.18603 7.79926 2.01948 8.6425 1.25012C9.45974 0.504478 10.6196 0.212101 11.6872 0.521176C12.7421 0.826555 13.5688 1.68187 13.9043 2.71933C14.0455 3.15614 14.0999 3.61932 14.0677 4.07721Z" fill="#889CB6"/>
<path d="M18.8053 16.4629C18.2521 16.3747 17.6982 16.2917 17.1442 16.2085C16.6512 16.1344 16.1579 16.0626 15.6641 15.9941C14.6668 15.8559 13.6695 15.7164 12.6708 15.5895C12.0386 15.5091 11.4064 15.4288 10.7742 15.3485C10.6269 15.3298 10.4801 15.3267 10.3318 15.3212C9.97925 15.3083 9.62661 15.2954 9.27403 15.2824C8.98973 15.272 8.70542 15.2615 8.42112 15.2511C8.14618 15.241 7.85941 15.2415 7.5918 15.2204C7.36961 15.2029 7.14631 15.1965 6.92362 15.1877C6.66415 15.1775 6.40467 15.1684 6.1452 15.1589C6.19351 15.1148 6.26917 15.0947 6.32975 15.0753C6.44047 15.0398 6.55403 15.0127 6.6676 14.9881C6.95344 14.926 7.24348 14.8805 7.53431 14.8494C7.60074 14.8424 7.66722 14.8361 7.73383 14.8312C7.76643 14.8288 7.80636 14.8375 7.82127 14.8067C7.84351 14.7609 7.8657 14.7152 7.88794 14.6694C7.97205 14.4961 8.05714 14.3233 8.14051 14.1497C8.31021 13.7963 8.46308 13.4348 8.59735 13.0664C8.61786 13.0101 8.63795 12.9537 8.65761 12.8971C8.66574 12.8736 8.68626 12.843 8.67036 12.8221C8.6581 12.8061 8.64596 12.7899 8.63395 12.7737C8.57849 12.6989 8.52513 12.6226 8.47312 12.5453C8.36486 12.3846 8.26227 12.22 8.16497 12.0524C8.07975 11.9055 7.99756 11.7563 7.9262 11.6021C7.88862 11.5207 7.8299 11.416 7.83316 11.323C8.01185 11.5181 8.19017 11.7135 8.36948 11.908C8.45895 12.005 8.54861 12.102 8.63894 12.1982C8.67344 12.235 8.70807 12.2717 8.74289 12.3081C8.75472 12.3204 8.82102 12.3725 8.82102 12.3883C8.9766 12.5355 9.14192 12.6737 9.30195 12.816C9.74985 13.2144 10.1984 13.612 10.6456 14.0111C10.8008 14.1496 10.9538 14.2745 11.1539 14.3446C11.1974 14.3598 11.2409 14.375 11.2844 14.3903C11.5188 14.4723 11.7532 14.5543 11.9877 14.6364C12.7238 14.894 13.46 15.1517 14.1961 15.4094C14.6742 15.5767 15.1523 15.744 15.6304 15.9113C16.0595 16.0615 16.5427 15.9821 16.8949 15.6916C17.3356 15.3283 17.4818 14.698 17.2507 14.1768C17.1041 13.846 16.8359 13.6244 16.5099 13.4844C16.299 13.3938 16.0881 13.3032 15.8771 13.2126C15.1649 12.9068 14.4526 12.6009 13.7405 12.2951C13.4515 12.171 13.1626 12.0469 12.8736 11.9229C12.7924 11.888 12.7111 11.8531 12.6299 11.8182C12.6119 11.8105 12.5734 11.8025 12.5603 11.7869C12.2905 11.4642 12.0207 11.1415 11.7509 10.8188C11.2435 10.2119 10.736 9.60502 10.2286 8.99808C9.85343 8.54932 9.47824 8.10055 9.10298 7.65179C8.91492 7.42688 8.71171 7.22392 8.44891 7.08373C7.98388 6.83566 7.48755 6.63818 6.95202 6.65075C6.13158 6.66997 5.44528 7.17961 4.96133 7.80805C4.76373 8.06469 4.59317 8.3432 4.45262 8.63497C4.36019 8.82684 4.30036 9.02174 4.2319 9.22206C4.0728 9.68758 3.86355 10.1381 3.65602 10.5834C3.36999 11.1973 3.06584 11.8032 2.74124 12.3975C2.46137 12.9099 2.16622 13.415 1.85302 13.9077C1.60482 14.2981 1.34603 14.6816 1.09777 15.072C1.00984 15.2103 0.922712 15.349 0.836324 15.4883C0.787954 15.5662 0.739769 15.6444 0.691769 15.7226C0.647342 15.795 0.579624 15.8522 0.524784 15.9174C0.319473 16.1616 0.166969 16.4493 0.0812583 16.7566C-0.079318 17.3324 -1.57379e-05 17.963 0.299262 18.4803C0.571306 18.9505 1.01403 19.313 1.52922 19.4855C1.78598 19.5715 2.05759 19.6095 2.32809 19.5991C2.4846 19.5932 2.64111 19.5872 2.79762 19.5811C3.32384 19.561 3.85049 19.5356 4.37627 19.5072C4.94303 19.4765 5.50973 19.4454 6.07631 19.4121C6.99657 19.358 7.91671 19.3003 8.8363 19.2358C9.22221 19.2087 9.60806 19.1816 9.99398 19.1546C10.1772 19.1417 10.3667 19.1126 10.5506 19.1185C11.1617 19.1383 11.7729 19.1581 12.384 19.1778C13.3907 19.2104 14.3979 19.2302 15.4049 19.2514C15.9033 19.2619 16.4018 19.269 16.9004 19.2737C17.4605 19.2791 18.0206 19.2878 18.5807 19.285C19.144 19.2859 19.6691 18.9388 19.889 18.4202C20.111 17.8964 19.9928 17.2761 19.5947 16.8701C19.3831 16.654 19.1041 16.5105 18.8053 16.4629Z" fill="#889CB6"/>
</g>
<defs>
<clipPath id="clip0_296_61597">
<rect width="20" height="20" fill="white"/>
</clipPath>
</defs>
</svg>
