<svg width="20" height="20" viewBox="0 0 20 20" fill="none" xmlns="http://www.w3.org/2000/svg">
<path d="M14 0C17.3137 1.28851e-07 20 2.68629 20 6V14C20 17.3137 17.3137 20 14 20H6C2.68629 20 1.28855e-07 17.3137 0 14V6C1.28855e-07 2.68629 2.68629 1.28851e-07 6 0H14ZM15.2549 6.3457C14.7945 5.88532 14.0483 5.88534 13.5879 6.3457L8.52637 11.4062L6.41211 9.29297C5.9517 8.83265 5.20549 8.8326 4.74512 9.29297C4.285 9.75336 4.28488 10.4996 4.74512 10.96L7.69238 13.9072C8.15278 14.3676 8.89995 14.3676 9.36035 13.9072L15.2549 8.0127C15.7151 7.55239 15.715 6.80611 15.2549 6.3457Z" fill="#4F6B91"/>
</svg>
