<svg width="28" height="28" viewBox="0 0 28 28" fill="none" xmlns="http://www.w3.org/2000/svg">
<path d="M0 14C0 6.272 6.272 0 14 0C21.728 0 28 6.272 28 14C28 21.728 21.728 28 14 28C6.272 28 0 21.728 0 14Z" fill="#E6445F" fill-opacity="0.4"/>
<path d="M3.5 14C3.5 8.204 8.204 3.5 14 3.5C19.796 3.5 24.5 8.204 24.5 14C24.5 19.796 19.796 24.5 14 24.5C8.204 24.5 3.5 19.796 3.5 14Z" fill="#DB4860"/>
<path d="M13.9992 20.2997C13.2292 20.2997 12.5992 19.6697 12.5992 18.8997C12.5992 18.1297 13.2292 17.4997 13.9992 17.4997C14.7692 17.4997 15.3992 18.1297 15.3992 18.8997C15.3992 19.6697 14.7692 20.2997 13.9992 20.2997ZM15.6022 9.44271L15.1332 15.0567C15.0842 15.6447 14.5942 16.0997 13.9992 16.0997C13.4042 16.0997 12.9142 15.6447 12.8652 15.0567L12.3962 9.44271C12.3192 8.50471 13.0542 7.69971 13.9992 7.69971C14.8952 7.69971 15.6092 8.42771 15.6092 9.30971C15.6092 9.35171 15.6092 9.40071 15.6022 9.44271Z" fill="#F2F5FA"/>
</svg>
