<svg width="24" height="24" viewBox="0 0 24 24" fill="none" xmlns="http://www.w3.org/2000/svg">
<path d="M17.25 9.66797C17.4145 9.66802 17.5752 9.71713 17.7119 9.80859C17.8486 9.90008 17.9558 10.0296 18.0186 10.1816L22.1221 20.124L22.2363 20.4004C22.2884 20.5266 22.3093 20.664 22.2959 20.7998C22.2824 20.9357 22.235 21.0662 22.1592 21.1797C22.0833 21.2932 21.9807 21.3868 21.8604 21.4512C21.74 21.5155 21.6052 21.5487 21.4688 21.5488C21.3044 21.5488 21.1435 21.5005 21.0068 21.4092C20.8701 21.3177 20.763 21.1873 20.7002 21.0352L19.8408 18.9541L19.79 18.8301H14.71L14.6592 18.9541L13.7998 21.0352L13.7988 21.0361C13.7576 21.1374 13.697 21.2299 13.6201 21.3076C13.5432 21.3853 13.4514 21.447 13.3506 21.4893C13.2496 21.5315 13.1407 21.5534 13.0312 21.5537C12.9218 21.554 12.8131 21.5329 12.7119 21.4912C12.6108 21.4495 12.5188 21.3879 12.4414 21.3105C12.3641 21.2332 12.3025 21.1411 12.2607 21.04C12.219 20.9389 12.198 20.8301 12.1982 20.7207C12.1985 20.6112 12.2204 20.5014 12.2627 20.4004L16.4814 10.1816C16.5443 10.0296 16.6513 9.90007 16.7881 9.80859C16.9248 9.71715 17.0855 9.66797 17.25 9.66797ZM15.3965 17.168H19.1035L18.9902 16.8916L17.4355 13.125L17.25 12.6777L15.3965 17.168Z" fill="#CAD7E7"/>
<path d="M9 2.44922C9.22046 2.44922 9.432 2.53649 9.58789 2.69238C9.74378 2.84827 9.83105 3.05981 9.83105 3.28027V4.41797H15.4688C15.6892 4.41797 15.9008 4.50524 16.0566 4.66113C16.2125 4.81702 16.2998 5.02856 16.2998 5.24902C16.2998 5.46948 16.2125 5.68102 16.0566 5.83691C15.9008 5.9928 15.6892 6.08008 15.4688 6.08008H13.8096L13.7656 6.21973C13.3389 7.55853 12.2937 10.3972 10.4541 12.8877L10.3564 13.0195L10.4678 13.1406C10.9764 13.6992 11.4066 14.1097 11.7119 14.3818C11.8644 14.5177 11.9859 14.6191 12.0703 14.6875C12.1125 14.7217 12.146 14.7478 12.1689 14.7656C12.1802 14.7744 12.189 14.7813 12.1953 14.7861C12.1985 14.7886 12.2013 14.7906 12.2031 14.792C12.204 14.7927 12.2045 14.7935 12.2051 14.7939L12.208 14.7959C12.3862 14.9253 12.5064 15.1204 12.541 15.3379C12.5713 15.5284 12.5339 15.7226 12.4375 15.8877L12.3926 15.9561C12.3286 16.0443 12.2482 16.1196 12.1553 16.1768C12.0622 16.234 11.9584 16.2719 11.8506 16.2891C11.7428 16.3062 11.6326 16.3018 11.5264 16.2764C11.4201 16.2509 11.3198 16.2048 11.2314 16.1406L11.2295 16.1396L11.082 16.0264C10.8178 15.8167 10.219 15.3124 9.43457 14.4736L9.28613 14.3145L9.14062 14.4766C6.67386 17.2071 4.51621 18.3995 4.42871 18.4473C4.23538 18.5526 4.00811 18.5767 3.79688 18.5146C3.58536 18.4524 3.40635 18.3088 3.30078 18.1152C3.19525 17.9217 3.17119 17.6939 3.2334 17.4824C3.29561 17.271 3.43933 17.0929 3.63281 16.9873C4.41043 16.5587 6.23332 15.2531 8.08594 13.1592L8.19629 13.0352L8.09375 12.9033C8.05107 12.8489 8.0084 12.7953 7.96582 12.7402C6.62757 11.0041 5.92962 9.71278 5.65527 9.1543L5.51465 8.85059C5.43351 8.64853 5.4349 8.42278 5.51855 8.22168C5.60265 8.0197 5.76305 7.85895 5.96484 7.77441C6.16662 7.6899 6.39375 7.68781 6.59668 7.76953C6.79799 7.85064 6.95952 8.00752 7.04688 8.20605C7.05787 8.23293 7.61443 9.51357 9.09668 11.4805L9.26367 11.7021L9.4209 11.4727C10.6882 9.63088 11.5167 7.61809 11.9658 6.34668L12.0605 6.08008H2.53125C2.31079 6.08008 2.09925 5.9928 1.94336 5.83691C1.80693 5.70048 1.72297 5.52139 1.7041 5.33105L1.7002 5.24902C1.7002 5.02856 1.78747 4.81702 1.94336 4.66113C2.09925 4.50524 2.31079 4.41797 2.53125 4.41797H8.16895V3.28027C8.16895 3.05981 8.25622 2.84827 8.41211 2.69238C8.568 2.53649 8.77954 2.44922 9 2.44922Z" fill="#CAD7E7"/>
</svg>
