<svg width="24" height="24" viewBox="0 0 24 24" fill="none" xmlns="http://www.w3.org/2000/svg">
<path d="M9.59998 21.6004H7.19998C5.21175 21.6004 3.59998 19.9886 3.59998 18.0004V6.00039C3.59998 4.01217 5.21175 2.40039 7.19998 2.40039H15.6C17.5882 2.40039 19.2 4.01217 19.2 6.00039V9.00039M15 15.0004V13.8004C15 12.8063 15.8059 12.0004 16.8 12.0004C17.7941 12.0004 18.6 12.8063 18.6 13.8004V15.6004M15 7.20039H7.19998M11.4 10.8004H7.19998M9.59998 14.4004H7.19998M14.4 21.6004H19.2C19.8627 21.6004 20.4 21.0631 20.4 20.4004V16.8004C20.4 16.1376 19.8627 15.6004 19.2 15.6004H14.4C13.7372 15.6004 13.2 16.1376 13.2 16.8004V20.4004C13.2 21.0631 13.7372 21.6004 14.4 21.6004Z" stroke="#CAD7E7" stroke-width="1.5" stroke-linecap="round"/>
</svg>
