<svg width="20" height="20" viewBox="0 0 20 20" fill="none" xmlns="http://www.w3.org/2000/svg">
<g clip-path="url(#clip0_296_61603)">
<path d="M19.8001 5.65276C19.6305 5.48317 19.3745 5.43432 19.1543 5.52957C17.7966 6.11717 16.2432 5.8208 15.1969 4.77448C14.1507 3.72821 13.8543 2.1748 14.4418 0.817062C14.5371 0.596946 14.4882 0.340923 14.3186 0.171333C14.149 0.0016643 13.8931 -0.0471855 13.6729 0.0481749C10.6318 1.31414 9.83576 5.47148 12.2015 7.76999C13.9702 9.61338 17.1531 9.61358 18.9218 7.76999C19.3485 7.34333 19.6854 6.84824 19.9233 6.29857C20.0186 6.07834 19.9697 5.82239 19.8001 5.65276Z" fill="#889CB6"/>
<path d="M16.4031 2.60492L16.5136 3.32161C16.5373 3.47572 16.6216 3.61397 16.7478 3.70566C16.874 3.79748 17.0326 3.83475 17.1855 3.80976L17.9012 3.69334L18.6169 3.80976C18.7709 3.83467 18.9283 3.79732 19.0545 3.70562C19.1807 3.61397 19.265 3.47572 19.2888 3.32157L19.3992 2.60489L19.7311 1.96017C19.8024 1.82153 19.8155 1.66013 19.7673 1.51179C19.7191 1.36348 19.6137 1.24056 19.4745 1.17035L18.827 0.843875L18.3164 0.329022C18.0984 0.100212 17.7039 0.100212 17.4859 0.328983L16.9753 0.843875L16.3278 1.17035C16.1886 1.24056 16.0832 1.36348 16.035 1.51179C15.9868 1.66013 15.9998 1.8215 16.0712 1.96017L16.4031 2.60492Z" fill="#889CB6"/>
<path d="M1.18584 17.2344C1.93274 18.4021 2.98568 19.3382 4.23082 19.9415C4.31028 19.98 4.39745 20 4.48579 20H10.4848C10.5732 20 10.6604 19.98 10.7398 19.9415C11.985 19.3382 13.0379 18.4022 13.7848 17.2344C14.4644 16.172 14.86 14.9604 14.942 13.7037H0.0286865C0.110597 14.9603 0.506307 16.172 1.18584 17.2344Z" fill="#889CB6"/>
<path d="M12.6302 10.7193C12.3509 9.68015 11.1709 9.00491 10.1091 9.3354C10.0083 9.12791 9.87164 8.93704 9.70244 8.77092C9.13347 8.19867 8.22455 8.02776 7.48533 8.34593C6.74603 8.02776 5.83722 8.19867 5.26818 8.77092C5.09902 8.93707 4.96229 9.12791 4.86151 9.3354C3.7996 9.00491 2.6198 9.68015 2.34043 10.7193C1.42791 10.8579 0.713607 11.6062 0.625732 12.5341H14.3449C14.257 11.6062 13.5427 10.8579 12.6302 10.7193Z" fill="#889CB6"/>
</g>
<defs>
<clipPath id="clip0_296_61603">
<rect width="20" height="20" fill="white"/>
</clipPath>
</defs>
</svg>
