<svg width="24" height="24" viewBox="0 0 24 24" fill="none" xmlns="http://www.w3.org/2000/svg">
<path d="M17.25 2.25H6.75C5.7558 2.25119 4.80267 2.64666 4.09966 3.34966C3.39666 4.05267 3.00119 5.0058 3 6V13.5C3.00119 14.4942 3.39666 15.4473 4.09966 16.1503C4.80267 16.8533 5.7558 17.2488 6.75 17.25H8.25V21C8.25001 21.1434 8.29116 21.2839 8.36857 21.4047C8.44597 21.5254 8.55639 21.6215 8.68673 21.6814C8.81706 21.7413 8.96185 21.7626 9.10391 21.7427C9.24598 21.7228 9.37936 21.6626 9.48825 21.5693L14.5275 17.25H17.25C18.2442 17.2488 19.1973 16.8533 19.9003 16.1503C20.6033 15.4473 20.9988 14.4942 21 13.5V6C20.9988 5.0058 20.6033 4.05267 19.9003 3.34966C19.1973 2.64666 18.2442 2.25119 17.25 2.25Z" fill="#7353FF"/>
<path d="M7.5 11.25C8.32843 11.25 9 10.5784 9 9.75C9 8.92157 8.32843 8.25 7.5 8.25C6.67157 8.25 6 8.92157 6 9.75C6 10.5784 6.67157 11.25 7.5 11.25Z" fill="#F2F5FA"/>
<path d="M12 11.25C12.8284 11.25 13.5 10.5784 13.5 9.75C13.5 8.92157 12.8284 8.25 12 8.25C11.1716 8.25 10.5 8.92157 10.5 9.75C10.5 10.5784 11.1716 11.25 12 11.25Z" fill="#F2F5FA"/>
<path d="M16.5 11.25C17.3284 11.25 18 10.5784 18 9.75C18 8.92157 17.3284 8.25 16.5 8.25C15.6716 8.25 15 8.92157 15 9.75C15 10.5784 15.6716 11.25 16.5 11.25Z" fill="#F2F5FA"/>
</svg>
