<svg width="100" height="100" viewBox="0 0 100 100" fill="none" xmlns="http://www.w3.org/2000/svg">
<g filter="url(#filter0_d_296_59037)">
<rect x="20" y="20" width="60" height="60" rx="30" fill="#7353FF" fill-opacity="0.24" shape-rendering="crispEdges"/>
<rect x="26" y="26" width="48" height="48" rx="24" fill="url(#paint0_linear_296_59037)"/>
<path d="M63.3539 55.5115C63.1297 55.1333 62.4994 54.545 60.9306 54.8251C60.0621 54.9792 59.1796 55.0492 58.2972 55.0072C55.0334 54.8672 52.0779 53.3684 50.0188 51.0571C48.1978 49.0261 47.0772 46.3786 47.0632 43.5211C47.0632 41.9243 47.3714 40.3835 48.0017 38.9267C48.618 37.5119 48.1838 36.7695 47.8756 36.4614C47.5535 36.1392 46.7971 35.691 45.3123 36.3073C39.5832 38.7166 36.0394 44.4596 36.4596 50.6089C36.8798 56.394 40.942 61.3386 46.3208 63.2016C47.6095 63.6498 48.9682 63.916 50.369 63.972C50.5931 63.986 50.8172 64 51.0413 64C55.7338 64 60.1321 61.7868 62.9056 58.0188C63.8441 56.7161 63.592 55.8897 63.3539 55.5115Z" fill="url(#paint1_linear_296_59037)"/>
</g>
<defs>
<filter id="filter0_d_296_59037" x="0" y="0" width="100" height="100" filterUnits="userSpaceOnUse" color-interpolation-filters="sRGB">
<feFlood flood-opacity="0" result="BackgroundImageFix"/>
<feColorMatrix in="SourceAlpha" type="matrix" values="0 0 0 0 0 0 0 0 0 0 0 0 0 0 0 0 0 0 127 0" result="hardAlpha"/>
<feOffset/>
<feGaussianBlur stdDeviation="10"/>
<feComposite in2="hardAlpha" operator="out"/>
<feColorMatrix type="matrix" values="0 0 0 0 0.45098 0 0 0 0 0.32549 0 0 0 0 1 0 0 0 0.2 0"/>
<feBlend mode="normal" in2="BackgroundImageFix" result="effect1_dropShadow_296_59037"/>
<feBlend mode="normal" in="SourceGraphic" in2="effect1_dropShadow_296_59037" result="shape"/>
</filter>
<linearGradient id="paint0_linear_296_59037" x1="66.9736" y1="66.9736" x2="33.0264" y2="33.0264" gradientUnits="userSpaceOnUse">
<stop stop-color="#7353FF" stop-opacity="0.2"/>
<stop offset="0.52" stop-color="#7353FF" stop-opacity="0.4"/>
<stop offset="1" stop-color="#7353FF"/>
</linearGradient>
<linearGradient id="paint1_linear_296_59037" x1="56.2528" y1="53.7646" x2="40.6195" y2="42.0964" gradientUnits="userSpaceOnUse">
<stop stop-color="#C8BCFF"/>
<stop offset="0.57" stop-color="#F2F5FA"/>
<stop offset="1" stop-color="#F2F5FA"/>
</linearGradient>
</defs>
</svg>
