<svg width="20" height="20" viewBox="0 0 20 20" fill="none" xmlns="http://www.w3.org/2000/svg">
<path d="M13.7373 16.8176L13.3636 15.6964L12.2474 16.0684L13.0502 18.4765L14.2267 17.8883L14.6004 19.0095L15.7165 18.6375L14.9138 16.2294L13.7373 16.8176Z" fill="#889CB6"/>
<path d="M16.0922 12.6286L15.6763 13.8764L14.6191 13.3479L14.093 14.4001L16.3634 15.5353L16.7793 14.2875L17.8365 14.8161L18.3626 13.7638L16.0922 12.6286Z" fill="#889CB6"/>
<path d="M2.76624 20H9.94271C9.94271 20 10.2866 18.2802 10.4095 16.4706H1.96106C2.29675 18.7459 2.76624 20 2.76624 20Z" fill="#889CB6"/>
<path d="M6.3113 11.6994C6.34648 10.4156 7.41425 9.41177 8.68785 9.41177H9.26652C9.17589 8.66973 9.20456 7.90306 9.46346 7.05882C9.7237 6.2102 9.91597 5.26376 10.058 4.34643L11.9325 5.92345L14.1637 3.69231H14.1636L10.4526 0H2.8055C2.8055 3.96078 1.63844 6.56671 1.63844 11.7647C1.63844 12.1771 1.62903 12.5758 1.66825 12.9606V12.9412H6.62456C6.40848 12.5685 6.29915 12.1424 6.3113 11.6994Z" fill="#889CB6"/>
<path d="M1.70911 14.1176C1.74303 14.6095 1.78589 15.0735 1.82511 15.5085V15.2941H10.4526V15.2961C10.4526 14.9161 10.4276 14.528 10.3731 14.1176C9.99503 14.1176 2.09017 14.1176 1.70911 14.1176Z" fill="#889CB6"/>
<path d="M13.3577 7.12248C13.6739 7.3882 13.6546 7.88095 13.3184 8.12107L9.86434 10.5882C9.63187 10.5882 8.91932 10.5882 8.68786 10.5882C8.04681 10.5882 7.50496 11.0908 7.48739 11.7317C7.46912 12.3965 8.00265 12.9412 8.66339 12.9412H10.1498L16.0048 9.28095C17.1306 8.41495 17.2383 6.75652 16.234 5.7522L14.9977 4.52213L12.8361 6.68369L13.3577 7.12248Z" fill="#889CB6"/>
</svg>
