<svg width="52" height="52" viewBox="0 0 52 52" fill="none" xmlns="http://www.w3.org/2000/svg">
<g clip-path="url(#clip0_296_58684)">
<path d="M26 0C40.3364 0 52 11.6636 52 26C52 40.3364 40.3364 52 26 52C11.6636 52 0 40.3364 0 26C5.17286e-07 11.6636 11.6636 5.17255e-07 26 0ZM26 31.6592C22.4889 31.6592 18.9786 32.995 16.3057 35.668C15.3829 36.5909 15.3828 38.0876 16.3057 39.0107C17.2285 39.9336 18.7253 39.9334 19.6484 39.0107C23.1507 35.5086 28.8494 35.5086 32.3516 39.0107C33.2744 39.9332 34.7704 39.9333 35.6934 39.0107C36.6165 38.0877 36.6172 36.5911 35.6943 35.668C33.022 32.9956 29.5103 31.6592 26 31.6592ZM20.207 17.333C19.1821 17.3333 18.3321 18.1831 18.332 19.208C18.332 20.5832 17.2072 21.708 15.832 21.708C14.4569 21.708 13.332 20.5832 13.332 19.208C13.332 18.1829 12.4812 17.333 11.4561 17.333C10.4311 17.3332 9.58108 18.183 9.58105 19.208C9.58105 22.6585 12.3816 25.459 15.832 25.459C19.2824 25.4589 22.083 22.6584 22.083 19.208C22.083 18.1829 21.2322 17.333 20.207 17.333ZM40.5439 17.333C39.5188 17.333 38.669 18.1829 38.6689 19.208C38.6689 20.5832 37.5431 21.708 36.168 21.708C34.7929 21.7079 33.668 20.5831 33.668 19.208C33.6679 18.183 32.8179 17.3332 31.793 17.333C30.7678 17.333 29.917 18.1829 29.917 19.208C29.917 22.6584 32.7176 25.4589 36.168 25.459C39.6184 25.459 42.4189 22.6585 42.4189 19.208C42.4189 18.1829 41.569 17.3331 40.5439 17.333Z" fill="#F2F5FA"/>
</g>
<defs>
<clipPath id="clip0_296_58684">
<rect width="52" height="52" fill="white"/>
</clipPath>
</defs>
</svg>
