<svg width="16" height="16" viewBox="0 0 16 16" fill="none" xmlns="http://www.w3.org/2000/svg">
<path d="M2.76596 11.9148C5.0221 11.9148 6.85106 10.0858 6.85106 7.82969C6.85106 6.83021 6.28658 4.91252 5.31915 4.3897M9.91489 11.9148C12.171 11.9148 14 10.0858 14 7.82969C14 6.83021 13.4355 4.91252 12.4681 4.3897M2 6.04245C2 4.91438 2.91448 3.9999 4.04255 3.9999C5.17062 3.9999 6.08511 4.91438 6.08511 6.04245C6.08511 7.17053 5.17062 8.08501 4.04255 8.08501C2.91448 8.08501 2 7.17053 2 6.04245ZM9.14894 6.04245C9.14894 4.91438 10.0634 3.9999 11.1915 3.9999C12.3196 3.9999 13.234 4.91438 13.234 6.04245C13.234 7.17053 12.3196 8.08501 11.1915 8.08501C10.0634 8.08501 9.14894 7.17053 9.14894 6.04245Z" stroke="#E0E9F4" stroke-width="1.5" stroke-linecap="round" stroke-linejoin="round"/>
</svg>
