<svg width="20" height="20" viewBox="0 0 20 20" fill="none" xmlns="http://www.w3.org/2000/svg">
<g clip-path="url(#clip0_296_61650)">
<path d="M8.24219 20C8.8882 20 9.41406 19.4741 9.41406 18.8281C9.41406 18.3406 9.1068 17.8989 8.64844 17.7284L2.36777 15.4212C2.17324 15.3491 1.9684 15.3125 1.75781 15.3125C0.788516 15.3125 0 16.101 0 17.0703C0 17.9212 0.607109 18.649 1.44367 18.8001L8.24219 20Z" fill="#889CB6"/>
<path d="M18.2422 15.3125C18.0322 15.3125 17.8273 15.3491 17.6328 15.4212L11.3504 17.7284C10.8932 17.8989 10.5859 18.3406 10.5859 18.8281C10.5859 19.4741 11.1118 20 11.7578 20H11.7847L18.5563 18.8001C19.3929 18.649 20 17.9212 20 17.0703C20 16.101 19.2115 15.3125 18.2422 15.3125Z" fill="#889CB6"/>
<path d="M18.8281 11.7969C16.339 11.7969 13.5156 9.7534 13.5156 7.07031C13.5156 6.4243 12.9898 5.89844 12.3438 5.89844H7.65625C7.01023 5.89844 6.48438 6.4243 6.48438 7.07031C6.48438 9.7534 3.66098 11.7969 1.17188 11.7969C0.525859 11.7969 0 12.3227 0 12.9688C0 13.6148 0.525859 14.1406 1.17188 14.1406C3.24668 14.1406 6.17594 13.173 7.61906 11.0484C7.64309 11.2962 7.65625 11.5462 7.65625 11.7969C7.65625 13.4658 7.17551 14.7553 6.77926 15.7882L9.05469 16.6292C9.43508 16.7707 9.74555 17.021 9.99953 17.317C10.2527 17.0215 10.562 16.7714 10.9407 16.6303L13.2163 15.7894C12.8564 14.852 12.3438 13.3944 12.3438 11.7969C12.3438 11.5462 12.3569 11.2956 12.3809 11.0484C13.8241 13.173 16.7533 14.1406 18.8281 14.1406C19.4741 14.1406 20 13.6148 20 12.9688C20 12.3227 19.4741 11.7969 18.8281 11.7969Z" fill="#889CB6"/>
<path d="M12.3438 2.38281C12.3438 1.08836 11.2944 0 10 0C8.70559 0 7.65625 1.08836 7.65625 2.38281C7.65625 3.67723 8.70559 4.72656 10 4.72656C11.2944 4.72656 12.3438 3.67723 12.3438 2.38281Z" fill="#889CB6"/>
</g>
<defs>
<clipPath id="clip0_296_61650">
<rect width="20" height="20" fill="white"/>
</clipPath>
</defs>
</svg>
