<svg width="24" height="24" viewBox="0 0 24 24" fill="none" xmlns="http://www.w3.org/2000/svg">
<path d="M16.1904 2C19.83 2.00017 22.0001 4.16997 21.9902 7.80957V16.1904C21.9901 19.8302 19.8195 22 16.1797 22H7.80957C4.16983 21.9998 2 19.8295 2 16.1797V7.80957C2.00017 4.16997 4.16997 2.00017 7.80957 2H16.1904ZM11.7998 7.25C9.28706 7.2501 7.2501 9.28706 7.25 11.7998C7.25 14.3126 9.287 16.3495 11.7998 16.3496C12.8106 16.3496 13.7438 16.0195 14.499 15.4619C14.5354 15.5596 14.5914 15.652 14.6699 15.7305L15.4697 16.5303C15.7626 16.8231 16.2374 16.8231 16.5303 16.5303C16.8232 16.2374 16.8231 15.7626 16.5303 15.4697L15.7305 14.6699C15.652 14.5914 15.5596 14.5354 15.4619 14.499C16.0195 13.7438 16.3496 12.8106 16.3496 11.7998C16.3495 9.287 14.3126 7.25 11.7998 7.25ZM11.7998 8.75C13.4842 8.75 14.8495 10.1154 14.8496 11.7998C14.8496 13.4843 13.4843 14.8496 11.7998 14.8496C10.1154 14.8495 8.75 13.4842 8.75 11.7998C8.7501 10.1155 10.1155 8.7501 11.7998 8.75Z" fill="#E0E9F4"/>
</svg>
