<svg width="52" height="52" viewBox="0 0 52 52" fill="none" xmlns="http://www.w3.org/2000/svg">
<g clip-path="url(#clip0_296_58696)">
<path d="M26 0C40.3364 0 52 11.6636 52 26C52 40.3364 40.3364 52 26 52C11.6636 52 0 40.3364 0 26C5.17286e-07 11.6636 11.6636 5.17255e-07 26 0ZM26 31.6592C22.4889 31.6592 18.9786 32.995 16.3057 35.668C15.3829 36.5909 15.3828 38.0876 16.3057 39.0107C17.2285 39.9336 18.7253 39.9334 19.6484 39.0107C23.1507 35.5086 28.8494 35.5086 32.3516 39.0107C33.2744 39.9332 34.7704 39.9333 35.6934 39.0107C36.6165 38.0877 36.6172 36.5911 35.6943 35.668C33.022 32.9956 29.5103 31.6592 26 31.6592ZM21.8525 16.1104C21.0744 15.3923 19.8124 15.3925 19.0342 16.1104L16.5518 18.4014L14.0703 16.1104C13.2922 15.3923 12.0302 15.3926 11.252 16.1104C10.4737 16.8287 10.4739 17.9935 11.252 18.7119L13.7324 21.001L11.252 23.292C10.4742 24.0099 10.4743 25.174 11.251 25.8926C11.6393 26.2535 12.1502 26.4325 12.6592 26.4326C13.1678 26.4325 13.6782 26.2539 14.0664 25.8936L16.5488 23.6016L19.0322 25.8936C19.4205 26.2541 19.9308 26.4325 20.4395 26.4326C20.9485 26.4326 21.4594 26.2539 21.8477 25.8955C22.6256 25.1771 22.6258 24.0122 21.8477 23.2939L19.3672 21.002L21.8525 18.7119C22.6303 17.9935 22.6306 16.8286 21.8525 16.1104ZM40.749 16.1084C39.9708 15.3905 38.7088 15.3904 37.9307 16.1084L35.4482 18.3984L32.9658 16.1084C32.1876 15.3905 30.9256 15.3904 30.1475 16.1084C29.3696 16.8266 29.3699 17.9906 30.1475 18.709L32.6299 21L30.1475 23.292C29.3699 24.0098 29.3702 25.174 30.1465 25.8926C30.535 26.2536 31.0465 26.4326 31.5557 26.4326C32.0645 26.4326 32.5755 26.2542 32.9639 25.8936L35.4453 23.6016L37.9287 25.8936C38.3171 26.2541 38.8281 26.4326 39.3369 26.4326C39.8457 26.4325 40.356 26.2537 40.7441 25.8955C41.5219 25.1771 41.5223 24.0122 40.7441 23.2939L38.2656 21.001L40.749 18.709C41.5265 17.9906 41.5267 16.8266 40.749 16.1084Z" fill="#C93E3E"/>
</g>
<defs>
<clipPath id="clip0_296_58696">
<rect width="52" height="52" fill="white"/>
</clipPath>
</defs>
</svg>
