<svg width="21" height="21" viewBox="0 0 21 21" fill="none" xmlns="http://www.w3.org/2000/svg">
<path d="M16.0212 1.75H4.97889C3.7587 1.75 2.77039 2.73831 2.77039 3.9585V13.7189C2.77039 14.5117 3.19555 15.2427 3.88347 15.6358L9.95239 19.1042C10.2914 19.2986 10.7088 19.2986 11.0478 19.1042L17.1167 15.6358C17.8046 15.2438 18.2298 14.5117 18.2298 13.7189V3.9585C18.2297 2.73831 17.2414 1.75 16.0212 1.75ZM14.8309 8.7465L10.1003 13.4771L6.87475 10.2516C6.44302 9.81986 6.44302 9.12083 6.87475 8.69015C7.30647 8.25843 8.00551 8.25843 8.43619 8.69015L10.1003 10.3542L13.2694 7.18506C13.7012 6.75334 14.4002 6.75334 14.8309 7.18506C15.2615 7.61574 15.2615 8.31469 14.8309 8.7465Z" fill="#25C3FB"/>
</svg>
