<svg width="20" height="20" viewBox="0 0 20 20" fill="none" xmlns="http://www.w3.org/2000/svg">
<g clip-path="url(#clip0_296_61644)">
<path d="M20 2.61564V1.19736H17.7281C17.0455 1.19736 16.405 1.46048 15.9243 1.92916C11.9885 1.38361 8.00562 1.38349 4.07521 1.92873C3.59458 1.46033 2.95423 1.19736 2.27192 1.19736H0V2.61564C0 3.45491 0.39758 4.22311 1.06039 4.70577C0.769769 7.06125 0.769651 9.44258 1.06004 11.7952C0.397423 12.2779 0 13.046 0 13.8851V15.3034H2.27192C2.95423 15.3034 3.59462 15.0404 4.07525 14.5719C4.36369 14.6119 4.65424 14.6492 4.94553 14.6836C5.06678 12.0006 7.28753 9.85516 10 9.85516C12.7123 9.85516 14.9329 12.0003 15.0544 14.6831C15.3456 14.6487 15.636 14.6115 15.9243 14.5715C16.405 15.0403 17.0455 15.3033 17.7281 15.3033H20V13.8851C20 13.046 19.6026 12.2779 18.9399 11.7952C19.2304 9.44243 19.2303 7.06109 18.9396 4.70573C19.6024 4.22307 20 3.45487 20 2.61564Z" fill="#889CB6"/>
<path d="M9.99997 11.027C7.85621 11.027 6.11218 12.7711 6.11218 14.9148C6.11218 17.0586 7.85621 18.8026 9.99997 18.8026C12.1437 18.8026 13.8878 17.0586 13.8878 14.9148C13.8878 12.7711 12.1437 11.027 9.99997 11.027ZM8.11489 15.5008V14.3289H9.41403V12.5666H10.5859V15.5008H8.11489Z" fill="#889CB6"/>
</g>
<defs>
<clipPath id="clip0_296_61644">
<rect width="20" height="20" fill="white"/>
</clipPath>
</defs>
</svg>
