<svg width="20" height="20" viewBox="0 0 20 20" fill="none" xmlns="http://www.w3.org/2000/svg">
<path d="M9.0576 6.24824L9.75451 4.29688H7.91846L7.03955 7.8125H8.24221C8.58885 7.8125 8.85975 8.1118 8.82525 8.45672L8.66865 10.0228L10.663 7.03125H9.60939C9.2042 7.03125 8.92131 6.62984 9.0576 6.24824Z" fill="#889CB6"/>
<path d="M18.531 11.6502L16.6406 7.86949V7.61719C16.6406 3.41707 13.2236 0 9.02344 0C4.82328 0 1.40625 3.41707 1.40625 7.61719V19.4141C1.40625 19.7377 1.66859 20 1.99219 20H10.5859C10.9095 20 11.1719 19.7377 11.1719 19.4141V16.9922H14.1016C15.2862 16.9922 16.25 16.0284 16.25 14.8438V12.5H18.0058C18.4423 12.5 18.7262 12.0406 18.531 11.6502ZM12.2454 6.77035L8.3391 12.6297C8.00047 13.1377 7.20781 12.8539 7.26855 12.2464L7.59473 8.98438H6.28906C5.90785 8.98438 5.62816 8.62613 5.72062 8.25633L6.8925 3.56883C6.95773 3.30801 7.19207 3.125 7.46094 3.125H10.5859C10.9911 3.125 11.274 3.52641 11.1377 3.90801L10.4408 5.85938H11.7578C12.2258 5.85938 12.505 6.38094 12.2454 6.77035Z" fill="#889CB6"/>
</svg>
