<svg width="20" height="20" viewBox="0 0 20 20" fill="none" xmlns="http://www.w3.org/2000/svg">
<g clip-path="url(#clip0_296_61667)">
<path d="M16.4286 0H3.57143C2.62423 0 1.71582 0.376274 1.04605 1.04605C0.376274 1.71582 0 2.62423 0 3.57143V16.4286C0 17.3758 0.376274 18.2842 1.04605 18.954C1.71582 19.6237 2.62423 20 3.57143 20H16.4286C17.3758 20 18.2842 19.6237 18.954 18.954C19.6237 18.2842 20 17.3758 20 16.4286V3.57143C20 2.62423 19.6237 1.71582 18.954 1.04605C18.2842 0.376274 17.3758 0 16.4286 0ZM16.8714 7.30714L13.6571 9.84286C13.5315 9.94369 13.3754 9.99907 13.2143 10C13.1741 10.0074 13.133 10.0074 13.0929 10C12.9933 9.98272 12.8985 9.9445 12.8147 9.88786C12.731 9.83122 12.6602 9.75745 12.6071 9.67143C12.3475 9.20419 11.9704 8.8128 11.5132 8.53595C11.0559 8.2591 10.5344 8.10637 10 8.09286C9.46705 8.10493 8.94641 8.2555 8.48929 8.52977C8.03217 8.80404 7.65431 9.19257 7.39286 9.65714C7.33976 9.74316 7.269 9.81693 7.18527 9.87357C7.10154 9.93021 7.00674 9.96844 6.90714 9.98571C6.80839 10.0058 6.7064 10.0033 6.60871 9.97861C6.51103 9.95389 6.42017 9.90749 6.34286 9.84286L3.12857 7.30714C3.05394 7.24928 2.99152 7.17719 2.94493 7.09504C2.89834 7.01289 2.8685 6.92232 2.85714 6.82857C2.84602 6.73493 2.85354 6.64001 2.87929 6.54929C2.90503 6.45857 2.94849 6.37384 3.00714 6.3C4.00082 5.14024 5.23383 4.20939 6.62143 3.57143C7.68797 3.11457 8.83616 2.87901 9.99643 2.87901C11.1567 2.87901 12.3049 3.11457 13.3714 3.57143C14.7618 4.21444 15.9952 5.15291 16.9857 6.32143C17.0444 6.39527 17.0878 6.47999 17.1136 6.57071C17.1393 6.66144 17.1468 6.75636 17.1357 6.85C17.1092 7.03055 17.0147 7.19411 16.8714 7.30714ZM7.19286 4.86429C6.23621 5.30845 5.36378 5.91505 4.61429 6.65714L6.65 8.26429C7.31931 7.45809 8.25357 6.91627 9.28571 6.73571V5.71429C9.28571 5.52485 9.36097 5.34316 9.49492 5.20921C9.62888 5.07525 9.81056 5 10 5C10.1894 5 10.3711 5.07525 10.5051 5.20921C10.639 5.34316 10.7143 5.52485 10.7143 5.71429V6.73571C11.7464 6.91627 12.6807 7.45809 13.35 8.26429L15.3857 6.65714C14.6362 5.91505 13.7638 5.30845 12.8071 4.86429C11.9199 4.48507 10.9649 4.28956 10 4.28956C9.03507 4.28956 8.08015 4.48507 7.19286 4.86429Z" fill="#889CB6"/>
</g>
<defs>
<clipPath id="clip0_296_61667">
<rect width="20" height="20" fill="white"/>
</clipPath>
</defs>
</svg>
